<svg width="16" height="16" viewBox="0 0 16 16" fill="none" xmlns="http://www.w3.org/2000/svg">
<path d="M4.93203 6.53203L5.73203 5.46536L7.33203 6.66536V1.33203H8.66537V6.66536L10.2654 5.46536L11.0654 6.53203L7.9987 8.83203L4.93203 6.53203Z" fill="#E6A320"/>
<path fill-rule="evenodd" clip-rule="evenodd" d="M1.33203 7.35335L1.33203 5.95481C1.332 5.36382 1.33197 4.85461 1.38679 4.44684C1.44555 4.00983 1.57805 3.59093 1.91782 3.25115C2.2576 2.91138 2.6765 2.77888 3.11351 2.72012C3.52128 2.6653 4.03049 2.66533 4.62148 2.66536L5.33203 2.66536V3.9987H4.66537C4.01798 3.9987 3.59951 4.00011 3.29117 4.04157C3.00201 4.08045 2.91138 4.14321 2.86063 4.19396C2.80988 4.24471 2.74712 4.33534 2.70824 4.6245C2.66678 4.93284 2.66537 5.35131 2.66537 5.9987V7.33203C2.66537 7.65178 2.66573 7.8582 2.67651 8.01619C2.68688 8.16819 2.70462 8.22608 2.71611 8.25382C2.78378 8.41717 2.91356 8.54696 3.07691 8.61462C3.10465 8.62611 3.16254 8.64385 3.31454 8.65422C3.47253 8.665 3.67895 8.66536 3.9987 8.66536L4.4726 8.66536C4.64575 8.66533 4.81919 8.6653 4.96776 8.67956C5.13608 8.69571 5.32728 8.73388 5.51771 8.84372C5.59581 8.88876 5.66914 8.94162 5.73658 9.00147C5.90099 9.14739 5.99767 9.31671 6.06622 9.47128C6.12672 9.60772 6.18154 9.77227 6.23627 9.93653L6.32726 10.2095C6.40545 10.4441 6.44735 10.5666 6.48609 10.6499L6.48778 10.6535L6.49172 10.6539C6.58299 10.6644 6.71245 10.6654 6.95971 10.6654H9.03769C9.28495 10.6654 9.41442 10.6644 9.50568 10.6539L9.50963 10.6535L9.51131 10.6499C9.55006 10.5666 9.59195 10.4441 9.67015 10.2095L9.76113 9.93656C9.81586 9.77228 9.87068 9.60772 9.93119 9.47128C9.99973 9.31671 10.0964 9.14739 10.2608 9.00147C10.3283 8.94162 10.4016 8.88876 10.4797 8.84372C10.6701 8.73388 10.8613 8.69571 11.0296 8.67956C11.1782 8.6653 11.3517 8.66533 11.5248 8.66536L11.9987 8.66536C12.3185 8.66536 12.5249 8.665 12.6829 8.65422C12.8349 8.64385 12.8927 8.62611 12.9205 8.61462C13.0838 8.54696 13.2136 8.41717 13.2813 8.25382C13.2928 8.22608 13.3105 8.16819 13.3209 8.01619C13.3317 7.8582 13.332 7.65178 13.332 7.33203V5.9987C13.332 5.35131 13.3306 4.93284 13.2892 4.6245C13.2503 4.33534 13.1875 4.24471 13.1368 4.19396C13.086 4.14321 12.9954 4.08045 12.7062 4.04157C12.3979 4.00011 11.9794 3.9987 11.332 3.9987H10.6654V2.66536L11.3759 2.66536C11.9669 2.66533 12.4761 2.6653 12.8839 2.72012C13.3209 2.77888 13.7398 2.91138 14.0796 3.25115C14.4194 3.59093 14.5519 4.00983 14.6106 4.44684C14.6654 4.85461 14.6654 5.36383 14.6654 5.95483L14.6654 7.35336C14.6654 7.36674 14.6654 7.38003 14.6654 7.39324L14.6654 11.3759C14.6654 11.9669 14.6654 12.4761 14.6106 12.8839C14.5519 13.3209 14.4194 13.7398 14.0796 14.0796C13.7398 14.4194 13.3209 14.5518 12.8839 14.6106C12.4761 14.6654 11.9669 14.6654 11.3759 14.6654H4.6215C4.0305 14.6654 3.52128 14.6654 3.11351 14.6106C2.6765 14.5518 2.2576 14.4194 1.91782 14.0796C1.57805 13.7398 1.44555 13.3209 1.38679 12.8839C1.33197 12.4761 1.332 11.9669 1.33203 11.3759L1.33203 7.39601C1.33203 7.38189 1.33203 7.36767 1.33203 7.35335ZM2.66537 9.8835V11.332C2.66537 11.9794 2.66678 12.3979 2.70824 12.7062C2.74712 12.9954 2.80988 13.086 2.86063 13.1368C2.91138 13.1875 3.00201 13.2503 3.29117 13.2892C3.59951 13.3306 4.01798 13.332 4.66537 13.332H11.332C11.9794 13.332 12.3979 13.3306 12.7062 13.2892C12.9954 13.2503 13.086 13.1875 13.1368 13.1368C13.1875 13.086 13.2503 12.9954 13.2892 12.7062C13.3306 12.3979 13.332 11.9794 13.332 11.332V9.8835C13.147 9.94603 12.9603 9.97173 12.7736 9.98446C12.5648 9.99871 12.3125 9.99871 12.02 9.9987L11.5484 9.9987C11.342 9.9987 11.234 9.99941 11.157 10.0068L11.1521 10.0073L11.15 10.0118C11.1187 10.0825 11.0839 10.1848 11.0186 10.3806L10.9261 10.6581C10.8606 10.8547 10.795 11.0515 10.7202 11.2123C10.6348 11.396 10.5113 11.5931 10.2978 11.747C10.0843 11.9009 9.85825 11.9557 9.65693 11.9787C9.48069 11.9988 9.27326 11.9987 9.06608 11.9987H6.93132C6.72414 11.9987 6.51671 11.9988 6.34048 11.9787C6.13916 11.9557 5.9131 11.9009 5.69959 11.747C5.48609 11.5931 5.36264 11.396 5.27717 11.2123C5.20235 11.0514 5.1368 10.8546 5.07132 10.6581L4.97882 10.3806C4.91355 10.1848 4.87872 10.0825 4.84736 10.0118L4.84534 10.0073L4.8404 10.0068C4.7634 9.99941 4.65541 9.9987 4.449 9.9987L3.97737 9.9987C3.68494 9.99871 3.43262 9.99871 3.22378 9.98446C3.03713 9.97173 2.85044 9.94603 2.66537 9.8835Z" fill="#E6A320"/>
</svg>
