<svg width="16" height="16" viewBox="0 0 16 16" fill="none" xmlns="http://www.w3.org/2000/svg">
<path d="M6.00004 10.6663C6.00004 10.2982 6.29852 9.99967 6.66671 9.99967H7.33338V9.33301C7.33338 8.96482 7.63185 8.66634 8.00004 8.66634C8.36823 8.66634 8.66671 8.96482 8.66671 9.33301V9.99967H9.33338C9.70157 9.99967 10 10.2982 10 10.6663C10 11.0345 9.70157 11.333 9.33338 11.333H8.66671V11.9997C8.66671 12.3679 8.36823 12.6663 8.00004 12.6663C7.63185 12.6663 7.33338 12.3679 7.33338 11.9997V11.333H6.66671C6.29852 11.333 6.00004 11.0345 6.00004 10.6663Z" fill="#3E423C"/>
<path fill-rule="evenodd" clip-rule="evenodd" d="M5.33338 1.33301C5.70157 1.33301 6.00004 1.63148 6.00004 1.99967L6.00004 3.33301H10L10 1.99967C10 1.63148 10.2985 1.33301 10.6667 1.33301C11.0349 1.33301 11.3334 1.63148 11.3334 1.99967V3.33301L11.3773 3.33301C11.9683 3.33297 12.4775 3.33294 12.8852 3.38777C13.3222 3.44652 13.7412 3.57902 14.0809 3.91879C14.4207 4.25857 14.5532 4.67747 14.612 5.11448C14.6668 5.52226 14.6667 6.03147 14.6667 6.62247V11.3769C14.6667 11.9679 14.6668 12.4771 14.612 12.8849C14.5532 13.3219 14.4207 13.7408 14.0809 14.0806C13.7412 14.4203 13.3222 14.5528 12.8852 14.6116C12.4775 14.6664 11.9682 14.6664 11.3772 14.6663H4.62284C4.03184 14.6664 3.52263 14.6664 3.11485 14.6116C2.67784 14.5528 2.25894 14.4203 1.91916 14.0806C1.57939 13.7408 1.44689 13.3219 1.38814 12.8849C1.33331 12.4771 1.33334 11.9679 1.33338 11.3769V6.62245C1.33334 6.03146 1.33331 5.52225 1.38814 5.11448C1.44689 4.67747 1.57939 4.25857 1.91916 3.91879C2.25894 3.57902 2.67784 3.44652 3.11485 3.38777C3.52262 3.33294 4.03183 3.33297 4.62282 3.33301L4.66671 3.33301V1.99967C4.66671 1.63148 4.96519 1.33301 5.33338 1.33301ZM10 4.66634C10 5.03453 10.2985 5.33301 10.6667 5.33301C11.0349 5.33301 11.3334 5.03453 11.3334 4.66634C11.9808 4.66634 12.3992 4.66776 12.7076 4.70921C12.9967 4.74809 13.0874 4.81085 13.1381 4.8616C13.1889 4.91235 13.2516 5.00298 13.2905 5.29214C13.332 5.60048 13.3334 6.01896 13.3334 6.66634H2.66671C2.66671 6.01896 2.66813 5.60048 2.70958 5.29214C2.74846 5.00298 2.81122 4.91235 2.86197 4.8616C2.91272 4.81085 3.00335 4.74809 3.29251 4.70921C3.60085 4.66776 4.01932 4.66634 4.66671 4.66634C4.66671 5.03453 4.96519 5.33301 5.33338 5.33301C5.70157 5.33301 6.00004 5.03453 6.00004 4.66634H10ZM2.66671 7.99967V11.333C2.66671 11.9804 2.66813 12.3989 2.70958 12.7072C2.74846 12.9964 2.81122 13.087 2.86197 13.1377C2.91272 13.1885 3.00335 13.2513 3.29251 13.2901C3.60085 13.3316 4.01932 13.333 4.66671 13.333H11.3334C11.9808 13.333 12.3992 13.3316 12.7076 13.2901C12.9967 13.2513 13.0874 13.1885 13.1381 13.1377C13.1889 13.087 13.2516 12.9964 13.2905 12.7072C13.332 12.3989 13.3334 11.9804 13.3334 11.333V7.99967H2.66671Z" fill="#3E423C"/>
</svg>
