<svg width="24" height="24" viewBox="0 0 24 24" fill="none" xmlns="http://www.w3.org/2000/svg">
<path d="M22.774 6.63327C23.1237 6.20582 23.0607 5.5758 22.6332 5.22607C22.2058 4.87635 21.5758 4.93935 21.226 5.36679L12.8524 15.6013L8.6247 12.2192C8.19343 11.8742 7.56414 11.9441 7.21913 12.3753C6.87412 12.8066 6.94404 13.4359 7.37531 13.7809L11.603 17.163C12.4588 17.8477 13.7062 17.716 14.4003 16.8678L22.774 6.63327Z" fill="#9DA19C"/>
<path d="M15.774 6.6333L11.1893 12.2368L9.65279 10.9564L14.2261 5.36682C14.5758 4.93938 15.2059 4.87638 15.6333 5.2261C16.0607 5.57583 16.1237 6.20585 15.774 6.6333Z" fill="#9DA19C"/>
<path d="M6.48647 14.8264L8.02298 16.1068L7.38106 16.8914C6.7024 17.7208 5.49053 17.8679 4.63315 17.2249L1.40006 14.8001C0.958231 14.4687 0.868688 13.8419 1.20006 13.4001C1.53143 12.9582 2.15823 12.8687 2.60006 13.2001L5.83315 15.6249L6.48647 14.8264Z" fill="#9DA19C"/>
</svg>
