<svg width="16" height="16" viewBox="0 0 16 16" fill="none" xmlns="http://www.w3.org/2000/svg">
<path fill-rule="evenodd" clip-rule="evenodd" d="M8 14C11.3137 14 14 11.3137 14 8C14 4.68629 11.3137 2 8 2C4.68629 2 2 4.68629 2 8C2 11.3137 4.68629 14 8 14ZM11.0508 6.32009C11.2276 6.10795 11.1989 5.79267 10.9868 5.61589C10.7746 5.43911 10.4593 5.46777 10.2826 5.67991L8.35127 7.99745C8.01402 8.40216 7.79364 8.66483 7.60635 8.83519C7.42971 8.99586 7.34451 9.01555 7.28879 9.01807C7.23307 9.0206 7.14645 9.00871 6.95598 8.86469C6.75404 8.71199 6.51078 8.47034 6.13828 8.09784L5.68689 7.64645C5.49163 7.45118 5.17504 7.45118 4.97978 7.64645C4.78452 7.84171 4.78452 8.15829 4.97978 8.35355L5.43117 8.80494L5.45572 8.82949L5.45573 8.8295C5.79676 9.17057 6.0889 9.46275 6.35284 9.66233C6.63457 9.87536 6.94926 10.0345 7.33411 10.017C7.71896 9.99959 8.01794 9.81261 8.27923 9.57494C8.52401 9.35229 8.78851 9.03486 9.09726 8.66431L9.11949 8.63764L11.0508 6.32009Z" fill="#83AA1D"/>
</svg> 