<svg width="16" height="16" viewBox="0 0 16 16" fill="none" xmlns="http://www.w3.org/2000/svg">
<path d="M4.66667 6.00033C4.66667 5.63214 4.96514 5.33366 5.33333 5.33366H10.6667C11.0349 5.33366 11.3333 5.63214 11.3333 6.00033C11.3333 6.36852 11.0349 6.66699 10.6667 6.66699H5.33333C4.96514 6.66699 4.66667 6.36852 4.66667 6.00033Z" fill="#3E423C"/>
<path d="M5.33333 8.00033C4.96514 8.00033 4.66667 8.2988 4.66667 8.66699C4.66667 9.03518 4.96514 9.33366 5.33333 9.33366H8.66667C9.03486 9.33366 9.33333 9.03518 9.33333 8.66699C9.33333 8.2988 9.03486 8.00033 8.66667 8.00033H5.33333Z" fill="#3E423C"/>
<path fill-rule="evenodd" clip-rule="evenodd" d="M5.83913 2.66699H10.1609C10.6975 2.66698 11.1404 2.66698 11.5012 2.69646C11.8759 2.72707 12.2204 2.79278 12.544 2.95764C13.0457 3.2133 13.4537 3.62125 13.7093 4.12302C13.8742 4.44657 13.9399 4.79104 13.9705 5.16578C14 5.52657 14 5.96947 14 6.50611V8.16121C14 8.69785 14 9.14075 13.9705 9.50154C13.9399 9.87627 13.8742 10.2207 13.7094 10.5443C13.4537 11.0461 13.0457 11.454 12.544 11.7097C12.2204 11.8745 11.8759 11.9402 11.5012 11.9709C11.1404 12.0003 10.6975 12.0003 10.1609 12.0003H5.60948L3.6502 13.9596C3.04124 14.5686 2 14.1373 2 13.2761V6.50613C1.99999 5.96949 1.99999 5.52657 2.02946 5.16578C2.06008 4.79104 2.12579 4.44658 2.29065 4.12302C2.54631 3.62125 2.95426 3.2133 3.45603 2.95764C3.77958 2.79278 4.12405 2.72707 4.49878 2.69646C4.85958 2.66698 5.30249 2.66698 5.83913 2.66699ZM4.60736 4.02536C4.31508 4.04924 4.16561 4.09252 4.06135 4.14565C3.81046 4.27348 3.60649 4.47746 3.47866 4.72834C3.42553 4.83261 3.38225 4.98207 3.35837 5.27435C3.33385 5.57441 3.33333 5.96261 3.33333 6.53366V12.3909L4.66667 11.0575C4.91672 10.8075 5.25586 10.667 5.60948 10.667H10.1333C10.7044 10.667 11.0926 10.6665 11.3926 10.642C11.6849 10.6181 11.8344 10.5748 11.9387 10.5217C12.1895 10.3938 12.3935 10.1899 12.5213 9.93898C12.5745 9.83471 12.6178 9.68524 12.6416 9.39297C12.6661 9.09291 12.6667 8.70471 12.6667 8.13366V6.53366C12.6667 5.96261 12.6661 5.57441 12.6416 5.27435C12.6178 4.98207 12.5745 4.83261 12.5213 4.72834C12.3935 4.47746 12.1895 4.27348 11.9387 4.14565C11.8344 4.09252 11.6849 4.04924 11.3926 4.02536C11.0926 4.00084 10.7044 4.00033 10.1333 4.00033H5.86667C5.29561 4.00033 4.90742 4.00084 4.60736 4.02536Z" fill="#3E423C"/>
</svg>
