<svg width="33" height="33" viewBox="0 0 33 33" fill="none" xmlns="http://www.w3.org/2000/svg">
<path fill-rule="evenodd" clip-rule="evenodd" d="M25.6332 7.14995C26.2005 7.93235 26.0983 9.11241 25.405 9.78568L18.4852 16.5054L25.3939 23.2143C26.0872 23.8875 26.1894 25.0676 25.6221 25.85C25.0548 26.6324 24.0329 26.7209 23.3396 26.0476L15.9992 18.9195L8.66037 26.0461C7.96706 26.7194 6.94514 26.6309 6.37785 25.8485C5.81057 25.0661 5.91273 23.8861 6.60605 23.2128L13.5132 16.5054L6.59492 9.78713C5.9016 9.11387 5.79944 7.93381 6.36672 7.1514C6.93401 6.369 7.95593 6.28052 8.64924 6.95379L15.9992 14.0912L23.3507 6.95233C24.044 6.27907 25.0659 6.36754 25.6332 7.14995Z" fill="#686868"/>
</svg>
