<svg width="16" height="16" viewBox="0 0 16 16" fill="none" xmlns="http://www.w3.org/2000/svg">
<path fill-rule="evenodd" clip-rule="evenodd" d="M14 8C14 11.3137 11.3137 14 8 14C4.68629 14 2 11.3137 2 8C2 4.68629 4.68629 2 8 2C11.3137 2 14 4.68629 14 8ZM4.86193 11.1381C4.60158 10.8777 4.60158 10.4556 4.86193 10.1953L7.05719 8L4.86193 5.80474C4.60158 5.54439 4.60158 5.12228 4.86193 4.86193C5.12228 4.60158 5.54439 4.60158 5.80474 4.86193L8 7.05719L10.1953 4.86193C10.4556 4.60158 10.8777 4.60158 11.1381 4.86193C11.3984 5.12228 11.3984 5.54439 11.1381 5.80474L8.94281 8L11.1381 10.1953C11.3984 10.4556 11.3984 10.8777 11.1381 11.1381C10.8777 11.3984 10.4556 11.3984 10.1953 11.1381L8 8.94281L5.80474 11.1381C5.54439 11.3984 5.12228 11.3984 4.86193 11.1381Z" fill="#D42222"/>
</svg> 