<svg width="20" height="20" viewBox="0 0 20 20" fill="none" xmlns="http://www.w3.org/2000/svg">
<path d="M11.3215 6.17855L10.6143 5.47144L4.61928 11.4665C4.60842 11.4774 4.59698 11.4887 4.58507 11.5005C4.46031 11.6243 4.28317 11.8001 4.15706 12.0228C4.03096 12.2455 3.97139 12.4879 3.92943 12.6585C3.92543 12.6748 3.92158 12.6904 3.91785 12.7054L3.36491 14.9171C3.36254 14.9266 3.36001 14.9367 3.35737 14.9472C3.32722 15.0669 3.28155 15.2483 3.26562 15.4112C3.24707 15.6008 3.2381 16.041 3.59853 16.4015C3.95898 16.7619 4.39926 16.7529 4.58881 16.7344C4.75172 16.7184 4.93309 16.6728 5.05284 16.6426C5.06334 16.64 5.07337 16.6375 5.08287 16.6351L7.29464 16.0821C7.30955 16.0784 7.32519 16.0746 7.34149 16.0706C7.51215 16.0286 7.75447 15.969 7.9772 15.8429C8.19993 15.7168 8.37569 15.5397 8.49946 15.4149C8.51128 15.403 8.52263 15.3916 8.5335 15.3807L14.5286 9.38565C14.5405 9.37371 14.5525 9.36176 14.5644 9.34979C14.8108 9.10353 15.0611 8.85341 15.2415 8.61698C15.4482 8.346 15.6548 7.97919 15.6548 7.50004C15.6548 7.02089 15.4482 6.65408 15.2415 6.38309C15.0611 6.14666 14.8108 5.89654 14.5644 5.65027C14.5525 5.63831 14.5405 5.62636 14.5286 5.61442L14.3856 5.47144C14.3736 5.4595 14.3617 5.44754 14.3497 5.43557C14.1035 5.18917 13.8533 4.93891 13.6169 4.75853C13.3459 4.55177 12.9791 4.34521 12.5 4.34521C12.0208 4.34521 11.654 4.55177 11.383 4.75853C11.1466 4.93891 10.8965 5.18917 10.6502 5.43556C10.6382 5.44753 10.6263 5.45949 10.6143 5.47144L11.3215 6.17855Z" stroke="#10816A" stroke-width="2"/>
<path d="M10.4167 6.24992L12.9167 4.58325L15.4167 7.08325L13.7501 9.58325L10.4167 6.24992Z" fill="#10816A"/>
</svg>
