<svg width="20" height="20" viewBox="0 0 20 20" fill="none" xmlns="http://www.w3.org/2000/svg">
<path fill-rule="evenodd" clip-rule="evenodd" d="M5.83333 3.33594C7.38882 3.33594 8.69546 4.40138 9.06328 5.84229C9.09715 5.8381 9.13166 5.83594 9.16667 5.83594L16.6667 5.83594C17.1269 5.83594 17.5 6.20903 17.5 6.66927C17.5 7.12951 17.1269 7.5026 16.6667 7.5026L9.16667 7.5026C9.13166 7.5026 9.09715 7.50045 9.06328 7.49625C8.69546 8.93716 7.38882 10.0026 5.83333 10.0026C3.99238 10.0026 2.5 8.51022 2.5 6.66927C2.5 4.82832 3.99238 3.33594 5.83333 3.33594ZM7.5 6.66927C7.5 5.7488 6.75381 5.0026 5.83333 5.0026C4.91286 5.0026 4.16667 5.7488 4.16667 6.66927C4.16667 7.58975 4.91286 8.33594 5.83333 8.33594C6.75381 8.33594 7.5 7.58975 7.5 6.66927Z" fill="#283936"/>
<path fill-rule="evenodd" clip-rule="evenodd" d="M3.33333 12.5026C2.8731 12.5026 2.5 12.8757 2.5 13.3359C2.5 13.7962 2.8731 14.1693 3.33333 14.1693L10.9383 14.1693C11.3084 15.607 12.6135 16.6693 14.1667 16.6693C16.0076 16.6693 17.5 15.1769 17.5 13.3359C17.5 11.495 16.0076 10.0026 14.1667 10.0026C12.6135 10.0026 11.3084 11.0649 10.9383 12.5026L3.33333 12.5026ZM14.1667 11.6693C15.0871 11.6693 15.8333 12.4155 15.8333 13.3359C15.8333 14.2564 15.0871 15.0026 14.1667 15.0026C13.2462 15.0026 12.5 14.2564 12.5 13.3359C12.5 12.4155 13.2462 11.6693 14.1667 11.6693Z" fill="#283936"/>
</svg>
