<svg width="24" height="24" viewBox="0 0 24 24" fill="none" xmlns="http://www.w3.org/2000/svg">
<path fill-rule="evenodd" clip-rule="evenodd" d="M10.8815 6.38453C10.3415 6.7412 9.69755 7.29072 8.74625 8.10612L7.74625 8.96326C6.64588 9.90644 6.34477 10.1927 6.18319 10.544C6.0216 10.8954 6.00021 11.3103 6.00021 12.7595V16.9999C6.00021 17.971 6.00234 18.5987 6.06452 19.0612C6.12283 19.495 6.21698 19.6309 6.2931 19.707C6.36923 19.7832 6.50518 19.8773 6.93892 19.9356C7.40142 19.9978 8.02913 19.9999 9.00021 19.9999H15.0002C15.9713 19.9999 16.599 19.9978 17.0615 19.9356C17.4952 19.8773 17.6312 19.7832 17.7073 19.707C17.7834 19.6309 17.8776 19.495 17.9359 19.0612C17.9981 18.5987 18.0002 17.971 18.0002 16.9999V12.7595C18.0002 11.3103 17.9788 10.8954 17.8172 10.544C17.6557 10.1927 17.3545 9.90644 16.2542 8.96327L15.2542 8.10612C14.3029 7.29072 13.6589 6.7412 13.1189 6.38453C12.6023 6.04331 12.2848 5.95117 12.0002 5.95117C11.7156 5.95117 11.3982 6.04331 10.8815 6.38453ZM9.77931 4.71566C10.4718 4.25831 11.175 3.95117 12.0002 3.95117C12.8254 3.95117 13.5286 4.25831 14.2211 4.71566C14.8783 5.14968 15.6169 5.78284 16.5072 6.54595L17.5558 7.44475C17.6042 7.48624 17.652 7.52716 17.6992 7.56756C18.5898 8.32959 19.2664 8.90856 19.6343 9.70832C20.0021 10.5081 20.0013 11.3986 20.0003 12.5707C20.0003 12.6329 20.0002 12.6958 20.0002 12.7595L20.0002 17.0658C20.0003 17.9523 20.0003 18.7161 19.9181 19.3277C19.8299 19.9832 19.6312 20.6116 19.1215 21.1213C18.6119 21.6309 17.9835 21.8297 17.328 21.9178C16.7163 22 15.9525 22 15.066 21.9999H8.9344C8.04791 22 7.28409 22 6.67242 21.9178C6.0169 21.8297 5.38855 21.6309 4.87889 21.1213C4.36923 20.6116 4.17048 19.9832 4.08235 19.3277C4.00012 18.7161 4.00016 17.9523 4.00021 17.0658L4.00021 12.7595C4.00021 12.6958 4.00016 12.6329 4.0001 12.5707C3.99909 11.3986 3.99833 10.5081 4.36616 9.70832C4.73399 8.90857 5.41065 8.32959 6.30122 7.56757C6.34844 7.52716 6.39626 7.48624 6.44467 7.44475L7.44467 6.58761C7.46092 6.57368 7.47713 6.55979 7.49328 6.54594C8.38352 5.78284 9.12216 5.14968 9.77931 4.71566Z" fill="#3E423C"/>
<path fill-rule="evenodd" clip-rule="evenodd" d="M8.50021 15.9999C8.50021 14.8954 9.39564 13.9999 10.5002 13.9999H13.5002C14.6048 13.9999 15.5002 14.8954 15.5002 15.9999V20.9999C15.5002 21.5522 15.0525 21.9999 14.5002 21.9999C13.9479 21.9999 13.5002 21.5522 13.5002 20.9999V15.9999H10.5002V20.9999C10.5002 21.5522 10.0525 21.9999 9.50021 21.9999C8.94793 21.9999 8.50021 21.5522 8.50021 20.9999V15.9999Z" fill="#3E423C"/>
</svg>
