<svg width="16" height="16" viewBox="0 0 16 16" fill="none" xmlns="http://www.w3.org/2000/svg">
<path fill-rule="evenodd" clip-rule="evenodd" d="M6.84251 1.43429C7.70469 1.28226 8.58837 1.30155 9.44309 1.49103C10.2978 1.68052 11.1069 2.03651 11.824 2.53866C12.5412 3.04081 13.1524 3.6793 13.6228 4.41768C14.0932 5.15605 14.4135 5.97984 14.5655 6.84202C14.7176 7.7042 14.6983 8.58788 14.5088 9.44261C14.3193 10.2973 13.9633 11.1064 13.4612 11.8235C12.959 12.5407 12.3205 13.1519 11.5822 13.6223C10.8438 14.0927 10.02 14.413 9.15782 14.5651C8.29564 14.7171 7.41196 14.6978 6.55723 14.5083C5.70251 14.3188 4.89347 13.9628 4.17632 13.4607C3.45917 12.9585 2.84795 12.32 2.37755 11.5817C1.90716 10.8433 1.5868 10.0195 1.43478 9.15733C1.28275 8.29515 1.30203 7.41147 1.49152 6.55675C1.68101 5.70202 2.03699 4.89298 2.53915 4.17583C3.0413 3.45868 3.67979 2.84746 4.41816 2.37707L4.77636 2.93933L4.41816 2.37707C5.15654 1.90667 5.98033 1.58632 6.84251 1.43429ZM9.15451 2.79276C8.47073 2.64117 7.76378 2.62575 7.07404 2.74737C6.3843 2.86899 5.72526 3.12527 5.13456 3.50159C4.54387 3.8779 4.03307 4.36688 3.63135 4.9406C3.22963 5.51432 2.94484 6.16155 2.79325 6.84533C2.64166 7.52911 2.62623 8.23606 2.74786 8.9258C2.86948 9.61554 3.12576 10.2746 3.50208 10.8653C3.87839 11.456 4.36737 11.9668 4.94109 12.3685C5.51481 12.7702 6.16204 13.055 6.84582 13.2066C7.5296 13.3582 8.23654 13.3736 8.92629 13.252C9.61603 13.1304 10.2751 12.8741 10.8658 12.4978C11.4565 12.1214 11.9673 11.6325 12.369 11.0587C12.7707 10.485 13.0555 9.8378 13.2071 9.15402C13.3587 8.47024 13.3741 7.76329 13.2525 7.07355C13.1309 6.38381 12.8746 5.72477 12.4983 5.13408C12.1219 4.54338 11.633 4.03259 11.0592 3.63086C10.4855 3.22914 9.83829 2.94435 9.15451 2.79276ZM7.3335 5.33301C7.3335 4.96482 7.63198 4.66634 8.00017 4.66634H8.00684C8.37503 4.66634 8.6735 4.96482 8.6735 5.33301C8.6735 5.7012 8.37503 5.99967 8.00684 5.99967H8.00017C7.63198 5.99967 7.3335 5.7012 7.3335 5.33301ZM6.3335 7.99967C6.3335 7.63148 6.63197 7.33301 7.00016 7.33301H8.00016C8.36835 7.33301 8.66683 7.63148 8.66683 7.99967V9.99967H9.3335C9.70169 9.99967 10.0002 10.2982 10.0002 10.6663C10.0002 11.0345 9.70169 11.333 9.3335 11.333H8.00016C7.63197 11.333 7.3335 11.0345 7.3335 10.6663V8.66634H7.00016C6.63197 8.66634 6.3335 8.36786 6.3335 7.99967Z" fill="#3E423C"/>
</svg>
