<svg width="20" height="20" viewBox="0 0 20 20" fill="none" xmlns="http://www.w3.org/2000/svg">
<path fill-rule="evenodd" clip-rule="evenodd" d="M9.67177 2.56738C9.8814 2.47754 10.1187 2.47754 10.3283 2.56738L16.1616 5.06738C16.468 5.19869 16.6667 5.49998 16.6667 5.83333C16.6667 6.16669 16.468 6.46797 16.1616 6.59929L10.3283 9.09929C10.1187 9.18913 9.8814 9.18913 9.67177 9.09929L3.83844 6.59929C3.53204 6.46797 3.33337 6.16669 3.33337 5.83333C3.33337 5.49998 3.53204 5.19869 3.83844 5.06738L9.67177 2.56738ZM6.2822 5.83333L10 7.42669L13.7179 5.83333L10 4.23997L6.2822 5.83333Z" fill="white"/>
<path d="M5.85458 8.36995L3.83844 9.23401C3.53204 9.36533 3.33337 9.66661 3.33337 9.99997C3.33337 10.3333 3.53204 10.6346 3.83844 10.7659L9.67177 13.2659C9.8814 13.3558 10.1187 13.3558 10.3283 13.2659L16.1616 10.7659C16.468 10.6346 16.6667 10.3333 16.6667 9.99997C16.6667 9.66661 16.468 9.36533 16.1616 9.23401L14.1455 8.36995L12.03 9.27659L13.7179 9.99997L10 11.5933L6.2822 9.99997L7.97007 9.27659L5.85458 8.36995Z" fill="white"/>
<path d="M3.83844 13.4007L5.85458 12.5366L7.97007 13.4433L6.2822 14.1666L10 15.76L13.7179 14.1666L12.03 13.4433L14.1455 12.5366L16.1616 13.4007C16.468 13.532 16.6667 13.8333 16.6667 14.1666C16.6667 14.5 16.468 14.8013 16.1616 14.9326L10.3283 17.4326C10.1187 17.5224 9.8814 17.5224 9.67177 17.4326L3.83844 14.9326C3.53204 14.8013 3.33337 14.5 3.33337 14.1666C3.33337 13.8333 3.53204 13.532 3.83844 13.4007Z" fill="white"/>
</svg>
