<svg width="20" height="20" viewBox="0 0 20 20" fill="none" xmlns="http://www.w3.org/2000/svg">
<path fill-rule="evenodd" clip-rule="evenodd" d="M12.9385 7.29485C13.1222 7.42043 13.3108 7.55793 13.5052 7.70673C12.8911 8.25149 12.3892 8.69221 11.9591 9.05018C11.9088 9.01436 11.8591 8.97966 11.81 8.94606C11.0417 8.42098 10.5135 8.24219 10 8.24219C9.48647 8.24219 8.95836 8.42098 8.19006 8.94606C7.39832 9.48716 6.46518 10.3141 5.12801 11.5027L3.16437 13.2481C2.75159 13.615 2.11952 13.5779 1.7526 13.1651C1.38568 12.7523 1.42286 12.1202 1.83565 11.7533L3.79928 10.0078L3.85041 9.9624C5.12436 8.82997 6.15201 7.91647 7.06157 7.29485C8.00672 6.6489 8.92938 6.24219 10 6.24219C11.0706 6.24219 11.9933 6.6489 12.9385 7.29485ZM17.1973 11.115L17.3218 11.0043L18.1644 11.7533C18.5772 12.1202 18.6143 12.7523 18.2474 13.1651C17.8805 13.5779 17.2484 13.615 16.8356 13.2481L15.8113 12.3375C16.2204 11.9835 16.6454 11.6056 17.0879 11.2122L17.088 11.2121L17.1973 11.115ZM3.16437 6.75358L4.18877 7.66415C3.77962 8.01826 3.35458 8.39614 2.91207 8.78954L2.91207 8.78955L2.80274 8.88674L2.67826 8.99739L1.83565 8.24839C1.42286 7.88148 1.38568 7.2494 1.7526 6.83662C2.11952 6.42384 2.75159 6.38666 3.16437 6.75358ZM7.06157 12.7068C6.87782 12.5813 6.68924 12.4438 6.49479 12.295C7.10891 11.7502 7.61084 11.3095 8.04089 10.9515C8.0912 10.9873 8.14091 11.022 8.19006 11.0556C8.95836 11.5807 9.48647 11.7595 10 11.7595C10.5135 11.7595 11.0417 11.5807 11.81 11.0556C12.6017 10.5145 13.5348 9.68762 14.872 8.49903L16.8356 6.75358C17.2484 6.38666 17.8805 6.42384 18.2474 6.83662C18.6143 7.2494 18.5772 7.88148 18.1644 8.24839L16.2007 9.99385L16.1496 10.0393C14.8757 11.1717 13.848 12.0852 12.9385 12.7068C11.9933 13.3528 11.0706 13.7595 10 13.7595C8.92938 13.7595 8.00672 13.3528 7.06157 12.7068Z" fill="#283936"/>
</svg>
