<svg width="40" height="40" viewBox="0 0 40 40" fill="none" xmlns="http://www.w3.org/2000/svg">
<path d="M11.6668 15C11.0918 15.7188 11.2083 16.7676 11.9271 17.3426L19.3754 23.3013C19.7406 23.5935 20.2596 23.5935 20.6248 23.3013L28.0731 17.3426C28.7919 16.7676 28.9085 15.7188 28.3334 15C27.7584 14.2812 26.7096 14.1647 25.9908 14.7397L21.6668 18.199V6.66667C21.6668 5.74619 20.9206 5 20.0001 5C19.0796 5 18.3334 5.74619 18.3334 6.66667L18.3334 18.199L14.0094 14.7397C13.2906 14.1647 12.2418 14.2812 11.6668 15Z" fill="#3E423C"/>
<path d="M26.0877 29.6002C27.3909 28.6003 28.4206 27.3003 29.0961 25.8215C29.4786 24.9842 30.3801 24.448 31.2692 24.6862C32.1584 24.9245 32.6956 25.8439 32.3484 26.6964C31.4592 28.8794 30.0027 30.7977 28.1169 32.2447C25.7883 34.0315 22.9352 35 20.0001 35C17.065 35 14.2119 34.0315 11.8833 32.2447C9.99747 30.7977 8.54101 28.8794 7.65182 26.6964C7.30459 25.8439 7.84186 24.9245 8.73097 24.6862C9.62008 24.448 10.5216 24.9842 10.9041 25.8215C11.5796 27.3003 12.6094 28.6003 13.9125 29.6002C15.6589 30.9403 17.7988 31.6667 20.0001 31.6667C22.2014 31.6667 24.3413 30.9403 26.0877 29.6002Z" fill="#3E423C"/>
</svg>
