<svg width="16" height="16" viewBox="0 0 16 16" fill="none" xmlns="http://www.w3.org/2000/svg">
<g id="Map">
<path id="Vector (Stroke)" fill-rule="evenodd" clip-rule="evenodd" d="M4.11024 1.33594H11.895C12.2464 1.33593 12.5496 1.33592 12.7993 1.35632C13.0629 1.37785 13.325 1.4254 13.5773 1.55393C13.9536 1.74567 14.2595 2.05163 14.4513 2.42796C14.5798 2.68021 14.6274 2.94236 14.6489 3.20592C14.6693 3.45563 14.6693 3.7588 14.6693 4.11023V11.895C14.6693 12.2464 14.6693 12.5496 14.6489 12.7993C14.6274 13.0629 14.5798 13.325 14.4513 13.5773C14.2595 13.9536 13.9536 14.2595 13.5773 14.4513C13.325 14.5798 13.0629 14.6274 12.7993 14.6489C12.5496 14.6693 12.2464 14.6693 11.895 14.6693H4.11023C3.7588 14.6693 3.45563 14.6693 3.20592 14.6489C2.94236 14.6274 2.68021 14.5798 2.42796 14.4513C2.05163 14.2595 1.74567 13.9536 1.55393 13.5773C1.4254 13.325 1.37785 13.0629 1.35632 12.7993C1.33592 12.5496 1.33593 12.2464 1.33594 11.895V4.11024C1.33593 3.75881 1.33592 3.45563 1.35632 3.20592C1.37785 2.94236 1.4254 2.68021 1.55393 2.42796C1.74567 2.05163 2.05163 1.74567 2.42796 1.55393C2.68021 1.4254 2.94236 1.37785 3.20592 1.35632C3.45563 1.33592 3.75881 1.33593 4.11024 1.33594ZM3.3145 2.68522C3.13339 2.70002 3.06624 2.72514 3.03328 2.74193C2.90784 2.80585 2.80585 2.90784 2.74193 3.03328C2.72514 3.06624 2.70002 3.13339 2.68522 3.3145C2.66979 3.50339 2.66927 3.75157 2.66927 4.13594V4.5911L13.3261 3.407C13.3244 3.37454 13.3224 3.34381 13.32 3.3145C13.3052 3.13339 13.2801 3.06624 13.2633 3.03328C13.1994 2.90784 13.0974 2.80585 12.9719 2.74193C12.939 2.72514 12.8718 2.70002 12.6907 2.68522C12.5018 2.66979 12.2536 2.66927 11.8693 2.66927H4.13594C3.75157 2.66927 3.50339 2.66979 3.3145 2.68522ZM13.3359 4.74745L10.8829 5.02001L13.1268 13.1542C13.1821 13.102 13.2284 13.0405 13.2633 12.9719C13.2801 12.939 13.3052 12.8718 13.32 12.6907C13.3354 12.5018 13.3359 12.2536 13.3359 11.8693V4.74745ZM11.7938 13.3359L9.54088 5.16912L2.66927 5.93263V11.8693C2.66927 12.2536 2.66979 12.5018 2.68522 12.6907C2.70002 12.8718 2.72514 12.939 2.74193 12.9719C2.80585 13.0974 2.90784 13.1994 3.03328 13.2633C3.06624 13.2801 3.13339 13.3052 3.3145 13.32C3.50339 13.3354 3.75157 13.3359 4.13594 13.3359H11.7938ZM6.66927 8.00261C5.98777 8.00261 5.33594 8.54615 5.33594 9.39476C5.33594 9.78903 5.52212 10.1637 5.82185 10.5095C6.09497 10.8246 6.42546 11.0718 6.66927 11.23C6.91308 11.0718 7.24358 10.8246 7.5167 10.5095C7.81643 10.1637 8.00261 9.78903 8.00261 9.39476C8.00261 8.53863 7.37882 8.00261 6.66927 8.00261ZM4.00261 9.39476C4.00261 7.77279 5.28892 6.66927 6.66927 6.66927C8.09306 6.66927 9.33594 7.78031 9.33594 9.39476C9.33594 10.2265 8.94248 10.9002 8.52425 11.3828C8.10491 11.8666 7.61583 12.2116 7.30998 12.4027C6.91625 12.6488 6.42229 12.6488 6.02856 12.4027C5.72272 12.2116 5.23364 11.8666 4.8143 11.3828C4.39606 10.9002 4.00261 10.2265 4.00261 9.39476Z" fill="#92A09E"/>
</g>
</svg>
