<svg width="16" height="16" viewBox="0 0 16 16" fill="none" xmlns="http://www.w3.org/2000/svg">
    <path fill-rule="evenodd" clip-rule="evenodd"
        d="M5.28945 3.33594C5.30403 3.33594 5.31866 3.33594 5.33334 3.33594L10.7106 3.33594C11.3015 3.33591 11.8108 3.33588 12.2185 3.3907C12.6555 3.44946 13.0744 3.58195 13.4142 3.92173C13.754 4.2615 13.8865 4.6804 13.9452 5.11741C14.0001 5.52519 14 6.03441 14 6.6254V9.37981C14 9.97081 14.0001 10.48 13.9452 10.8878C13.8865 11.3248 13.754 11.7437 13.4142 12.0835C13.0744 12.4233 12.6555 12.5558 12.2185 12.6145C11.8108 12.6693 11.3015 12.6693 10.7106 12.6693H5.28945C4.69846 12.6693 4.18925 12.6693 3.78148 12.6145C3.34446 12.5558 2.92556 12.4233 2.58579 12.0835C2.24601 11.7437 2.11352 11.3248 2.05476 10.8878C1.99994 10.48 1.99997 9.97082 2 9.37983L2 6.66927C2 6.6546 2 6.63997 2 6.62539C1.99997 6.0344 1.99994 5.52519 2.05476 5.11741C2.11352 4.6804 2.24601 4.2615 2.58579 3.92173C2.92556 3.58195 3.34446 3.44946 3.78148 3.3907C4.18925 3.33588 4.69846 3.33591 5.28945 3.33594ZM3.95914 4.71214C3.66998 4.75102 3.57935 4.81379 3.5286 4.86454C3.47785 4.91529 3.41508 5.00592 3.37621 5.29508C3.33475 5.60341 3.33334 6.02189 3.33334 6.66927V9.33594C3.33334 9.98333 3.33475 10.4018 3.37621 10.7101C3.41508 10.9993 3.47785 11.0899 3.5286 11.1407C3.57935 11.1914 3.66998 11.2542 3.95914 11.2931C4.26748 11.3345 4.68595 11.3359 5.33334 11.3359H10.6667C11.3141 11.3359 11.7325 11.3345 12.0409 11.2931C12.33 11.2542 12.4207 11.1914 12.4714 11.1407C12.5222 11.0899 12.5849 10.9993 12.6238 10.7101C12.6653 10.4018 12.6667 9.98333 12.6667 9.33594V6.66927C12.6667 6.02189 12.6653 5.60341 12.6238 5.29508C12.5849 5.00592 12.5222 4.91529 12.4714 4.86454C12.4207 4.81379 12.33 4.75102 12.0409 4.71214C11.7325 4.67069 11.3141 4.66927 10.6667 4.66927H5.33334C4.68595 4.66927 4.26748 4.67069 3.95914 4.71214Z"
        fill="#92A09E" />
    <path fill-rule="evenodd" clip-rule="evenodd"
        d="M7.10558 8.96742L2.36853 6.59889L2.96481 5.40632L7.70186 7.77485C7.88955 7.86869 8.11046 7.86869 8.29815 7.77485L13.0352 5.40632L13.6315 6.59889L8.89443 8.96742C8.33138 9.24894 7.66863 9.24894 7.10558 8.96742Z"
        fill="#92A09E" />
</svg>