<svg width="16" height="16" viewBox="0 0 16 16" fill="none" xmlns="http://www.w3.org/2000/svg">
    <path fill-rule="evenodd" clip-rule="evenodd"
        d="M8.0026 1.33594C11.6845 1.33594 14.6693 4.32071 14.6693 8.0026C14.6693 11.6845 11.6845 14.6693 8.0026 14.6693C4.32071 14.6693 1.33594 11.6845 1.33594 8.0026C1.33594 4.32071 4.32071 1.33594 8.0026 1.33594ZM7.33594 2.71053C4.70506 3.0386 2.66927 5.28286 2.66927 8.0026C2.66927 10.9481 5.05709 13.3359 8.0026 13.3359C9.23508 13.3359 10.3699 12.9179 11.273 12.2158L7.56049 8.5033C7.55544 8.49825 7.55046 8.49313 7.54557 8.48795C7.41651 8.36638 7.33594 8.1939 7.33594 8.0026C7.33594 7.99589 7.33604 7.98919 7.33623 7.98252C7.33604 7.97542 7.33594 7.96831 7.33594 7.96118V2.71053ZM8.66927 2.71053V7.33594H13.2947C12.9938 4.92346 11.0817 3.01137 8.66927 2.71053ZM9.61208 8.66927L12.2158 11.273C12.7893 10.5354 13.1732 9.64308 13.2947 8.66927H9.61208Z"
        fill="#096755" />
</svg>