<svg width="21" height="20" viewBox="0 0 21 20" fill="none" xmlns="http://www.w3.org/2000/svg">
<path d="M11.3332 5.00008C11.3332 4.53984 10.9601 4.16675 10.4998 4.16675C10.0396 4.16675 9.6665 4.53984 9.6665 5.00008V9.16675H5.49984C5.0396 9.16675 4.6665 9.53984 4.6665 10.0001C4.6665 10.4603 5.0396 10.8334 5.49984 10.8334H9.6665V15.0001C9.6665 15.4603 10.0396 15.8334 10.4998 15.8334C10.9601 15.8334 11.3332 15.4603 11.3332 15.0001V10.8334H15.4998C15.9601 10.8334 16.3332 10.4603 16.3332 10.0001C16.3332 9.53984 15.9601 9.16675 15.4998 9.16675H11.3332V5.00008Z" fill="white"/>
</svg>
