<svg width="16" height="16" viewBox="0 0 16 16" fill="none" xmlns="http://www.w3.org/2000/svg">
<path d="M8 2.90909C5.18837 2.90909 2.90909 5.18837 2.90909 8C2.90909 10.8116 5.18837 13.0909 8 13.0909C10.8116 13.0909 13.0909 10.8116 13.0909 8C13.0909 5.18837 10.8116 2.90909 8 2.90909Z" fill="#0D8E75"/>
<path fill-rule="evenodd" clip-rule="evenodd" d="M0 8C0 3.58172 3.58172 0 8 0C12.4183 0 16 3.58172 16 8C16 12.4183 12.4183 16 8 16C3.58172 16 0 12.4183 0 8ZM8 15.2727C3.98338 15.2727 0.727273 12.0166 0.727273 8C0.727273 3.98338 3.98338 0.727273 8 0.727273C12.0166 0.727273 15.2727 3.98338 15.2727 8C15.2727 12.0166 12.0166 15.2727 8 15.2727Z" fill="#0D8E75"/>
</svg>
