<svg width="16" height="17" viewBox="0 0 16 17" fill="none" xmlns="http://www.w3.org/2000/svg">
<path d="M2.66669 5.33927L2.13636 5.8696L1.60603 5.33927L2.13636 4.80894L2.66669 5.33927ZM6.00002 13.4226C5.58581 13.4226 5.25002 13.0868 5.25002 12.6726C5.25002 12.2584 5.58581 11.9226 6.00002 11.9226L6.00002 13.4226ZM5.46969 9.20294L2.13636 5.8696L3.19702 4.80894L6.53035 8.14228L5.46969 9.20294ZM2.13636 4.80894L5.46969 1.47561L6.53035 2.53627L3.19702 5.8696L2.13636 4.80894ZM2.66669 4.58927L9.66668 4.58927L9.66668 6.08927L2.66669 6.08927L2.66669 4.58927ZM9.66669 13.4226L6.00002 13.4226L6.00002 11.9226L9.66669 11.9226L9.66669 13.4226ZM14.0834 9.00594C14.0834 11.4452 12.1059 13.4226 9.66669 13.4226L9.66669 11.9226C11.2775 11.9226 12.5834 10.6168 12.5834 9.00594L14.0834 9.00594ZM9.66668 4.58927C12.1059 4.58927 14.0834 6.56668 14.0834 9.00594L12.5834 9.00594C12.5834 7.39511 11.2775 6.08927 9.66668 6.08927L9.66668 4.58927Z" fill="#C8CBC8"/>
</svg>
