<svg width="21" height="20" viewBox="0 0 21 20" fill="none" xmlns="http://www.w3.org/2000/svg">
  <path d="M13.8337 16.6666L13.1266 17.3737L13.8337 18.0808L14.5408 17.3737L13.8337 16.6666ZM3.66699 12.5C3.66699 13.0522 4.11471 13.5 4.66699 13.5C5.21928 13.5 5.66699 13.0522 5.66699 12.5L3.66699 12.5ZM8.95989 13.2071L13.1266 17.3737L14.5408 15.9595L10.3741 11.7929L8.95989 13.2071ZM14.5408 17.3737L18.7074 13.2071L17.2932 11.7929L13.1266 15.9595L14.5408 17.3737ZM14.8337 16.6666L14.8337 7.91662L12.8337 7.91662L12.8337 16.6666L14.8337 16.6666ZM3.66699 7.91663L3.66699 12.5L5.66699 12.5L5.66699 7.91663L3.66699 7.91663ZM9.25033 2.33329C6.16674 2.33329 3.66699 4.83304 3.66699 7.91663L5.66699 7.91663C5.66699 5.93761 7.27131 4.33329 9.25033 4.33329L9.25033 2.33329ZM14.8337 7.91662C14.8337 4.83303 12.3339 2.33329 9.25033 2.33329L9.25033 4.33329C11.2293 4.33329 12.8337 5.9376 12.8337 7.91662L14.8337 7.91662Z" fill="#283936"/>
</svg>