<svg width="16" height="16" viewBox="0 0 16 16" fill="none" xmlns="http://www.w3.org/2000/svg">
    <path fill-rule="evenodd" clip-rule="evenodd"
        d="M4.99126 5.76812V8.20034H4.1636H3.33594L3.34367 8.74273L3.3514 9.28513L4.17133 9.29241L4.99126 9.29971V9.75242V10.2051H4.1642H3.33714V10.7544V11.3037H4.1642H4.99126V12.3198V13.3359H5.61869H6.24612V12.3201V11.3043L7.39403 11.2971L8.54193 11.2899V10.7544V10.2189L7.39403 10.2117L6.24612 10.2045V9.7517V9.29886L7.43681 9.29881C9.10411 9.2987 9.54225 9.25893 10.12 9.05526C11.2445 8.65883 11.9429 7.70273 11.9984 6.4839C12.0248 5.90418 11.9274 5.41261 11.6913 4.93421C11.5409 4.62948 11.3762 4.4115 11.1193 4.17689C10.6878 3.78273 10.2154 3.55268 9.55438 3.41465C9.29733 3.36098 9.17341 3.35752 7.13735 3.34701L4.99126 3.33594V5.76812ZM9.42604 4.52979C10.0946 4.72845 10.5081 5.13093 10.6868 5.757C10.757 6.00288 10.7558 6.62997 10.6847 6.88211C10.5421 7.38762 10.2365 7.75096 9.77472 7.96427C9.31022 8.17881 9.30041 8.17988 7.67922 8.19287L6.24612 8.20438V6.31953V4.43471L7.70774 4.4441L9.16936 4.45352L9.42604 4.52979Z"
        fill="#B81D1D" />
</svg>