<svg width="20" height="20" viewBox="0 0 20 20" fill="none" xmlns="http://www.w3.org/2000/svg">
<path fill-rule="evenodd" clip-rule="evenodd" d="M8.28297 10.5396L6.41027 9.91532L6.41026 9.91532L6.41026 9.91532C4.44925 9.26165 3.46875 8.93482 3.46875 8.33419C3.46875 7.73355 4.44926 7.40672 6.41027 6.75305L13.5046 4.38828C14.8844 3.92834 15.5743 3.69837 15.9385 4.06255C16.3027 4.42673 16.0727 5.11664 15.6128 6.49646L13.248 13.5908L13.248 13.5908L13.248 13.5908C12.5943 15.5518 12.2675 16.5323 11.6669 16.5323C11.0662 16.5323 10.7394 15.5518 10.0857 13.5908L9.46148 11.7181L13.0894 8.09011C13.4149 7.76467 13.4149 7.23703 13.0894 6.9116C12.764 6.58616 12.2364 6.58616 11.9109 6.9116L8.28297 10.5396Z" fill="#10816A"/>
</svg>
