<svg width="14" height="14" viewBox="0 0 14 14" fill="none" xmlns="http://www.w3.org/2000/svg">
<path fill-rule="evenodd" clip-rule="evenodd" d="M4.0047 1.43236C4.00242 1.4335 3.99981 1.4349 3.99685 1.43659C2.63671 2.21249 1.75 3.49798 1.75 4.95242C1.75 6.47411 2.72084 7.81118 4.18861 8.57263C4.79246 8.88586 5.27168 9.45196 5.24021 10.1351L5.23984 10.1431L5.04952 13.3206C5.02593 13.7146 4.61552 14.0185 4.13285 13.9991C3.65017 13.9799 3.27802 13.6448 3.30161 13.2508L3.49154 10.0789C3.49389 9.99872 3.43388 9.87377 3.24999 9.77834C1.29824 8.76586 0 6.98313 0 4.95242C0 3.01176 1.18589 1.2973 2.99444 0.265599C3.63513 -0.0998938 4.38613 -0.0647002 4.94637 0.228189C5.48519 0.509886 5.83333 1.01589 5.83333 1.58365V4.26848C5.83333 4.34735 5.8812 4.42112 5.96114 4.46544L6.83614 4.95053C6.93505 5.00537 7.06495 5.00537 7.16386 4.95053L8.03886 4.46544C8.1188 4.42112 8.16667 4.34736 8.16667 4.26848V1.58365C8.16667 1.01589 8.51481 0.509886 9.05363 0.228189C9.61392 -0.0647002 10.3649 -0.0998938 11.0055 0.265599C12.8141 1.2973 14 3.01176 14 4.95242C14 6.98313 12.7017 8.76586 10.75 9.77834C10.5661 9.87377 10.5061 9.99872 10.5085 10.0789L10.6983 13.2508C10.722 13.6448 10.3498 13.9799 9.8672 13.9991C9.38443 14.0185 8.97407 13.7146 8.95048 13.3206L8.75974 10.1351C8.72826 9.45196 9.20754 8.88586 9.81143 8.57263C11.2792 7.81118 12.25 6.47411 12.25 4.95242C12.25 3.49798 11.3633 2.21249 10.0031 1.43659C10.0002 1.4349 9.99763 1.4335 9.9953 1.43236C9.9673 1.44805 9.91667 1.49637 9.91667 1.58365V4.26848C9.91667 4.82067 9.5816 5.33702 9.02203 5.64725L8.14703 6.13234C7.45464 6.5162 6.54536 6.5162 5.85297 6.13234L4.97797 5.64725C4.41837 5.33702 4.08333 4.82067 4.08333 4.26848V1.58365C4.08333 1.49637 4.03275 1.44805 4.0047 1.43236ZM4.01659 1.42733C4.01718 1.4272 4.01659 1.42735 4.01659 1.42733V1.42733Z" fill="white"/>
</svg>
