<svg width="16" height="16" viewBox="0 0 16 16" fill="none" xmlns="http://www.w3.org/2000/svg">
<path fill-rule="evenodd" clip-rule="evenodd" d="M4.42084 10.9154C5.46264 10.3159 6.72044 10 8.00009 10C9.27975 10 10.5376 10.3159 11.5794 10.9154C12.6208 11.5148 13.4126 12.3802 13.7795 13.4071C13.9034 13.7538 13.7227 14.1353 13.376 14.2592C13.0293 14.3831 12.6478 14.2024 12.5239 13.8557C12.2831 13.1816 11.7358 12.5438 10.9143 12.0711C10.0932 11.5985 9.06854 11.3333 8.00009 11.3333C6.93165 11.3333 5.90697 11.5985 5.0859 12.0711C4.26444 12.5438 3.71714 13.1816 3.47629 13.8557C3.35242 14.2024 2.97092 14.3831 2.6242 14.2592C2.27747 14.1353 2.09681 13.7538 2.22069 13.4071C2.58757 12.3802 3.37942 11.5148 4.42084 10.9154Z" fill="#3E423C"/>
<path fill-rule="evenodd" clip-rule="evenodd" d="M8.00009 3.33333C6.89552 3.33333 6.00009 4.22876 6.00009 5.33333C6.00009 6.4379 6.89552 7.33333 8.00009 7.33333C9.10466 7.33333 10.0001 6.4379 10.0001 5.33333C10.0001 4.22876 9.10466 3.33333 8.00009 3.33333ZM4.66676 5.33333C4.66676 3.49238 6.15914 2 8.00009 2C9.84104 2 11.3334 3.49238 11.3334 5.33333C11.3334 7.17428 9.84104 8.66667 8.00009 8.66667C6.15914 8.66667 4.66676 7.17428 4.66676 5.33333Z" fill="#3E423C"/>
</svg>
