<svg width="24" height="25" viewBox="0 0 24 25" fill="none" xmlns="http://www.w3.org/2000/svg">
<path d="M3 10.4375C3 7.60907 3 6.19486 3.87868 5.31618C4.75736 4.4375 6.17157 4.4375 9 4.4375H15C17.8284 4.4375 19.2426 4.4375 20.1213 5.31618C21 6.19486 21 7.60907 21 10.4375V12.1375C21 12.2789 21 12.3496 20.9561 12.3936C20.9121 12.4375 20.8414 12.4375 20.7 12.4375H16.5C16.0353 12.4375 15.803 12.4375 15.6098 12.4759C14.8164 12.6337 14.1962 13.2539 14.0384 14.0473C14 14.2405 14 14.4728 14 14.9375C14 15.4022 14 15.6345 14.0384 15.8277C14.1962 16.6211 14.8164 17.2413 15.6098 17.3991C15.803 17.4375 16.0353 17.4375 16.5 17.4375H20.8571C20.936 17.4375 21 17.5015 21 17.5804C21 19.1583 19.7208 20.4375 18.1429 20.4375H9C6.17157 20.4375 4.75736 20.4375 3.87868 19.5588C3 18.6801 3 17.2659 3 14.4375V10.4375Z" fill="#C8CBC8"/>
<path d="M14 14.4375C14 13.3329 14.8954 12.4375 16 12.4375H20.85C20.9328 12.4375 21 12.5047 21 12.5875V17.2875C21 17.3703 20.9328 17.4375 20.85 17.4375H16C14.8954 17.4375 14 16.5421 14 15.4375V14.4375Z" fill="#3E423C"/>
<rect x="6" y="7.4375" width="6" height="1" rx="0.5" fill="#3E423C"/>
</svg>
