<svg width="24" height="24" viewBox="0 0 24 24" fill="none" xmlns="http://www.w3.org/2000/svg">
<path fill-rule="evenodd" clip-rule="evenodd" d="M2 21C2 20.4477 2.44772 20 3 20H21C21.5523 20 22 20.4477 22 21C22 21.5523 21.5523 22 21 22H3C2.44772 22 2 21.5523 2 21Z" fill="#283936"/>
<path fill-rule="evenodd" clip-rule="evenodd" d="M4 13C4.55228 13 5 13.4477 5 14V16C5 16.5523 4.55228 17 4 17C3.44772 17 3 16.5523 3 16V14C3 13.4477 3.44772 13 4 13Z" fill="#283936"/>
<path fill-rule="evenodd" clip-rule="evenodd" d="M12 8C12.5523 8 13 8.44772 13 9V12C13 12.5523 12.5523 13 12 13C11.4477 13 11 12.5523 11 12V9C11 8.44772 11.4477 8 12 8Z" fill="#283936"/>
<path fill-rule="evenodd" clip-rule="evenodd" d="M8 9C8.55228 9 9 9.44772 9 10V16C9 16.5523 8.55228 17 8 17C7.44772 17 7 16.5523 7 16V10C7 9.44772 7.44772 9 8 9Z" fill="#283936"/>
<path fill-rule="evenodd" clip-rule="evenodd" d="M16 10C16.5523 10 17 10.4477 17 11V13C17 13.5523 16.5523 14 16 14C15.4477 14 15 13.5523 15 13V11C15 10.4477 15.4477 10 16 10Z" fill="#283936"/>
<path fill-rule="evenodd" clip-rule="evenodd" d="M20 4C20.5523 4 21 4.44772 21 5V15C21 15.5523 20.5523 16 20 16C19.4477 16 19 15.5523 19 15V5C19 4.44772 19.4477 4 20 4Z" fill="#283936"/>
</svg>
