<svg width="400" height="400" viewBox="0 0 400 400" fill="none" xmlns="http://www.w3.org/2000/svg">
<g opacity="0.8">
<g filter="url(#filter0_i_17_165789)">
<path fill-rule="evenodd" clip-rule="evenodd" d="M253.243 236.966L289.179 258.851L278.894 274.963L228.614 243.142L253.243 236.966Z" fill="#0D8E75"/>
<path d="M207.888 227.012L215.997 214.309C216.598 213.367 217.836 213.086 218.763 213.68L253.243 236.966L228.614 243.142L208.478 229.792C207.551 229.198 207.287 227.953 207.888 227.012Z" fill="#222C20"/>
<path d="M335.357 270.595L322.778 290.3C320.53 293.822 316.61 295.612 312.765 295.273L334.688 260.929C336.968 263.545 337.343 267.485 335.357 270.595Z" fill="#5B7373"/>
<path d="M308.688 268.963L312.07 263.665C316.476 256.762 325.556 254.698 332.35 259.056L332.999 259.473C333.644 259.887 334.208 260.379 334.688 260.929L312.765 295.273C311.128 295.129 309.504 294.599 308.029 293.652L305.408 291.971L297.315 286.779L278.894 274.963L289.179 258.851L305.922 269.591C306.849 270.185 308.087 269.904 308.688 268.963Z" fill="white"/>
</g>
<path d="M254.319 235.28L219.878 212.02C219.865 212.012 219.852 212.003 219.839 211.994C217.96 210.789 215.494 211.38 214.314 213.229L206.205 225.932C205.028 227.776 205.52 230.26 207.387 231.468L227.509 244.809L227.512 244.811C227.524 244.819 227.536 244.826 227.548 244.834L277.818 276.649L277.823 276.652M254.319 235.28L280.578 276.043C279.986 276.97 278.758 277.243 277.829 276.655L277.823 276.652M254.319 235.28L290.209 257.136C290.222 257.144 290.234 257.152 290.246 257.159C290.249 257.161 290.253 257.163 290.256 257.165L290.257 257.166C290.695 257.448 291.007 257.89 291.126 258.4C291.247 258.925 291.153 259.477 290.863 259.931L254.319 235.28ZM277.823 276.652L296.239 288.465L304.332 293.656L306.953 295.338C308.707 296.463 310.642 297.095 312.592 297.267C317.16 297.67 321.803 295.544 324.461 291.38L337.04 271.675C339.507 267.81 339.052 262.897 336.194 259.616M277.823 276.652L336.194 259.616M336.194 259.616C336.194 259.615 336.193 259.614 336.192 259.613L336.194 259.616Z" stroke="#222C20" stroke-width="4" stroke-linejoin="round"/>
<line x1="281.304" y1="275.828" x2="291.332" y2="260.981" stroke="#222C20" stroke-width="4" stroke-linecap="round"/>
<line x1="312.549" y1="296.944" x2="334.73" y2="261.091" stroke="#222C20" stroke-width="4" stroke-linecap="round"/>
<path d="M220.434 121.673L220.348 121.548L220.245 121.437C215.521 116.383 210.606 111.418 204.415 108.334C198.128 105.202 190.681 104.077 181.001 106.337C171.633 108.525 163.891 112.84 157.646 116.321C157.503 116.401 157.362 116.48 157.22 116.558C154.018 118.342 151.295 119.841 148.883 120.788C146.46 121.741 144.654 122.01 143.222 121.663C141.807 121.321 140.847 120.511 140.046 119.251C139.195 117.911 138.595 116.177 137.927 114.098C137.876 113.938 137.824 113.776 137.772 113.612C137.175 111.745 136.506 109.649 135.53 107.773C134.446 105.689 132.911 103.721 130.502 102.451C128.99 101.654 127.177 101.6 125.406 101.882C123.601 102.169 121.594 102.844 119.495 103.79C115.291 105.684 110.443 108.791 105.635 112.631C96.0538 120.281 86.2455 131.149 81.8933 141.825C77.8781 151.674 75.316 163.066 76.574 175.677C77.8331 188.3 82.9059 202.011 93.957 216.506C96.7753 220.203 105.975 230.477 109.02 233.806C114.334 239.617 123.254 248.79 133.362 256.604C143.38 264.348 154.939 271.059 165.478 271.393C171.199 271.573 176.366 269.619 181.119 266.794C185.678 264.085 189.996 260.487 194.135 257.039C194.287 256.912 194.438 256.786 194.589 256.66C194.59 256.66 194.59 256.66 194.591 256.659L235.208 223.049L235.213 223.045C239.58 219.408 244.861 214.524 248.198 207.426C251.563 200.268 252.862 191.058 249.647 178.926C246.466 166.928 239.118 152.577 232.651 141.329C229.404 135.682 226.353 130.773 224.114 127.276C222.994 125.527 222.076 124.129 221.437 123.168C221.118 122.687 220.868 122.315 220.698 122.063C220.613 121.936 220.547 121.84 220.503 121.775L220.452 121.7L220.439 121.681L220.435 121.675L220.434 121.674C220.434 121.674 220.434 121.673 218.784 122.804L220.434 121.673Z" fill="#2BB196" stroke="#222C20" stroke-width="4"/>
<mask id="mask0_17_165789" style="mask-type:alpha" maskUnits="userSpaceOnUse" x="78" y="103" width="172" height="167">
<path d="M218.784 122.804C209.323 112.68 199.996 103.957 181.455 108.286C162.915 112.615 150.863 125.571 142.752 123.608C134.641 121.646 137.315 108.305 129.57 104.221C121.825 100.137 92.0878 122.114 83.7444 142.581C75.8975 161.829 73.841 186.822 95.5464 215.292C98.2991 218.903 107.431 229.105 110.495 232.455C121.055 244.003 145.825 268.769 165.541 269.393C175.957 269.722 184.689 262.304 193.312 255.122L233.935 221.507C242.558 214.325 253.931 202.891 247.714 179.439C241.498 155.987 218.784 122.804 218.784 122.804Z" fill="#EEEFFC"/>
</mask>
<g mask="url(#mask0_17_165789)">
<path d="M219.831 124.454C210.822 114.804 201.142 109.523 183.594 113.551C166.045 117.58 152.009 130.976 140.577 128.156C129.145 125.336 133.819 114.75 126.463 110.84C119.106 106.93 90.0822 129.087 82.2655 148.476C74.914 166.712 77.6759 191.57 98.3656 218.686C100.99 222.125 109.687 231.847 112.604 235.041C122.66 246.047 146.237 269.66 164.922 270.338C174.792 270.696 183.033 263.693 191.173 256.914L229.517 225.186C237.657 218.407 253.48 200.619 247.488 178.333C241.496 156.048 219.831 124.454 219.831 124.454Z" fill="#A1E2D5"/>
<path d="M237.667 169.907C241.238 182.051 243.507 193.236 239.097 205.261C234.687 217.285 219.194 228.664 209.553 236.396C172.853 265.827 158.195 263.686 137.149 248.451C116.103 233.216 92.2283 184.109 85.1878 175.923C85.1878 175.923 77.4864 163.509 99.6308 158.407C121.775 153.305 128.751 151.363 151.219 144.675C173.688 137.987 188.71 131.45 207.509 132.754C226.308 134.059 234.096 157.763 237.667 169.907Z" fill="#096755"/>
<g filter="url(#filter1_i_17_165789)">
<path d="M239.155 167.625C244.746 178.688 246.328 193.531 242.444 201.827C238.561 210.122 219.01 229.296 208.539 237.625C177.788 262.085 168.159 273.763 136.695 249.626C105.232 225.49 75.995 183.315 85.4457 166.844C85.4457 166.844 93.317 175.141 125.061 169.825C156.804 164.509 189.48 142.41 198.834 136.701C208.188 130.992 218.774 133.436 224.739 141.283C230.704 149.131 233.564 156.562 239.155 167.625Z" fill="#0D8E75"/>
</g>
<path d="M177.727 202.989C184.99 197.113 188.472 194.623 196.928 193.127" stroke="#222C20" stroke-width="4" stroke-linecap="round"/>
<ellipse cx="5.84142" cy="6.94015" rx="5.84142" ry="6.94015" transform="matrix(0.885336 -0.464952 0.464218 0.885721 151.036 183.199)" fill="#222C20"/>
<ellipse cx="5.71747" cy="6.48328" rx="5.71747" ry="6.48328" transform="matrix(0.866438 -0.499285 0.498567 0.866851 177.376 162.878)" fill="#222C20"/>
<path d="M129.253 110.533C128.649 114.769 129.234 125.151 136.396 132.791" stroke="#222C20" stroke-width="4" stroke-linecap="round" stroke-linejoin="round"/>
</g>
<g filter="url(#filter2_i_17_165789)">
<path fill-rule="evenodd" clip-rule="evenodd" d="M188.046 280.175V319.652H207.047V255.325L188.046 280.175Z" fill="#0D8E75"/>
<path d="M205.037 245.901H190.056C188.946 245.901 188.046 246.785 188.046 247.875V280.175L207.047 255.325V247.875C207.047 246.785 206.147 245.901 205.037 245.901Z" fill="#222C20"/>
<path d="M173.087 378.568H196.326C200.748 378.568 204.545 375.94 206.184 372.188H165.195C165.914 375.823 169.174 378.568 173.087 378.568Z" fill="#5B7373"/>
<path d="M186.035 355.437H179.788C171.647 355.437 165.047 361.916 165.047 369.909V370.674C165.047 371.192 165.098 371.698 165.195 372.188H206.184C206.739 370.916 207.047 369.514 207.047 368.043V364.959V355.437V319.652H188.046V353.463C188.046 354.553 187.146 355.437 186.035 355.437Z" fill="white"/>
</g>
<path d="M186.046 247.875V280.175V319.652V353.436C186.044 353.437 186.04 353.437 186.035 353.437H179.788C170.577 353.437 163.047 360.777 163.047 369.909V370.674C163.047 371.323 163.111 371.959 163.233 372.576C164.138 377.155 168.226 380.568 173.087 380.568H196.326C201.555 380.568 206.064 377.458 208.016 372.988C208.68 371.469 209.047 369.796 209.047 368.043V364.959V355.437V319.652V255.325V247.875C209.047 245.646 207.217 243.901 205.037 243.901H190.056C187.876 243.901 186.046 245.646 186.046 247.875Z" stroke="#222C20" stroke-width="4" stroke-linejoin="round"/>
<path d="M198.336 223.252C197.562 204.819 199.729 164.715 217.548 162.856C235.367 160.997 294.75 154.942 327.542 152.618C330.326 160.828 335.06 186.448 331.719 223.252L236.911 224.243C226.638 238.701 201.774 267.12 184.499 265.135C167.223 263.149 186.525 236.386 198.336 223.252Z" fill="#E6A320"/>
<path d="M163.034 20.1648C171.363 18.3242 187.484 16.7668 185.331 25.2618C183.178 33.7567 169.569 25.4034 163.034 20.1648Z" fill="#052C23"/>
<path d="M163.034 20.1648C157.268 27.9518 147.964 43.9507 156.883 45.6497C165.802 47.3487 164.7 29.3677 163.034 20.1648Z" fill="#052C23"/>
<path d="M220.855 187.416C200.608 186 182.737 120.074 204.335 54.9021C209.684 38.7617 226.113 42.3526 226.113 54.9021C226.113 67.4516 184.903 102.991 182.212 45.6496M163.034 20.1648C157.268 27.9518 147.964 43.9507 156.883 45.6497C165.802 47.3487 164.7 29.3677 163.034 20.1648ZM163.034 20.1648C171.363 18.3242 187.484 16.7668 185.331 25.2618C183.178 33.7567 169.569 25.4034 163.034 20.1648Z" stroke="#222C20" stroke-width="4" stroke-linecap="round" stroke-linejoin="round"/>
<path d="M202.614 220.182H229.012" stroke="#222C20" stroke-width="4" stroke-linecap="round" stroke-linejoin="round"/>
<path d="M215.813 167.867C222.46 163.634 235.662 168.411 235.3 221.386" stroke="#222C20" stroke-width="4" stroke-linecap="round" stroke-linejoin="round"/>
<ellipse cx="257.504" cy="181.457" rx="8.24933" ry="8.25627" fill="#222C20"/>
<path d="M274.392 139.901C263.823 139.901 237.047 143.102 237.047 143.102L244.445 158.394L296.99 153.234C296.99 173.282 313.86 171.619 317.496 163.763C321.133 155.907 321.939 147.112 316.317 143.102C311.828 139.901 299.966 139.901 274.814 139.901L274.392 139.901Z" fill="#0D8E75"/>
<path d="M292.007 146.658C291.977 147.261 289.541 151.993 296.99 153.234M296.99 153.234L244.445 158.394L237.047 143.102C237.047 143.102 263.823 139.901 274.392 139.901C299.833 139.901 311.803 139.883 316.317 143.102C321.939 147.112 321.133 155.907 317.496 163.763C313.86 171.619 296.99 173.282 296.99 153.234Z" stroke="#222C20" stroke-width="4" stroke-linecap="round" stroke-linejoin="round"/>
<g filter="url(#filter3_i_17_165789)">
<path d="M151.046 301.568C129.637 300.27 110.798 266.469 114.59 231.436C114.972 227.913 117.149 224.638 120.665 224.216C130.162 223.079 142.981 229.999 141.046 249.904C141.046 249.904 145.128 264.117 156.124 274.316C161.245 267.487 168.074 249.904 168.074 249.904C170.806 236.073 193.342 234.999 190.61 255.195C187.878 275.39 173.582 302.933 151.046 301.568Z" fill="#0D8E75"/>
</g>
<path d="M149.225 280.849C153.359 278.186 156.124 274.316 156.124 274.316M156.124 274.316C161.245 267.487 168.074 249.904 168.074 249.904C170.806 236.073 193.342 234.999 190.61 255.195C187.878 275.39 173.582 302.933 151.046 301.568C129.637 300.27 110.798 266.469 114.59 231.436C114.972 227.913 117.149 224.638 120.665 224.216C130.162 223.079 142.981 229.999 141.046 249.904C141.046 249.904 145.128 264.117 156.124 274.316Z" stroke="#222C20" stroke-width="4" stroke-linecap="round" stroke-linejoin="round"/>
<path d="M290.104 154.497L241.713 160.206L242.775 168.261L299.046 169.901C296.898 165.929 296.046 162.096 295.633 158.961C295.269 156.191 292.879 154.17 290.104 154.497Z" fill="#E6A320"/>
<path d="M261.718 225.43H243.047L246.235 381.235H261.718V225.43Z" fill="#222C20"/>
<path d="M279.047 104.568H253.09L253.824 119.075H279.047V104.568Z" fill="#222C20"/>
<path d="M257.012 179.175L253.824 119.075M253.824 119.075L253.09 104.568H279.047V119.075H253.824ZM243.047 225.43H261.718V381.235H246.235L243.047 225.43Z" stroke="#222C20" stroke-width="4" stroke-linecap="round" stroke-linejoin="round"/>
<line x1="52.666" y1="382" x2="347.333" y2="382" stroke="#222C20" stroke-width="4" stroke-linecap="round"/>
<path d="M191.8 354.863C197.399 355.958 201.116 358.767 201.116 358.767" stroke="#222C20" stroke-width="4" stroke-linecap="round"/>
<line x1="188.713" y1="319.184" x2="206.629" y2="319.184" stroke="#222C20" stroke-width="4" stroke-linecap="round"/>
<line x1="163.973" y1="372.224" x2="208.304" y2="372.224" stroke="#222C20" stroke-width="4" stroke-linecap="round"/>
</g>
<defs>
<filter id="filter0_i_17_165789" x="200.571" y="206.362" width="140.07" height="92.9551" filterUnits="userSpaceOnUse" color-interpolation-filters="sRGB">
<feFlood flood-opacity="0" result="BackgroundImageFix"/>
<feBlend mode="normal" in="SourceGraphic" in2="BackgroundImageFix" result="shape"/>
<feColorMatrix in="SourceAlpha" type="matrix" values="0 0 0 0 0 0 0 0 0 0 0 0 0 0 0 0 0 0 127 0" result="hardAlpha"/>
<feOffset dx="-5" dy="-17"/>
<feGaussianBlur stdDeviation="1.5"/>
<feComposite in2="hardAlpha" operator="arithmetic" k2="-1" k3="1"/>
<feColorMatrix type="matrix" values="0 0 0 0 0 0 0 0 0 0 0 0 0 0 0 0 0 0 0.3 0"/>
<feBlend mode="darken" in2="shape" result="effect1_innerShadow_17_165789"/>
</filter>
<filter id="filter1_i_17_165789" x="83.6416" y="131.572" width="161.942" height="131.32" filterUnits="userSpaceOnUse" color-interpolation-filters="sRGB">
<feFlood flood-opacity="0" result="BackgroundImageFix"/>
<feBlend mode="normal" in="SourceGraphic" in2="BackgroundImageFix" result="shape"/>
<feColorMatrix in="SourceAlpha" type="matrix" values="0 0 0 0 0 0 0 0 0 0 0 0 0 0 0 0 0 0 127 0" result="hardAlpha"/>
<feOffset dx="1" dy="-12"/>
<feGaussianBlur stdDeviation="1"/>
<feComposite in2="hardAlpha" operator="arithmetic" k2="-1" k3="1"/>
<feColorMatrix type="matrix" values="0 0 0 0 0 0 0 0 0 0 0 0 0 0 0 0 0 0 0.3 0"/>
<feBlend mode="normal" in2="shape" result="effect1_innerShadow_17_165789"/>
</filter>
<filter id="filter2_i_17_165789" x="158.047" y="238.901" width="53" height="143.667" filterUnits="userSpaceOnUse" color-interpolation-filters="sRGB">
<feFlood flood-opacity="0" result="BackgroundImageFix"/>
<feBlend mode="normal" in="SourceGraphic" in2="BackgroundImageFix" result="shape"/>
<feColorMatrix in="SourceAlpha" type="matrix" values="0 0 0 0 0 0 0 0 0 0 0 0 0 0 0 0 0 0 127 0" result="hardAlpha"/>
<feOffset dx="-11" dy="-17"/>
<feGaussianBlur stdDeviation="1.5"/>
<feComposite in2="hardAlpha" operator="arithmetic" k2="-1" k3="1"/>
<feColorMatrix type="matrix" values="0 0 0 0 0 0 0 0 0 0 0 0 0 0 0 0 0 0 0.3 0"/>
<feBlend mode="darken" in2="shape" result="effect1_innerShadow_17_165789"/>
</filter>
<filter id="filter3_i_17_165789" x="109.102" y="219.098" width="83.7373" height="84.5195" filterUnits="userSpaceOnUse" color-interpolation-filters="sRGB">
<feFlood flood-opacity="0" result="BackgroundImageFix"/>
<feBlend mode="normal" in="SourceGraphic" in2="BackgroundImageFix" result="shape"/>
<feColorMatrix in="SourceAlpha" type="matrix" values="0 0 0 0 0 0 0 0 0 0 0 0 0 0 0 0 0 0 127 0" result="hardAlpha"/>
<feOffset dx="-5" dy="-17"/>
<feGaussianBlur stdDeviation="1.5"/>
<feComposite in2="hardAlpha" operator="arithmetic" k2="-1" k3="1"/>
<feColorMatrix type="matrix" values="0 0 0 0 0 0 0 0 0 0 0 0 0 0 0 0 0 0 0.3 0"/>
<feBlend mode="normal" in2="shape" result="effect1_innerShadow_17_165789"/>
</filter>
</defs>
</svg>
