<svg width="400" height="400" viewBox="0 0 400 400" fill="none" xmlns="http://www.w3.org/2000/svg">
<g opacity="0.8">
<path d="M157.91 222.798L165.21 228.802L176.6 218.253" stroke="#052C23" stroke-width="4" stroke-linecap="round" stroke-linejoin="round"/>
<g filter="url(#filter0_i_186_84442)">
<path fill-rule="evenodd" clip-rule="evenodd" d="M161.294 261.567V324.516H182.584V266.754L161.294 261.567Z" fill="#0D8E75"/>
<path d="M180.331 245.835H163.546C162.302 245.835 161.294 246.818 161.294 248.031V261.567L182.584 266.754V248.031C182.584 246.818 181.575 245.835 180.331 245.835Z" fill="#222C20"/>
<path d="M144.534 390.076H170.572C175.526 390.076 179.78 387.151 181.616 382.976H135.691C136.497 387.021 140.15 390.076 144.534 390.076Z" fill="#5B7373"/>
<path d="M159.042 364.336H152.042C142.92 364.336 135.525 371.547 135.525 380.441V381.292C135.525 381.868 135.582 382.431 135.691 382.976H181.616C182.239 381.56 182.584 380.001 182.584 378.364V374.932V364.336V324.516H161.294V362.14C161.294 363.353 160.286 364.336 159.042 364.336Z" fill="white"/>
</g>
<path d="M184.584 364.336V324.516V266.754V248.031C184.584 245.666 182.632 243.835 180.331 243.835H163.546C161.246 243.835 159.294 245.666 159.294 248.031V261.567V324.516V362.14C159.294 362.178 159.281 362.219 159.238 362.261C159.194 362.304 159.128 362.336 159.042 362.336H152.042C141.863 362.336 133.525 370.395 133.525 380.441V381.292C133.525 382 133.595 382.694 133.729 383.367C134.725 388.364 139.212 392.076 144.534 392.076H170.572C176.325 392.076 181.294 388.677 183.447 383.781C184.179 382.118 184.584 380.285 184.584 378.364V374.932V364.336Z" stroke="#222C20" stroke-width="4" stroke-linejoin="round"/>
<g filter="url(#filter1_i_186_84442)">
<path fill-rule="evenodd" clip-rule="evenodd" d="M222.209 268.749V340.221H201.257V265.557L222.209 268.749Z" fill="#0D8E75"/>
<path d="M203.474 245.835H219.992C221.216 245.835 222.209 246.818 222.209 248.031V268.749L201.257 265.557V248.031C201.257 246.818 202.249 245.835 203.474 245.835Z" fill="#222C20"/>
<path d="M238.703 390.076H213.078C208.499 390.076 204.528 387.496 202.565 383.723H247.224C246.16 387.392 242.748 390.076 238.703 390.076Z" fill="#5B7373"/>
<path d="M224.425 364.336H231.314C240.291 364.336 247.568 371.547 247.568 380.441V381.292C247.568 382.135 247.448 382.951 247.224 383.723H202.565C201.729 382.117 201.257 380.295 201.257 378.364V374.932V364.336V340.221H222.209V362.14C222.209 363.353 223.201 364.336 224.425 364.336Z" fill="white"/>
</g>
<path d="M224.209 248.031V268.749V340.221V362.14C224.209 362.231 224.288 362.336 224.425 362.336H231.314C241.378 362.336 249.568 370.425 249.568 380.441V381.292C249.568 382.326 249.421 383.329 249.145 384.281C247.836 388.791 243.65 392.076 238.703 392.076H213.078C207.731 392.076 203.088 389.061 200.791 384.646C199.81 382.763 199.257 380.624 199.257 378.364V374.932V364.336V340.221V265.557V248.031C199.257 245.696 201.162 243.835 203.474 243.835H219.992C222.304 243.835 224.209 245.696 224.209 248.031Z" stroke="#222C20" stroke-width="4" stroke-linejoin="round"/>
<path d="M165.521 364.02C171.894 364.04 176.562 366.337 176.562 366.337" stroke="#222C20" stroke-width="4" stroke-linecap="round"/>
<path d="M217.655 364.02C211.282 364.04 206.614 366.337 206.614 366.337" stroke="#222C20" stroke-width="4" stroke-linecap="round"/>
<line x1="163.013" y1="325.124" x2="180.583" y2="325.124" stroke="#222C20" stroke-width="4" stroke-linecap="square"/>
<line x1="203.257" y1="340.433" x2="220.827" y2="340.433" stroke="#222C20" stroke-width="4" stroke-linecap="square"/>
<line x1="135.424" y1="382.702" x2="180.584" y2="382.702" stroke="#222C20" stroke-width="4" stroke-linecap="square"/>
<line x1="203.257" y1="382.702" x2="248.333" y2="382.702" stroke="#222C20" stroke-width="4" stroke-linecap="square"/>
<line x1="100.084" y1="395.55" x2="280.87" y2="395.55" stroke="#222C20" stroke-width="4" stroke-linecap="round"/>
<path d="M269.71 178.074L269.711 178.065C270.025 169.386 269.633 161.063 267.01 153.163C264.373 145.217 259.521 137.819 251.117 130.911C242.459 123.797 231.017 122.127 221.336 121.443C219.176 121.29 217.148 121.188 215.243 121.092C212.738 120.966 210.443 120.851 208.332 120.645C206.52 120.468 204.988 120.233 203.749 119.898C202.494 119.558 201.686 119.153 201.199 118.732C200.062 117.747 199.717 116.733 199.729 115.542C199.743 114.193 200.219 112.621 200.929 110.646C201.035 110.353 201.145 110.051 201.258 109.742C201.865 108.084 202.551 106.211 202.948 104.321C203.431 102.027 203.541 99.5104 202.579 96.957C201.484 94.0517 198.92 92.4055 195.87 91.6305C192.841 90.8611 189.065 90.863 184.913 91.4181C176.582 92.5319 166.161 95.9554 155.855 100.904C136.299 110.292 113.588 129.153 110.725 165.314C110.355 169.988 110.341 174.65 110.394 179.258C110.486 187.223 111.031 200.992 113.409 214.536C114.598 221.309 116.254 228.077 118.566 234.059C120.871 240.021 123.878 245.336 127.845 249.071C135.927 256.679 146.734 261.51 158.739 261.946L215.045 263.987C227.049 264.423 238.177 260.387 246.788 253.384C252.14 249.032 256.161 242.021 259.217 234.224C262.289 226.385 264.471 217.524 266.018 209.234C267.567 200.935 268.489 193.153 269.024 187.45C269.292 184.596 269.463 182.259 269.568 180.632C269.62 179.819 269.655 179.182 269.678 178.748C269.684 178.64 269.688 178.544 269.692 178.461C269.697 178.378 269.7 178.308 269.703 178.251L269.708 178.121L269.71 178.087L269.71 178.078L269.71 178.075C269.71 178.075 269.71 178.074 267.712 177.992L269.71 178.074Z" fill="#2BB196" stroke="#222C20" stroke-width="4"/>
<mask id="mask0_186_84442" style="mask-type:alpha" maskUnits="userSpaceOnUse" x="112" y="93" width="156" height="170">
<path d="M267.712 177.992C268.334 160.807 266.111 145.824 249.847 132.456C233.582 119.089 206.359 125.845 199.89 120.244C193.421 114.642 203.839 105.973 200.707 97.6621C197.575 89.3513 177.091 92.927 156.72 102.707C137.562 111.904 115.507 130.255 112.719 165.472C112.356 170.052 112.341 174.64 112.394 179.235C112.577 195.071 114.563 233.82 129.216 247.615C136.957 254.902 147.307 259.53 158.811 259.947L215.117 261.989C226.621 262.406 237.278 258.54 245.526 251.833C265.347 235.712 267.712 177.992 267.712 177.992Z" fill="#AFB6EF"/>
</mask>
<g mask="url(#mask0_186_84442)">
<path d="M270.073 182.38C270.686 165.441 269.446 146.932 253.802 133.769C238.159 120.607 205.754 125.413 195.674 125.67C185.594 125.927 192.509 113.009 189.501 104.82C186.494 96.6305 164.02 102.001 146.325 110.713C128.63 119.424 112.609 138.194 109.896 172.909C109.543 177.424 109.525 181.947 109.572 186.476C109.734 202.085 111.614 240.278 125.706 253.863C133.15 261.04 143.108 265.592 154.18 265.994L208.372 267.959C233.977 268.888 256.78 248.671 263.56 223.964C269.088 203.817 270.073 182.38 270.073 182.38Z" fill="#A1E2D5"/>
<path d="M166.63 144.954C181.93 144.038 207.738 129.924 232.944 135.398C215.823 151.506 165.227 183.88 144.052 182.511C122.877 181.142 118.113 173.834 119.694 160.332C121.274 146.83 126.334 142.198 138.607 143.349C150.879 144.5 151.331 145.869 166.63 144.954Z" fill="#096755"/>
<g filter="url(#filter2_i_186_84442)">
<path d="M261.914 177.657C261.965 160.856 259.748 154.743 253.055 147.113C246.362 139.484 234.73 132.135 215.328 134.358C195.925 136.581 185.142 142.798 177.807 147.357C170.471 151.915 154.259 163.461 137.186 159.413C120.114 155.364 126.021 144.591 123.325 148.244C117.595 156.005 115.868 170.9 116.568 186.356C117.269 201.811 118.518 233.145 133.469 246.095C141.367 252.936 151.541 255.416 162.938 255.416L217.138 256.799C228.535 256.799 235.996 253.657 243.937 246.816C263.019 230.374 261.914 177.657 261.914 177.657Z" fill="#0D8E75"/>
</g>
</g>
<ellipse cx="5.09627" cy="5.02715" rx="5.09627" ry="5.02715" transform="matrix(0.999343 0.0362395 -0.0361715 0.999346 166.414 173.176)" fill="#222C20"/>
<path d="M243.913 179.704C243.913 194.668 231.933 206.758 217.205 206.758C202.477 206.758 190.497 194.668 190.497 179.704C190.497 164.74 202.477 152.65 217.205 152.65C231.933 152.65 243.913 164.74 243.913 179.704Z" stroke="#222C20" stroke-width="4"/>
<ellipse cx="215.225" cy="178.054" rx="12.2091" ry="12.2157" fill="#222C20"/>
<g filter="url(#filter3_i_186_84442)">
<path d="M298.41 194.725L268.588 198.263L266.348 219.599C266.348 219.599 259.628 221.107 256.641 225.629C253.654 230.152 255.521 234.674 258.881 238.443C256.342 253.895 280.908 265.201 294.068 243.901C303.041 238.327 318.985 226.222 323.403 221.483C328.924 215.561 329.439 204.263 323.403 198.263C317.366 192.262 298.41 194.725 298.41 194.725Z" fill="#0D8E75"/>
</g>
<path d="M260.205 231.839C259.511 234.766 259.369 235.473 258.881 238.443M298.41 204.263L273.441 221.483C271.575 218.845 266.348 219.599 266.348 219.599M266.348 219.599C266.348 219.599 259.628 221.107 256.641 225.629C253.654 230.152 255.521 234.674 258.881 238.443M266.348 219.599L268.588 198.263L298.41 194.725C298.41 194.725 317.366 192.262 323.403 198.263C329.439 204.263 328.924 215.561 323.403 221.483C318.985 226.222 303.041 238.327 294.068 243.901C280.908 265.201 256.342 253.895 258.881 238.443M267.838 235.622C267.565 233.115 268.098 229.01 271.198 228.084" stroke="#222C20" stroke-width="4" stroke-linecap="round" stroke-linejoin="round"/>
<path d="M237.51 198.713L266.989 228.666" stroke="#222C20" stroke-width="4" stroke-linecap="round"/>
<path d="M154.797 282.645C152.98 236.635 144.682 219.371 139.332 216.332C141.322 215.35 143.359 214.464 145.434 213.667C144.977 210.572 140.829 204.807 138.812 202.311C141.503 201.462 144.154 200.684 146.764 199.971L141.5 193.872C165.18 189.221 215.161 182.085 225.639 190.75L223.406 196.434C229.925 197.983 234.877 199.882 238.065 201.606L229.018 214.455C232.704 215.533 235.957 216.633 238.66 217.669C218.277 231.955 214.486 265.727 215.139 280.828L154.797 282.645Z" fill="#E6A320"/>
<g filter="url(#filter4_i_186_84442)">
<path d="M109.067 297.362C86.9733 286.943 103.947 220.948 110.558 210.085C111.424 221.09 115.405 244.172 128.082 253.911C132.929 247.917 145.233 231.811 145.233 231.811L147.47 240.426C152.56 235.101 160.793 236.732 162.384 243.422C164.612 252.794 156.463 265.865 150.08 274.138C143.697 282.411 127.336 305.977 109.067 297.362Z" fill="#0D8E75"/>
</g>
<path d="M112.795 270.767C123.608 259.155 128.082 253.911 128.082 253.911M128.082 253.911C132.929 247.917 145.233 231.811 145.233 231.811L147.47 240.426C152.56 235.101 160.793 236.732 162.384 243.422C164.612 252.794 156.463 265.865 150.08 274.138C143.697 282.411 127.336 305.977 109.067 297.362C86.9733 286.943 103.947 220.948 110.558 210.085C111.424 221.09 115.405 244.172 128.082 253.911Z" stroke="#222C20" stroke-width="4" stroke-linecap="round" stroke-linejoin="round"/>
<ellipse cx="207.306" cy="172.111" rx="6.26952" ry="6.27294" fill="white"/>
<path d="M151.486 210.19C166.247 205.429 208.187 203.462 223.366 210.894M153.268 198.406C166.69 195.243 198.046 190.349 216.093 196.075" stroke="#222C20" stroke-width="4" stroke-linecap="round" stroke-linejoin="round"/>
<path fill-rule="evenodd" clip-rule="evenodd" d="M96.241 12.9224C83.5881 18.1346 73.3622 29.8743 76.6216 47.5952C79.0835 60.8054 79.203 60.8762 91.0199 55.168C100.984 50.339 100.559 51.056 98.5171 43.0614C96.7791 36.2564 97.697 31.9155 102.201 27.9251C112.215 19.129 124.429 32.4312 125.669 37.2851C127.03 42.6149 123.942 46.3954 112.844 52.9337C103.776 58.2941 101.67 63.1416 103.878 73.3749C104.549 76.3972 104.823 78.8617 104.588 79.3275C103.575 81.5128 109.137 81.865 114.485 79.9907C130.517 74.3201 130.316 74.5236 127.832 68.5683C126.277 64.8597 126.511 64.1914 130.107 62.0045C138.795 56.7415 142.784 49.9424 143.207 39.6954C144.403 13.2312 123.947 1.58005 96.241 12.9224ZM112.332 11.8498C123.435 10.684 136.959 21.9781 137.864 33.2546C138.704 43.6857 134.849 51.2108 125.086 58.0162C120.353 61.3049 119.32 64.2051 120.755 70.0229L121.582 73.2588C115.925 75.3134 115.545 75.4107 111.886 76.9546C108.966 62.7462 107.65 61.5617 123.454 51.0319C133.374 44.4401 133.43 34.743 123.646 25.9906C107.952 11.956 81.5697 30.6653 92.0324 48.4201C92.5011 49.2635 92.8505 50.036 92.7797 50.1555C92.6734 50.3347 86.8428 53.2956 86.3672 53.4173C86.3196 53.4294 84.4918 47.6613 83.696 45.7356C76.7876 29.2012 92.3176 14.0269 112.332 11.8498ZM112.113 86.3763C104.549 92.4673 106.89 103.022 115.979 103.892C134.109 105.643 146.623 91.9501 134.518 83.6386C130.933 81.108 116.393 82.8993 112.113 86.3763ZM125.018 86.1183C128.969 85.7165 133.076 87.9109 133.805 90.7661C135.155 96.0483 122.886 101.973 117.119 98.8346C114.289 97.2769 110.988 87.5257 125.018 86.1183Z" fill="#222C20"/>
</g>
<defs>
<filter id="filter0_i_186_84442" x="128.525" y="241.835" width="58.0586" height="155.241" filterUnits="userSpaceOnUse" color-interpolation-filters="sRGB">
<feFlood flood-opacity="0" result="BackgroundImageFix"/>
<feBlend mode="normal" in="SourceGraphic" in2="BackgroundImageFix" result="shape"/>
<feColorMatrix in="SourceAlpha" type="matrix" values="0 0 0 0 0 0 0 0 0 0 0 0 0 0 0 0 0 0 127 0" result="hardAlpha"/>
<feOffset dx="-13" dy="10"/>
<feGaussianBlur stdDeviation="1.5"/>
<feComposite in2="hardAlpha" operator="arithmetic" k2="-1" k3="1"/>
<feColorMatrix type="matrix" values="0 0 0 0 0 0 0 0 0 0 0 0 0 0 0 0 0 0 0.34 0"/>
<feBlend mode="darken" in2="shape" result="effect1_innerShadow_186_84442"/>
</filter>
<filter id="filter1_i_186_84442" x="194.257" y="241.835" width="57.3115" height="155.241" filterUnits="userSpaceOnUse" color-interpolation-filters="sRGB">
<feFlood flood-opacity="0" result="BackgroundImageFix"/>
<feBlend mode="normal" in="SourceGraphic" in2="BackgroundImageFix" result="shape"/>
<feColorMatrix in="SourceAlpha" type="matrix" values="0 0 0 0 0 0 0 0 0 0 0 0 0 0 0 0 0 0 127 0" result="hardAlpha"/>
<feOffset dx="-13" dy="10"/>
<feGaussianBlur stdDeviation="1.5"/>
<feComposite in2="hardAlpha" operator="arithmetic" k2="-1" k3="1"/>
<feColorMatrix type="matrix" values="0 0 0 0 0.141667 0 0 0 0 0.170204 0 0 0 0 0.425 0 0 0 0.34 0"/>
<feBlend mode="darken" in2="shape" result="effect1_innerShadow_186_84442"/>
</filter>
<filter id="filter2_i_186_84442" x="113.421" y="130.955" width="148.505" height="125.844" filterUnits="userSpaceOnUse" color-interpolation-filters="sRGB">
<feFlood flood-opacity="0" result="BackgroundImageFix"/>
<feBlend mode="normal" in="SourceGraphic" in2="BackgroundImageFix" result="shape"/>
<feColorMatrix in="SourceAlpha" type="matrix" values="0 0 0 0 0 0 0 0 0 0 0 0 0 0 0 0 0 0 127 0" result="hardAlpha"/>
<feOffset dx="-5" dy="-17"/>
<feGaussianBlur stdDeviation="1.5"/>
<feComposite in2="hardAlpha" operator="arithmetic" k2="-1" k3="1"/>
<feColorMatrix type="matrix" values="0 0 0 0 0 0 0 0 0 0 0 0 0 0 0 0 0 0 0.3 0"/>
<feBlend mode="normal" in2="shape" result="effect1_innerShadow_186_84442"/>
</filter>
<filter id="filter3_i_186_84442" x="250.145" y="189.225" width="79.5947" height="68.4102" filterUnits="userSpaceOnUse" color-interpolation-filters="sRGB">
<feFlood flood-opacity="0" result="BackgroundImageFix"/>
<feBlend mode="normal" in="SourceGraphic" in2="BackgroundImageFix" result="shape"/>
<feColorMatrix in="SourceAlpha" type="matrix" values="0 0 0 0 0 0 0 0 0 0 0 0 0 0 0 0 0 0 127 0" result="hardAlpha"/>
<feOffset dx="-5" dy="-17"/>
<feGaussianBlur stdDeviation="1.5"/>
<feComposite in2="hardAlpha" operator="arithmetic" k2="-1" k3="1"/>
<feColorMatrix type="matrix" values="0 0 0 0 0 0 0 0 0 0 0 0 0 0 0 0 0 0 0.3 0"/>
<feBlend mode="normal" in2="shape" result="effect1_innerShadow_186_84442"/>
</filter>
<filter id="filter4_i_186_84442" x="93.084" y="205.085" width="71.6748" height="96.1465" filterUnits="userSpaceOnUse" color-interpolation-filters="sRGB">
<feFlood flood-opacity="0" result="BackgroundImageFix"/>
<feBlend mode="normal" in="SourceGraphic" in2="BackgroundImageFix" result="shape"/>
<feColorMatrix in="SourceAlpha" type="matrix" values="0 0 0 0 0 0 0 0 0 0 0 0 0 0 0 0 0 0 127 0" result="hardAlpha"/>
<feOffset dx="-5" dy="-17"/>
<feGaussianBlur stdDeviation="1.5"/>
<feComposite in2="hardAlpha" operator="arithmetic" k2="-1" k3="1"/>
<feColorMatrix type="matrix" values="0 0 0 0 0 0 0 0 0 0 0 0 0 0 0 0 0 0 0.3 0"/>
<feBlend mode="normal" in2="shape" result="effect1_innerShadow_186_84442"/>
</filter>
</defs>
</svg>
