<svg width="146" height="145" viewBox="0 0 146 145" fill="none" xmlns="http://www.w3.org/2000/svg">
<g opacity="0.8">
<g filter="url(#filter0_i_20_98656)">
<path fill-rule="evenodd" clip-rule="evenodd" d="M63.0442 85.2113V108.03H70.7617V87.0918L63.0442 85.2113Z" fill="#0D8E75"/>
<path d="M69.9453 79.5085H63.8606C63.4097 79.5085 63.0442 79.865 63.0442 80.3046V85.2113L70.7617 87.0918V80.3046C70.7617 79.865 70.3962 79.5085 69.9453 79.5085Z" fill="#222C20"/>
<path d="M56.9688 131.796H66.4074C68.2034 131.796 69.7454 130.736 70.4111 129.222H53.7631C54.0552 130.689 55.3794 131.796 56.9688 131.796Z" fill="#5B7373"/>
<path d="M62.2278 122.465H59.6903C56.3837 122.465 53.7031 125.079 53.7031 128.303V128.612C53.7031 128.82 53.7237 129.025 53.7631 129.222H70.4111C70.6367 128.709 70.7617 128.144 70.7617 127.55V126.306V122.465V108.03H63.0442V121.669C63.0442 122.109 62.6787 122.465 62.2278 122.465Z" fill="white"/>
</g>
<path d="M52.7031 128.612C52.7031 128.886 52.7303 129.156 52.7824 129.417C53.1692 131.36 54.9106 132.796 56.9688 132.796H66.4074C68.6029 132.796 70.5023 131.499 71.3264 129.625C71.6067 128.988 71.7617 128.286 71.7617 127.55V126.306V122.465V108.03V87.0918V80.3046C71.7617 79.289 70.9245 78.5085 69.9453 78.5085H63.8606C62.8814 78.5085 62.0442 79.289 62.0442 80.3046V85.2113V108.03V121.465H59.6903C55.8553 121.465 52.7031 124.503 52.7031 128.303V128.612Z" stroke="#222C20" stroke-width="2" stroke-linejoin="round"/>
<g filter="url(#filter1_i_20_98656)">
<path fill-rule="evenodd" clip-rule="evenodd" d="M85.1236 87.8151V113.723H77.5286V86.6578L85.1236 87.8151Z" fill="#0D8E75"/>
<path d="M78.3321 79.5085H84.3201C84.7639 79.5085 85.1236 79.865 85.1236 80.3046V87.8151L77.5286 86.6578V80.3046C77.5286 79.865 77.8883 79.5085 78.3321 79.5085Z" fill="#222C20"/>
<path d="M91.1025 131.796H81.8138C80.1538 131.796 78.7143 130.861 78.0026 129.493H94.1917C93.8058 130.823 92.5689 131.796 91.1025 131.796Z" fill="#5B7373"/>
<path d="M85.927 122.465H88.4243C91.6784 122.465 94.3164 125.079 94.3164 128.303V128.612C94.3164 128.917 94.2729 129.213 94.1917 129.493H78.0026C77.6996 128.911 77.5286 128.25 77.5286 127.55V126.306V122.465V113.723H85.1236V121.669C85.1236 122.109 85.4833 122.465 85.927 122.465Z" fill="white"/>
</g>
<path d="M86.1236 80.3046V87.8151V113.723V121.465H88.4243C92.222 121.465 95.3164 124.518 95.3164 128.303V128.612C95.3164 129.013 95.2593 129.402 95.1521 129.772C94.644 131.523 93.0203 132.796 91.1025 132.796H81.8138C79.7698 132.796 77.9942 131.643 77.1155 129.955C76.7403 129.234 76.5286 128.415 76.5286 127.55V126.306V122.465V113.723V86.6578V80.3046C76.5286 79.304 77.3448 78.5085 78.3321 78.5085H84.3201C85.3074 78.5085 86.1236 79.304 86.1236 80.3046Z" stroke="#222C20" stroke-width="2" stroke-linejoin="round"/>
<path d="M64.5748 122.351C66.885 122.358 68.5772 123.191 68.5772 123.191" stroke="#222C20" stroke-width="2" stroke-linecap="round"/>
<path d="M83.4721 122.351C81.1618 122.358 79.4697 123.191 79.4697 123.191" stroke="#222C20" stroke-width="2" stroke-linecap="round"/>
<line x1="63.9414" y1="107.976" x2="69.7606" y2="107.976" stroke="#222C20" stroke-width="2" stroke-linecap="square"/>
<line x1="78.5273" y1="113.525" x2="84.3466" y2="113.525" stroke="#222C20" stroke-width="2" stroke-linecap="square"/>
<line x1="53.9414" y1="128.848" x2="69.7618" y2="128.848" stroke="#222C20" stroke-width="2" stroke-linecap="square"/>
<line x1="78.5273" y1="128.848" x2="94.3176" y2="128.848" stroke="#222C20" stroke-width="2" stroke-linecap="square"/>
<line x1="41.1289" y1="133.505" x2="106.114" y2="133.505" stroke="#222C20" stroke-width="2" stroke-linecap="round"/>
<path fill-rule="evenodd" clip-rule="evenodd" d="M53.7656 67.4872C56.0624 68.6688 56.9615 71.4819 55.7738 73.7705C54.5862 76.059 52.0341 77.1662 49.7372 75.9845C39.6785 72.7696 30.9363 62.9742 27.1474 57.4658C25.219 54.6623 23.8758 52.1527 23.0055 50.3188C22.5697 49.4006 22.2507 48.6479 22.0347 48.1074C21.9266 47.837 21.8442 47.6194 21.7857 47.4603C21.7565 47.3807 21.7156 47.2659 21.7156 47.2659L21.6802 47.1635C20.8547 44.7232 22.1719 42.0771 24.6223 41.2534C26.8977 40.4885 29.3761 41.6361 30.3794 43.7575C30.58 43.598 30.8094 43.4725 31.0636 43.3903C32.3298 42.9804 33.7308 43.7977 34.1927 45.2158C34.6545 46.6339 34.0025 48.1158 32.7362 48.5257C32.6979 48.5381 32.6595 48.5493 32.621 48.5595C33.2232 49.6447 33.9684 50.8757 34.873 52.1909C37.2918 55.7073 40.8148 59.7769 45.7523 63.2957C45.7523 63.2957 51.8226 66.4876 53.7656 67.4872Z" fill="#0D8E75"/>
<path d="M55.7738 73.7705L54.8862 73.3099L54.8862 73.3099L55.7738 73.7705ZM53.7656 67.4872L53.3081 68.3764L53.3081 68.3764L53.7656 67.4872ZM49.7372 75.9845L50.0417 75.032C50.0944 75.0489 50.1455 75.07 50.1947 75.0953L49.7372 75.9845ZM27.1474 57.4658L27.9713 56.8991L27.1474 57.4658ZM23.0055 50.3188L23.9089 49.8901L23.9089 49.8901L23.0055 50.3188ZM22.0347 48.1074L22.9633 47.7363L22.9633 47.7363L22.0347 48.1074ZM21.7857 47.4603L20.8471 47.8052L20.8471 47.8052L21.7857 47.4603ZM21.7156 47.2659L20.7734 47.601L20.7708 47.5933L21.7156 47.2659ZM21.6802 47.1635L20.7353 47.491L20.7329 47.484L21.6802 47.1635ZM24.6223 41.2534L24.941 42.2013L24.941 42.2013L24.6223 41.2534ZM30.3794 43.7575L31.0016 44.5403C30.7626 44.7302 30.4499 44.8006 30.1526 44.7314C29.8553 44.6622 29.6059 44.461 29.4754 44.185L30.3794 43.7575ZM31.0636 43.3903L31.3715 44.3417L31.3715 44.3417L31.0636 43.3903ZM34.1927 45.2158L33.2418 45.5255L33.2418 45.5255L34.1927 45.2158ZM32.7362 48.5257L32.4282 47.5743L32.4282 47.5743L32.7362 48.5257ZM32.621 48.5595L31.7466 49.0447C31.5968 48.7749 31.5801 48.4511 31.7011 48.1673C31.8221 47.8835 32.0673 47.6714 32.3656 47.5926L32.621 48.5595ZM34.873 52.1909L34.0491 52.7576L34.873 52.1909ZM45.7523 63.2957L45.2869 64.1807C45.247 64.1598 45.2086 64.1362 45.1719 64.11L45.7523 63.2957ZM54.8862 73.3099C55.8181 71.5142 55.1141 69.3055 53.3081 68.3764L54.223 66.598C57.0107 68.0321 58.1049 71.4496 56.6614 74.2311L54.8862 73.3099ZM50.1947 75.0953C51.9035 75.9744 53.8983 75.2135 54.8862 73.3099L56.6614 74.2311C55.274 76.9046 52.1646 78.3579 49.2798 76.8738L50.1947 75.0953ZM27.9713 56.8991C29.8259 59.5954 32.9083 63.3611 36.7616 66.8433C40.6212 70.3312 45.199 73.4842 50.0417 75.032L49.4328 76.9371C44.2168 75.27 39.3941 71.9179 35.4207 68.3272C31.441 64.7308 28.2578 60.8447 26.3235 58.0325L27.9713 56.8991ZM23.9089 49.8901C24.7602 51.6837 26.0776 54.146 27.9713 56.8991L26.3235 58.0325C24.3605 55.1786 22.9915 52.6216 22.1021 50.7475L23.9089 49.8901ZM22.9633 47.7363C23.1721 48.2588 23.4828 48.9922 23.9089 49.8901L22.1021 50.7476C21.6566 49.809 21.3293 49.0369 21.1061 48.4785L22.9633 47.7363ZM22.7243 47.1153C22.7797 47.266 22.8588 47.4749 22.9633 47.7363L21.1061 48.4785C20.9944 48.1992 20.9087 47.9728 20.8471 47.8052L22.7243 47.1153ZM21.7156 47.2659C22.6578 46.9308 22.6578 46.9308 22.6578 46.9308C22.6578 46.9308 22.6578 46.9308 22.6578 46.9308C22.6578 46.9308 22.6578 46.9308 22.6578 46.9308C22.6578 46.9308 22.6578 46.9308 22.6578 46.9308C22.6578 46.9309 22.6579 46.9309 22.6579 46.931C22.658 46.9312 22.6581 46.9315 22.6582 46.9319C22.6585 46.9327 22.6589 46.9339 22.6595 46.9354C22.6606 46.9385 22.6622 46.9431 22.6643 46.9489C22.6684 46.9606 22.6743 46.9769 22.681 46.9956C22.6946 47.0336 22.7111 47.0792 22.7243 47.1153L20.8471 47.8052C20.8311 47.7617 20.8125 47.7101 20.7984 47.6709C20.7913 47.6509 20.7851 47.6336 20.7806 47.6212C20.7784 47.615 20.7767 47.61 20.7754 47.6065C20.7748 47.6048 20.7743 47.6035 20.774 47.6025C20.7738 47.6021 20.7737 47.6017 20.7736 47.6014C20.7736 47.6013 20.7735 47.6012 20.7735 47.6011C20.7735 47.6011 20.7735 47.6011 20.7735 47.601C20.7735 47.601 20.7735 47.601 20.7735 47.601C20.7735 47.601 20.7735 47.601 20.7735 47.601C20.7734 47.601 20.7734 47.601 21.7156 47.2659ZM22.625 46.8361L22.6605 46.9385L20.7708 47.5933L20.7353 47.491L22.625 46.8361ZM24.941 42.2013C23.0116 42.8499 21.9802 44.9298 22.6274 46.8431L20.7329 47.484C19.7291 44.5167 21.3322 41.3044 24.3037 40.3055L24.941 42.2013ZM29.4754 44.185C28.6773 42.4975 26.7106 41.6063 24.941 42.2013L24.3037 40.3055C27.0847 39.3706 30.0749 40.7746 31.2834 43.3299L29.4754 44.185ZM31.3715 44.3417C31.2342 44.3861 31.1108 44.4535 31.0016 44.5403L29.7572 42.9746C30.0492 42.7425 30.3846 42.559 30.7556 42.4389L31.3715 44.3417ZM33.2418 45.5255C32.9168 44.5274 32.0144 44.1336 31.3715 44.3417L30.7556 42.4389C32.6453 41.8271 34.5448 43.0679 35.1435 44.9061L33.2418 45.5255ZM32.4282 47.5743C33.0692 47.3668 33.5666 46.5227 33.2418 45.5255L35.1435 44.9061C35.7425 46.745 34.9357 48.8647 33.0441 49.4771L32.4282 47.5743ZM32.3656 47.5926C32.3865 47.5871 32.4074 47.581 32.4282 47.5743L33.0442 49.4771C32.9884 49.4951 32.9324 49.5115 32.8763 49.5264L32.3656 47.5926ZM34.0491 52.7576C33.1248 51.4137 32.3629 50.1554 31.7466 49.0447L33.4954 48.0743C34.0835 49.1341 34.812 50.3376 35.6969 51.6241L34.0491 52.7576ZM45.1719 64.11C40.1208 60.5103 36.5196 56.3493 34.0491 52.7576L35.6969 51.6241C38.0639 55.0653 41.5088 59.0435 46.3327 62.4813L45.1719 64.11ZM53.3081 68.3764C52.3324 67.8745 50.3254 66.8246 48.566 65.9022C47.6855 65.4406 46.8657 65.0103 46.2661 64.6953C45.9663 64.5378 45.7215 64.4092 45.5517 64.3199C45.4668 64.2753 45.4006 64.2405 45.3556 64.2169C45.3331 64.2051 45.316 64.196 45.3044 64.19C45.2986 64.1869 45.2943 64.1846 45.2913 64.1831C45.2899 64.1823 45.2888 64.1817 45.288 64.1813C45.2876 64.1811 45.2874 64.181 45.2872 64.1809C45.2871 64.1808 45.287 64.1808 45.287 64.1808C45.2869 64.1808 45.2869 64.1807 45.7523 63.2957C46.2177 62.4106 46.2177 62.4106 46.2178 62.4106C46.2178 62.4106 46.2179 62.4107 46.218 62.4107C46.2182 62.4108 46.2184 62.4109 46.2188 62.4111C46.2195 62.4115 46.2206 62.4121 46.2221 62.4129C46.225 62.4144 46.2294 62.4167 46.2352 62.4197C46.2467 62.4258 46.2638 62.4348 46.2863 62.4466C46.3312 62.4702 46.3973 62.505 46.4822 62.5496C46.6519 62.6388 46.8965 62.7673 47.1962 62.9247C47.7954 63.2395 48.6147 63.6696 49.4946 64.1309C51.2561 65.0544 53.2557 66.1003 54.223 66.598L53.3081 68.3764Z" fill="#222C20"/>
<path d="M112.657 72.9977C114.385 65.9087 105.879 59.5773 101.406 56.8661L100.194 64.7318C111.389 71.0828 103.033 75.8445 97.4746 75.8445C94.3285 75.8445 92.2727 78.8517 92.1203 80.6632C91.9679 82.4747 92.144 85.8443 96.2108 86.5837C101.904 87.6189 102.564 83.1254 101.406 81.9446C102.874 81.6415 110.929 80.0866 112.657 72.9977Z" fill="#0D8E75" stroke="#222C20" stroke-width="2" stroke-linecap="round" stroke-linejoin="round"/>
<line x1="1" y1="-1" x2="10.1642" y2="-1" transform="matrix(-0.0613259 0.998118 -0.998144 -0.060895 99.7578 65.3396)" stroke="#222C20" stroke-width="2" stroke-linecap="round"/>
<path d="M102.568 54.743L102.568 54.7382C102.659 51.5853 102.498 48.5373 101.523 45.6408C100.541 42.7216 98.7529 40.0156 95.6855 37.5084C92.4906 34.8968 88.3042 34.3237 84.8286 34.1035C84.0391 34.0534 83.3092 34.0223 82.6268 33.9933C81.738 33.9554 80.9299 33.921 80.1759 33.8526C79.5329 33.7944 79.0021 33.7157 78.5801 33.604C78.1505 33.4903 77.907 33.3608 77.7774 33.2491C77.435 32.9542 77.3373 32.6674 77.3385 32.3071C77.3399 31.8696 77.4907 31.3392 77.7411 30.6195C77.7771 30.5159 77.8153 30.4083 77.8547 30.2972C78.0677 29.6964 78.3162 28.9952 78.458 28.2892C78.631 27.4279 78.67 26.4613 78.2944 25.4763C77.8518 24.3153 76.8324 23.6819 75.6813 23.3963C74.5431 23.1138 73.1481 23.1299 71.6443 23.3453C68.623 23.778 64.8685 25.0596 61.1713 26.8885C54.1307 30.3713 45.9559 37.3341 45.0132 50.5537C44.8916 52.2588 44.8987 53.956 44.9295 55.6248C44.9828 58.5134 45.2135 63.5106 46.1036 68.4257C46.5486 70.8834 47.163 73.3462 48.0151 75.526C48.8632 77.6957 49.9727 79.6529 51.4461 81.033C54.4089 83.8082 58.359 85.5551 62.7346 85.6802L82.9113 86.2572C87.287 86.3823 91.3311 84.8639 94.4488 82.2626C96.4097 80.6264 97.8533 78.0252 98.934 75.1793C100.023 72.3118 100.786 69.0809 101.32 66.0678C101.856 63.0499 102.167 60.2227 102.345 58.1518C102.434 57.1155 102.49 56.2665 102.523 55.6752C102.54 55.3795 102.551 55.1482 102.558 54.9899C102.562 54.9107 102.564 54.8499 102.566 54.8084L102.567 54.7607L102.568 54.7481L102.568 54.7446L102.568 54.7435C102.568 54.7432 102.568 54.743 101.569 54.7097L102.568 54.743Z" fill="#DFF2EE" stroke="#222C20" stroke-width="2"/>
<mask id="mask0_20_98656" style="mask-type:alpha" maskUnits="userSpaceOnUse" x="45" y="24" width="57" height="62">
<path d="M101.569 54.7097C101.748 48.489 100.913 43.0732 95.0526 38.2827C89.1918 33.4921 79.4563 36.0152 77.1246 34.0068C74.793 31.9984 78.5032 28.8312 77.36 25.8327C76.2169 22.8342 68.8874 24.1871 61.6146 27.7848C54.7746 31.1683 46.92 37.8726 46.0107 50.6246C45.8924 52.2832 45.8987 53.9437 45.9294 55.6062C46.0351 61.3364 46.8453 75.3533 52.1298 80.3031C54.9215 82.918 58.641 84.5628 62.7634 84.6806L82.9401 85.2576C87.0625 85.3754 90.8706 83.9459 93.8082 81.4948C100.868 75.6041 101.569 54.7097 101.569 54.7097Z" fill="#AFB6EF"/>
</mask>
<g mask="url(#mask0_20_98656)">
<path d="M101.566 55.7672C101.736 49.8517 100.197 42.9594 94.5548 38.4019C88.9124 33.8444 77.2642 38.2929 75.0194 36.3822C72.7746 34.4715 76.3444 31.4609 75.2432 28.6091C74.142 25.7573 67.0881 27.0414 60.0896 30.4602C53.5076 33.6756 45.9501 40.0484 45.0792 52.1746C44.9659 53.7518 44.9724 55.3308 45.0025 56.9118C45.1063 62.361 45.8907 75.6905 50.9783 80.3993C53.6661 82.8869 57.2465 84.4521 61.2142 84.5656L80.6335 85.1209C84.6011 85.2343 90.4393 85.4943 93.2658 83.1644C100.059 77.565 101.566 55.7672 101.566 55.7672Z" fill="#A1E2D5"/>
<path d="M64.9732 42.1586C59.5473 41.4665 50.9273 40.1758 50.4996 42.3172L50.9238 49.1477C52.8196 50.0758 58.9363 52.3435 68.2362 53.9891C77.5362 55.6348 83.8068 45.6308 84.982 40.7229C79.6197 40.7546 71.8241 43.0325 64.9732 42.1586Z" fill="#096755"/>
<g filter="url(#filter2_i_20_98656)">
<path d="M100.204 55.6583C100.369 49.9225 99.4701 47.9033 97.2072 45.2706C94.9442 42.6379 89.8059 40.1842 84.4775 40.6412C79.149 41.0982 75.2433 43.8301 72.4407 45.1727C69.6381 46.5153 63.4447 50.7054 57.2458 49.0475C51.047 47.3896 51.7422 42.0207 50.5061 42.7166C47.4142 44.4571 47.7087 56.4508 47.7087 56.4508C47.7087 56.4508 48.5851 74.6594 53.574 79.2267C56.2096 81.6395 59.72 83.1584 63.6095 83.2696L82.6465 83.8139C86.536 83.9252 90.1281 82.6094 92.8982 80.3511C99.5554 74.9238 100.204 55.6583 100.204 55.6583Z" fill="#0D8E75"/>
</g>
</g>
<ellipse cx="1.83616" cy="1.82977" rx="1.83616" ry="1.82977" transform="matrix(0.996507 0.0835093 -0.0840983 0.996457 55.4141 35.9854)" fill="white"/>
<path d="M53.7254 44.692C53.7254 44.692 50.4711 50.4051 53.5634 63.7178" stroke="white" stroke-width="2" stroke-linecap="round" stroke-linejoin="round"/>
<ellipse cx="2.32944" cy="2.32716" rx="2.32944" ry="2.32716" transform="matrix(0.931046 0.364902 -0.365747 0.930714 80.457 50.6013)" fill="#222C20"/>
<ellipse cx="2.32944" cy="2.32716" rx="2.32944" ry="2.32716" transform="matrix(0.931046 0.364902 -0.365747 0.930714 67.5469 49.687)" fill="#222C20"/>
<path d="M80.3042 58.782C78.6908 57.7669 73.9037 58.2957 71.899 59.231C71.8673 61.9939 75.0793 62.2736 76.8688 61.9426C78.9697 61.554 81.9177 59.7972 80.3042 58.782Z" fill="#222C20" stroke="#222C20" stroke-width="2"/>
<path fill-rule="evenodd" clip-rule="evenodd" d="M29.9957 83.0611C30.1677 83.2105 30.4166 83.4016 30.7727 83.6305C32.09 84.4773 34.2034 85.3819 37.1322 86.2424C42.942 87.9492 51.6365 89.1097 61.3986 89.7792L61.3986 96.425C51.4061 95.7398 42.0889 94.6421 35.7121 92.7687C32.5477 91.839 29.7912 90.7355 27.7396 89.4166C25.8906 88.228 23.5894 86.1927 23.4739 83.0775C23.4015 81.1248 24.2499 79.5793 25.2134 78.4879C26.169 77.4054 27.441 76.5228 28.8161 75.7831C31.5799 74.2964 35.4118 73.0459 39.9137 72.026C48.9683 69.9745 61.394 68.7119 75.0717 68.6738C88.7493 68.6357 101.266 69.829 110.471 71.8296C115.047 72.8243 118.971 74.0532 121.845 75.5242C123.274 76.2561 124.612 77.1314 125.647 78.2084C126.691 79.2942 127.654 80.8346 127.727 82.7874C127.79 84.4927 127.146 85.8987 126.342 86.9465C125.555 87.9723 124.508 88.8062 123.393 89.499C121.163 90.8858 118.094 92.0549 114.514 93.0353C107.305 95.0097 98.0686 96.4892 86.7736 97.0292L86.8945 90.0208C97.9423 89.4927 106.102 88.2981 112.772 86.4713C116.132 85.5511 118.594 84.5573 120.135 83.5986C120.633 83.2891 120.975 83.0194 121.203 82.8055C120.841 82.489 120.25 82.0816 119.354 81.6229C117.171 80.5054 113.831 79.4108 109.466 78.4621C100.788 76.5759 88.7109 75.4028 75.3225 75.44C61.9341 75.4773 49.9463 76.7174 41.4096 78.6514C37.1159 79.6243 33.8577 80.7372 31.7581 81.8666C30.8946 82.3311 30.3341 82.7423 29.9957 83.0611ZM29.6492 83.4619C29.6492 83.4619 29.6504 83.4589 29.6538 83.4529C29.6511 83.4589 29.6492 83.4619 29.6492 83.4619ZM76.8653 90.2625L76.8653 97.1032C76.649 97.1038 74.3348 97.1024 74.0861 97.1032C71.5999 97.1109 73.5913 97.0927 71.4278 97.0292L71.4278 90.2625C73.4887 90.3231 74.3521 90.2702 76.8653 90.2625Z" fill="#E6A320"/>
<path d="M121.203 82.8055C120.975 83.0194 120.633 83.2891 120.135 83.5986C118.594 84.5573 116.132 85.5511 112.772 86.4713C106.102 88.2981 97.9423 89.4927 86.8945 90.0208L86.7736 97.0292C98.0686 96.4892 107.305 95.0097 114.514 93.0353C118.094 92.0549 121.163 90.8858 123.393 89.499C124.508 88.8062 125.555 87.9723 126.342 86.9465C127.146 85.8987 127.79 84.4927 127.727 82.7874C127.654 80.8346 126.691 79.2942 125.647 78.2084C124.612 77.1314 123.274 76.2561 121.845 75.5242C118.971 74.0532 115.047 72.8243 110.471 71.8296C101.266 69.829 88.7493 68.6357 75.0717 68.6738C61.394 68.7119 48.9683 69.9745 39.9137 72.026C35.4118 73.0459 31.5799 74.2964 28.8161 75.7831C27.441 76.5228 26.169 77.4054 25.2134 78.4879C24.2499 79.5793 23.4015 81.1248 23.4739 83.0775C23.5894 86.1927 25.8906 88.228 27.7396 89.4166C29.7912 90.7355 32.5477 91.839 35.7121 92.7687C42.0889 94.6421 51.4061 95.7398 61.3986 96.425L61.3986 89.7792C51.6365 89.1097 42.942 87.9492 37.1322 86.2424C34.2034 85.3819 32.09 84.4773 30.7727 83.6305C30.4166 83.4016 30.1677 83.2105 29.9957 83.0611C30.3341 82.7423 30.8946 82.3311 31.7581 81.8666C33.8577 80.7372 37.1159 79.6243 41.4096 78.6514C49.9463 76.7174 61.9341 75.4773 75.3225 75.44C88.7109 75.4028 100.788 76.5759 109.466 78.4621C113.831 79.4108 117.171 80.5054 119.354 81.6229C120.25 82.0816 120.841 82.489 121.203 82.8055ZM121.203 82.8055C121.927 83.5588 122.308 84.3707 121.92 85.1037M29.6492 83.4619C29.6492 83.4619 29.6504 83.4589 29.6538 83.4529C29.6511 83.4589 29.6492 83.4619 29.6492 83.4619ZM76.8653 90.2625L76.8653 97.1032C76.649 97.1038 74.3348 97.1024 74.0861 97.1032C71.5999 97.1109 73.5913 97.0927 71.4278 97.0292L71.4278 90.2625C73.4887 90.3231 74.3521 90.2702 76.8653 90.2625Z" stroke="#222C20" stroke-width="2" stroke-linecap="round" stroke-linejoin="round"/>
<path d="M114.81 93.5028C113.034 98.2992 107.796 100.745 103.135 99.019C98.4737 97.2926 96.0931 92.0245 97.8696 87.2282C99.6461 82.4318 104.884 79.9855 109.545 81.712C114.206 83.4384 116.587 88.7065 114.81 93.5028Z" fill="#759595" stroke="#222C20" stroke-width="2"/>
<path d="M52.1733 63.8441C51.1249 66.6746 47.9804 68.1193 45.1497 67.0709C42.319 66.0224 40.8742 62.8779 41.9226 60.0474C42.971 57.2169 46.1155 55.7722 48.9462 56.8206C51.7769 57.8691 53.2217 61.0136 52.1733 63.8441Z" fill="#759595" stroke="#222C20" stroke-width="2"/>
<path d="M111.967 17.4273C113.294 17.413 114.51 17.8092 115.459 18.4632C116.6 19.249 117.283 20.4817 117.69 22.0254C118.099 23.579 118.198 25.3335 118.254 27.0391C118.343 29.7947 117.654 31.567 116.7 32.7968C115.727 34.0504 114.409 34.8333 113.063 35.4824C111.738 36.121 110.458 36.5162 109.511 36.6118C109.031 36.6602 108.718 36.6231 108.547 36.5653C108.509 36.5526 108.486 36.542 108.472 36.5345C108.411 36.3157 108.469 36.1672 108.638 35.7259C108.653 35.6882 108.668 35.6483 108.685 35.6061C108.768 35.3885 108.928 34.9646 108.856 34.4827C108.772 33.9199 108.423 33.5059 107.987 33.2079C107.687 33.0023 107.35 32.8998 107.059 32.8413C106.761 32.7813 106.44 32.7546 106.127 32.7425C105.693 32.7258 105.188 32.7358 104.691 32.7457C104.491 32.7496 104.293 32.7536 104.1 32.7557C103.395 32.7637 102.709 32.7508 102.083 32.6606C101.454 32.5699 100.953 32.4098 100.583 32.1697C98.8552 31.0486 98.4406 29.3062 98.374 27.253C98.3187 25.5474 98.3046 23.7919 98.6126 22.2307C98.9186 20.6793 99.5209 19.4327 100.61 18.623C101.517 17.949 102.706 17.527 104.033 17.5127L111.967 17.4273ZM108.455 36.5225C108.455 36.5224 108.458 36.5244 108.462 36.5288C108.456 36.5249 108.454 36.5227 108.455 36.5225Z" fill="#E6A320" stroke="#222C20" stroke-width="2"/>
</g>
<defs>
<filter id="filter0_i_20_98656" x="48.7031" y="77.5085" width="24.0586" height="59.2874" filterUnits="userSpaceOnUse" color-interpolation-filters="sRGB">
<feFlood flood-opacity="0" result="BackgroundImageFix"/>
<feBlend mode="normal" in="SourceGraphic" in2="BackgroundImageFix" result="shape"/>
<feColorMatrix in="SourceAlpha" type="matrix" values="0 0 0 0 0 0 0 0 0 0 0 0 0 0 0 0 0 0 127 0" result="hardAlpha"/>
<feOffset dx="-13" dy="10"/>
<feGaussianBlur stdDeviation="1.5"/>
<feComposite in2="hardAlpha" operator="arithmetic" k2="-1" k3="1"/>
<feColorMatrix type="matrix" values="0 0 0 0 0 0 0 0 0 0 0 0 0 0 0 0 0 0 0.3 0"/>
<feBlend mode="darken" in2="shape" result="effect1_innerShadow_20_98656"/>
</filter>
<filter id="filter1_i_20_98656" x="72.5273" y="77.5085" width="23.7891" height="59.2874" filterUnits="userSpaceOnUse" color-interpolation-filters="sRGB">
<feFlood flood-opacity="0" result="BackgroundImageFix"/>
<feBlend mode="normal" in="SourceGraphic" in2="BackgroundImageFix" result="shape"/>
<feColorMatrix in="SourceAlpha" type="matrix" values="0 0 0 0 0 0 0 0 0 0 0 0 0 0 0 0 0 0 127 0" result="hardAlpha"/>
<feOffset dx="-13" dy="10"/>
<feGaussianBlur stdDeviation="1.5"/>
<feComposite in2="hardAlpha" operator="arithmetic" k2="-1" k3="1"/>
<feColorMatrix type="matrix" values="0 0 0 0 0 0 0 0 0 0 0 0 0 0 0 0 0 0 0.3 0"/>
<feBlend mode="darken" in2="shape" result="effect1_innerShadow_20_98656"/>
</filter>
<filter id="filter2_i_20_98656" x="44.7031" y="37.5859" width="55.5195" height="46.2346" filterUnits="userSpaceOnUse" color-interpolation-filters="sRGB">
<feFlood flood-opacity="0" result="BackgroundImageFix"/>
<feBlend mode="normal" in="SourceGraphic" in2="BackgroundImageFix" result="shape"/>
<feColorMatrix in="SourceAlpha" type="matrix" values="0 0 0 0 0 0 0 0 0 0 0 0 0 0 0 0 0 0 127 0" result="hardAlpha"/>
<feOffset dx="-5" dy="-19"/>
<feGaussianBlur stdDeviation="1.5"/>
<feComposite in2="hardAlpha" operator="arithmetic" k2="-1" k3="1"/>
<feColorMatrix type="matrix" values="0 0 0 0 0 0 0 0 0 0 0 0 0 0 0 0 0 0 0.3 0"/>
<feBlend mode="normal" in2="shape" result="effect1_innerShadow_20_98656"/>
</filter>
</defs>
</svg>
