<svg width="300" height="300" viewBox="0 0 300 300" fill="none" xmlns="http://www.w3.org/2000/svg">
<g opacity="0.8">
<path fill-rule="evenodd" clip-rule="evenodd" d="M176.698 151.791C175.514 165.814 174.337 189.488 174.337 189.488H190.878L196.617 140.83C196.617 140.83 184.214 146.812 176.698 151.791Z" fill="#0D8E75"/>
<path d="M189.128 126.066L182.069 125.171C181.103 125.171 179.607 128.708 179.607 129.645C179.607 129.645 177.572 142.444 176.698 151.791C184.214 146.812 196.617 140.83 196.617 140.83L200.198 130.316C208.622 128.619 189.128 126.066 189.128 126.066Z" fill="#222C20"/>
<path d="M161.316 240.153H181.546C185.395 240.153 188.7 237.892 190.127 234.666H154.445C155.071 237.792 157.909 240.153 161.316 240.153Z" fill="#5B7373"/>
<path d="M172.587 220.261H167.149C160.062 220.261 154.316 225.833 154.316 232.707V233.364C154.316 233.809 154.361 234.244 154.445 234.666H190.127C190.61 233.572 190.878 232.367 190.878 231.101V228.449V220.261V189.488H174.337V218.564C174.337 219.501 173.554 220.261 172.587 220.261Z" fill="white"/>
<path d="M174.337 189.488L172.839 189.413C172.838 189.438 172.837 189.463 172.837 189.488V218.564C172.837 218.63 172.769 218.761 172.587 218.761H167.149C159.277 218.761 152.816 224.962 152.816 232.707V233.364C152.816 233.909 152.87 234.443 152.974 234.96C153.744 238.805 157.212 241.653 161.316 241.653H181.546C185.99 241.653 189.832 239.041 191.498 235.272C192.065 233.992 192.378 232.581 192.378 231.101V228.449V220.261V189.576L198.088 141.163L201.349 131.589C201.568 131.531 201.771 131.47 201.957 131.404C202.339 131.271 202.766 131.083 203.112 130.789C203.487 130.471 203.944 129.847 203.776 129.001C203.64 128.321 203.163 127.915 202.917 127.732C202.377 127.33 201.589 127.03 200.852 126.796C200.062 126.545 199.124 126.308 198.148 126.09C196.192 125.655 193.983 125.277 192.275 125.009C191.418 124.875 190.682 124.767 190.16 124.694C189.898 124.657 189.69 124.628 189.547 124.608L189.382 124.586L189.339 124.58L189.327 124.579L189.324 124.579L189.323 124.578C189.323 124.578 189.323 124.578 189.128 126.065L189.323 124.578L189.317 124.578L182.258 123.683C182.195 123.675 182.132 123.671 182.069 123.671C181.497 123.671 181.056 123.925 180.794 124.118C180.518 124.323 180.287 124.573 180.104 124.803C179.735 125.266 179.402 125.843 179.131 126.392C178.854 126.952 178.611 127.544 178.434 128.074C178.291 128.499 178.139 129.031 178.112 129.499L178.102 129.558C178.087 129.654 178.065 129.797 178.036 129.982C177.978 130.352 177.895 130.89 177.792 131.565C177.587 132.915 177.305 134.812 176.995 137.003C176.376 141.378 175.644 146.942 175.204 151.652L175.204 151.652L175.203 151.665C174.609 158.698 174.018 168.139 173.576 175.812C173.355 179.65 173.17 183.05 173.042 185.491C172.977 186.711 172.927 187.691 172.892 188.367C172.875 188.704 172.862 188.966 172.853 189.143L172.842 189.345L172.84 189.396L172.839 189.409L172.839 189.412L172.839 189.413C172.839 189.413 172.839 189.413 174.337 189.488ZM201.127 130.14C201.148 130.155 201.142 130.154 201.121 130.135C201.123 130.137 201.125 130.138 201.127 130.14Z" stroke="#222C20" stroke-width="3" stroke-linejoin="round"/>
<path d="M176.236 221.323C181.076 222.269 184.287 224.695 184.287 224.695" stroke="#222C20" stroke-width="3" stroke-linecap="round"/>
<line x1="153.611" y1="233.84" x2="191.058" y2="234.179" stroke="#222C20" stroke-width="3"/>
<g filter="url(#filter0_i_24_87699)">
<path d="M229.558 158.738C229.558 156.372 226.03 152.126 221.603 151.241C217.892 151.11 214.805 152.726 212.738 156.694C210.155 161.653 207.578 174.898 210.141 185.169C211.593 190.989 218.808 203.203 232.653 209.134C232.653 209.134 239.91 203.193 242.344 198.261C229.883 193.912 226.177 188.605 224.939 183.237C223.245 175.894 229.558 161.104 229.558 158.738Z" fill="#0D8E75"/>
<path fill-rule="evenodd" clip-rule="evenodd" d="M236.604 225.757C237.01 224.315 237.78 222.775 238.685 221.299C240.777 217.887 239.177 212.627 235.6 210.827C234.624 210.336 233.629 209.774 232.653 209.134C232.653 209.134 239.91 203.193 242.344 198.261L255.991 203.203C257.946 203.99 260.115 203.975 261.177 206.064L254.013 238.589C250.66 241.356 244.504 240.917 241.378 239.161C237.037 236.722 235.122 231.027 236.604 225.757Z" fill="white"/>
<path d="M259.551 233.054L263.204 213.903C263.739 211.397 263.204 207.018 261.177 206.064L254.013 238.589C256.18 236.8 258.722 235.346 259.551 233.054Z" fill="#5B7373"/>
</g>
<path d="M247.621 242.071C250.162 242.053 252.92 241.43 254.957 239.755C254.965 239.749 254.972 239.742 254.98 239.736C255.438 239.358 255.915 238.995 256.414 238.615C256.471 238.572 256.528 238.528 256.586 238.485C257.14 238.062 257.721 237.615 258.265 237.144C259.342 236.213 260.416 235.071 260.962 233.564C260.989 233.489 261.01 233.413 261.025 233.335L264.675 214.199C264.986 212.724 264.977 210.798 264.619 209.094C264.438 208.232 264.155 207.362 263.733 206.607C263.392 205.998 262.922 205.398 262.281 204.97C261.531 203.763 260.478 203.141 259.46 202.747C258.959 202.553 258.436 202.403 257.982 202.273C257.951 202.264 257.92 202.256 257.89 202.247C257.39 202.104 256.958 201.976 256.551 201.812C256.535 201.805 256.518 201.799 256.502 201.793L242.871 196.857C242.853 196.85 242.835 196.844 242.816 196.837C236.722 194.708 232.902 192.39 230.474 190.051C228.071 187.737 226.963 185.339 226.401 182.9C226.039 181.333 226.087 179.248 226.431 176.858C226.772 174.493 227.383 171.951 228.059 169.524C228.597 167.591 229.166 165.761 229.664 164.16C229.792 163.749 229.915 163.352 230.032 162.974C230.315 162.056 230.563 161.229 230.741 160.55C230.905 159.925 231.058 159.256 231.058 158.739C231.058 157.807 230.723 156.847 230.259 155.984C229.784 155.099 229.116 154.207 228.313 153.386C226.719 151.756 224.472 150.286 221.897 149.771C221.817 149.755 221.737 149.745 221.655 149.742C219.561 149.668 217.569 150.087 215.79 151.139C214.013 152.19 212.545 153.816 211.407 156.001C210.001 158.702 208.679 163.449 208.021 168.754C207.36 174.082 207.344 180.159 208.685 185.531C210.237 191.751 217.708 204.311 231.941 210.46C232.935 211.105 233.942 211.671 234.926 212.167C236.276 212.846 237.339 214.234 237.831 215.886C238.323 217.537 238.184 219.247 237.406 220.515C236.466 222.048 235.618 223.721 235.16 225.351C233.53 231.146 235.58 237.624 240.643 240.468C242.48 241.5 245.07 242.089 247.621 242.071Z" stroke="#222C20" stroke-width="3" stroke-linecap="round" stroke-linejoin="round"/>
<path d="M245.306 211.034C247.472 208.505 252.212 207.194 254.289 208.095" stroke="#222C20" stroke-width="3" stroke-linecap="round" stroke-linejoin="round"/>
<path d="M129.028 146.87C138.693 130.763 155.373 100.578 172.463 93.4053L182.107 104.008C172.84 112.491 158.973 137.359 153.198 148.733C158.599 146.991 163.209 151.254 159.312 160.031C153.417 173.312 141.738 171.583 141.738 171.583C125.203 170.655 124.909 153.733 129.028 146.87Z" fill="#0D8E75"/>
<path d="M172.463 93.4053L173.572 92.396C173.145 91.9261 172.468 91.7763 171.882 92.0222L172.463 93.4053ZM129.028 146.87L130.314 147.641L129.028 146.87ZM182.107 104.008L183.119 105.115C183.729 104.557 183.772 103.61 183.216 102.999L182.107 104.008ZM141.738 171.583L141.958 170.099C141.913 170.092 141.868 170.088 141.822 170.085L141.738 171.583ZM153.198 148.733L151.861 148.053C151.587 148.594 151.664 149.246 152.057 149.706C152.451 150.167 153.082 150.346 153.659 150.16L153.198 148.733ZM159.312 160.031L160.683 160.64L159.312 160.031ZM171.882 92.0222C162.913 95.7866 154.26 105.451 146.743 115.912C139.181 126.434 132.549 138.086 127.741 146.098L130.314 147.641C135.171 139.547 141.712 128.053 149.179 117.663C156.69 107.211 164.922 98.1968 173.043 94.7884L171.882 92.0222ZM183.216 102.999L173.572 92.396L171.353 94.4146L180.997 105.018L183.216 102.999ZM127.741 146.098C125.456 149.906 124.456 156.297 126.206 161.899C127.093 164.738 128.702 167.427 131.262 169.468C133.828 171.513 137.257 172.834 141.654 173.08L141.822 170.085C137.952 169.868 135.143 168.725 133.132 167.122C131.116 165.515 129.809 163.371 129.07 161.005C127.568 156.198 128.481 150.696 130.314 147.641L127.741 146.098ZM153.659 150.16C155.916 149.432 157.643 150.035 158.507 151.288C159.42 152.613 159.792 155.252 157.941 159.423L160.683 160.64C162.728 156.032 162.745 152.152 160.977 149.586C159.16 146.949 155.882 146.291 152.738 147.305L153.659 150.16ZM157.941 159.423C155.176 165.653 151.123 168.262 147.837 169.365C146.172 169.925 144.674 170.105 143.598 170.147C143.061 170.167 142.634 170.153 142.348 170.134C142.206 170.125 142.099 170.115 142.033 170.108C141.999 170.104 141.976 170.101 141.963 170.1C141.957 170.099 141.954 170.098 141.953 170.098C141.952 170.098 141.952 170.098 141.953 170.098C141.954 170.098 141.954 170.098 141.955 170.098C141.956 170.099 141.956 170.099 141.956 170.099C141.957 170.099 141.958 170.099 141.738 171.583C141.519 173.067 141.519 173.067 141.52 173.067C141.521 173.067 141.522 173.067 141.523 173.067C141.524 173.067 141.526 173.068 141.528 173.068C141.531 173.068 141.536 173.069 141.541 173.07C141.551 173.071 141.565 173.073 141.581 173.075C141.612 173.079 141.656 173.084 141.709 173.09C141.817 173.102 141.967 173.116 142.155 173.128C142.531 173.152 143.062 173.169 143.713 173.144C145.011 173.095 146.801 172.878 148.792 172.209C152.82 170.857 157.553 167.691 160.683 160.64L157.941 159.423ZM154.536 149.412C157.408 143.755 162.299 134.73 167.621 126.072C172.974 117.363 178.66 109.196 183.119 105.115L181.094 102.902C176.286 107.303 170.406 115.811 165.065 124.501C159.694 133.24 154.764 142.337 151.861 148.053L154.536 149.412Z" fill="#222C20"/>
<path d="M179.507 144.937L179.525 144.943L197.964 150.742C197.984 150.749 198.004 150.754 198.023 150.76C199.812 151.242 201.571 151.751 203.27 152.242C205.319 152.834 207.28 153.4 209.103 153.867C212.52 154.743 215.785 155.364 219.054 155.355C225.706 155.336 232.055 152.708 239.733 145.227L239.739 145.223L239.871 145.11C239.987 145.011 240.158 144.866 240.375 144.68C240.81 144.308 241.435 143.771 242.194 143.113C243.712 141.795 245.771 139.987 247.933 138.025C250.093 136.064 252.365 133.942 254.306 131.998C256.22 130.081 257.899 128.252 258.798 126.901C262.465 121.39 264.974 115.189 266.171 108.676L266.182 108.632C266.198 108.568 266.223 108.474 266.254 108.351C266.316 108.106 266.404 107.749 266.513 107.296C266.731 106.389 267.03 105.096 267.355 103.545C268.004 100.448 268.762 96.3003 269.186 92.1353C269.614 87.9346 269.611 82.4686 269.258 77.5702C269.081 75.117 268.815 72.7803 268.464 70.7953C268.119 68.8495 267.672 67.1095 267.078 65.9361C266.099 63.9987 264.924 61.6805 262.589 59.5449C260.25 57.4069 256.857 55.5413 251.548 54.2087L251.501 54.1953L251.299 54.1383C251.124 54.089 250.869 54.0178 250.55 53.9297C249.911 53.7537 249.013 53.5102 247.973 53.2395C245.899 52.6999 243.235 52.0457 240.935 51.6067C238.709 51.182 236.845 50.6363 235.548 49.7108C234.362 48.8654 233.577 47.6562 233.577 45.562C233.577 43.906 233.955 42.6555 234.356 41.3253C234.522 40.7764 234.692 40.214 234.841 39.6039C235.081 38.6215 235.242 37.5321 235.021 36.3667C234.796 35.1789 234.203 34.057 233.18 32.9463C232.601 32.3175 231.796 31.9438 231.027 31.7024C230.233 31.4529 229.315 31.2953 228.351 31.1979C226.42 31.0029 224.118 31.0319 221.855 31.1665C217.329 31.4357 212.725 32.143 211.077 32.4959C209.657 32.8001 205.026 33.5716 199.817 34.4395C199.441 34.5022 199.061 34.5654 198.68 34.629C193.064 35.565 187.048 36.5738 184.016 37.1788C180.919 37.797 176.315 39.0966 171.633 41.0198C166.968 42.9362 162.107 45.5197 158.59 48.754C153.138 53.7674 149.191 61.1939 147.633 72.2021C146.082 83.1633 147.604 99.6901 149.793 108.021C150.014 108.863 150.232 109.711 150.452 110.562C151.282 113.788 152.121 117.047 153.141 120.083C154.433 123.929 156.057 127.56 158.441 130.495C161.116 133.787 163.364 136.447 166.482 138.756C169.607 141.07 173.526 142.976 179.507 144.937Z" stroke="#222C20" stroke-width="3" stroke-linejoin="round"/>
<mask id="mask0_24_87699" style="mask-type:alpha" maskUnits="userSpaceOnUse" x="148" y="32" width="121" height="122">
<path d="M198.414 149.311L179.975 143.511C168.182 139.645 164.956 136.135 159.606 129.549C155.164 124.082 153.388 115.802 151.244 107.639C149.099 99.4768 147.599 83.1518 149.119 72.4117C150.639 61.6716 154.46 54.5896 159.606 49.8575C166.264 43.7349 178.259 40.3157 184.263 39.1174C190.267 37.9192 213.423 33.9622 213.423 33.9622C215.788 33.4901 229.504 31.1697 232.077 33.9622C235.562 37.745 232.077 40.4063 232.077 45.5615C232.077 50.7167 236.151 52.2204 240.654 53.0796C245.156 53.9388 251.16 55.6572 251.16 55.6572C261.451 58.2348 263.786 62.7457 265.74 66.6121C267.694 70.4785 268.527 83.7962 267.694 91.9828C266.86 100.169 264.705 108.351 264.705 108.351C263.549 114.683 261.114 120.713 257.549 126.069C254.318 130.925 238.724 144.116 238.724 144.116C223.715 158.762 214.706 153.708 198.414 149.311Z" fill="#EEEFFC"/>
</mask>
<g mask="url(#mask0_24_87699)">
<ellipse cx="220.569" cy="97.7058" rx="83.7055" ry="80.7556" fill="#2BB196"/>
<path d="M198.414 149.615L179.975 144.268C168.182 140.704 164.956 137.468 159.606 131.397C155.164 126.357 153.388 118.724 151.244 111.199C149.099 103.675 147.599 88.6253 149.119 78.7244C150.639 68.8235 154.46 61.0095 159.606 56.6472C166.264 51.003 176.029 48.569 182.967 46.3857C189.905 44.2024 203.781 42.3364 208.705 41.3641C213.629 40.3918 225.81 39.7919 229.296 43.2792C231.746 45.7307 229.52 48.7874 230.191 52.4989C230.863 56.2105 235.984 58.9117 240.487 59.7038C244.989 60.4959 252.349 62.1054 252.349 62.1054C262.64 64.4816 263.786 69.8136 265.74 73.3779C267.694 76.9422 268.527 89.2193 267.694 96.7662C266.86 104.313 264.705 111.855 264.705 111.855C263.549 117.693 261.114 123.251 257.549 128.189C254.318 132.665 238.724 144.826 238.724 144.826C223.715 158.327 214.706 153.668 198.414 149.615Z" fill="#A1E2D5"/>
<path d="M258.617 118.286C255.036 127.681 241.384 139.761 230.193 146.92C223.479 151.215 217.787 151.314 208.259 148.933C176.031 140.88 162.602 134.616 158.126 119.852C153.65 105.088 148.547 82.9688 155.216 77.5726C156.659 76.405 158.53 75.2532 160.72 74.1423C189.836 59.3777 225.238 64.1358 257.274 70.4143V70.4143C262.452 71.4291 265.591 76.9016 265.591 84.731C265.591 92.5605 262.198 108.891 258.617 118.286Z" fill="#096755"/>
<g filter="url(#filter1_i_24_87699)">
<path d="M258.616 118.286C255.035 127.682 241.383 139.762 230.192 146.92C223.478 151.215 217.786 151.314 208.259 148.933C176.03 140.88 162.601 134.616 158.125 119.852C153.649 105.088 148.053 80.3139 155.663 76.9019C178.044 65.0458 212.287 86.7447 225.044 86.7447C237.802 86.7447 246.307 83.1655 254.364 76.0071C262.421 68.8487 265.59 76.9019 265.59 84.7314C265.59 92.5609 262.197 108.891 258.616 118.286Z" fill="#0D8E75"/>
</g>
</g>
<ellipse cx="3.35702" cy="4.02678" rx="3.35702" ry="4.02678" transform="matrix(0.953482 -0.30145 0.301724 0.953395 169.09 92.7959)" fill="#222C20"/>
<ellipse cx="3.35712" cy="4.02666" rx="3.35712" ry="4.02666" transform="matrix(0.984423 -0.175816 0.175986 0.984393 189.234 95.9785)" fill="#222C20"/>
<path d="M176.027 106.207C176.475 122.313 191.918 123.879 192.366 110.234" stroke="#222C20" stroke-width="3" stroke-linecap="round" stroke-linejoin="round"/>
<path d="M235.262 65.0073C229.353 74.7384 221.535 97.8725 235 96.9898C248.852 96.0816 241.261 73.9577 235.262 65.0073Z" fill="white" stroke="#222C20" stroke-width="3" stroke-linecap="round" stroke-linejoin="round"/>
<path d="M65.832 259.44C85.043 257.636 90.1528 263.684 105.818 263.047C119.62 262.486 138.368 262.92 142.432 263.026C142.973 263.04 143.5 263.047 144.041 263.047L183.779 263.047L223.094 259.665" stroke="#222C20" stroke-width="3" stroke-linecap="round"/>
<path d="M154.316 248.984L127.154 246.328C107.57 251.157 83.8482 248.984 60.4834 248.984" stroke="#222C20" stroke-width="3" stroke-linecap="round"/>
<path d="M64.0584 236.236C64.0584 236.236 73.7219 236.014 79.881 235.549C89.0856 234.853 93.9752 232.497 103.174 232.652C108.466 232.742 116.381 233.965 116.381 233.965" stroke="#222C20" stroke-width="3" stroke-linecap="round"/>
<line x1="29.2578" y1="261.595" x2="52.9924" y2="261.595" stroke="#222C20" stroke-width="3" stroke-linecap="round"/>
<path d="M240.391 249.473H219.467C202.84 249.473 187.638 249.473 170.147 249.473" stroke="#222C20" stroke-width="3" stroke-linecap="round"/>
<line x1="1.5" y1="-1.5" x2="11.0414" y2="-1.5" transform="matrix(0.999363 -0.0356739 0.0357095 0.999362 127.012 236.126)" stroke="#222C20" stroke-width="3" stroke-linecap="round"/>
<path d="M210.145 250.488L217.248 256.182C220.096 258.465 224.213 255.748 223.52 252.044L221.943 243.622L210.145 250.488Z" fill="#222C20"/>
<path d="M192.681 219.96L190.089 232.4L210.145 250.488L221.943 243.622L215.957 216.897L208.123 212.818L200.57 219.679L192.681 219.96Z" fill="#E6A320"/>
<path d="M106.496 80.8848L190.089 232.4L192.681 219.96L200.57 219.679L208.123 212.818L215.957 216.897L131.912 57.8463C123.309 50.0664 93.9761 56.0248 106.496 80.8848Z" fill="#E6A320"/>
<line x1="1.5" y1="-1.5" x2="57.1724" y2="-1.5" transform="matrix(0.480639 0.876919 -0.877121 0.48027 170.758 157.691)" stroke="#222C20" stroke-width="3" stroke-linecap="round"/>
<path d="M114.258 72.1914L134.892 110.186M186.758 205.691C168.732 172.498 157.754 152.284 141.279 121.947" stroke="#222C20" stroke-width="3" stroke-linecap="round"/>
<line x1="1.5" y1="-1.5" x2="95.2041" y2="-1.5" transform="matrix(0.476765 0.879031 -0.87923 0.476397 122.758 68.6914)" stroke="#222C20" stroke-width="3" stroke-linecap="round"/>
<path d="M202.258 57.6914L224.258 52.1914" stroke="#222C20" stroke-width="3" stroke-linecap="round" stroke-linejoin="round"/>
<g filter="url(#filter2_i_24_87699)">
<path d="M255.441 125.726L255.449 125.7C259.855 111.532 251.017 102.916 242.873 112.034C231.685 143.77 209.945 161.847 199.043 164.825C190.003 160.159 185.979 166.382 187.682 170.088C174.764 172.776 178.411 184.655 183.805 188.684C191.432 194.381 201.791 190.653 204.546 185.213C241.607 170.21 251.771 137.526 255.441 125.726Z" fill="#0D8E75"/>
</g>
<path d="M255.441 125.726L255.449 125.7C259.855 111.532 251.017 102.916 242.873 112.034C231.685 143.77 209.945 161.847 199.043 164.825C190.003 160.159 185.979 166.382 187.682 170.088C174.764 172.776 178.411 184.655 183.805 188.684C191.432 194.381 201.791 190.653 204.546 185.213C241.607 170.21 251.771 137.526 255.441 125.726Z" stroke="#222C20" stroke-width="3" stroke-linecap="round" stroke-linejoin="round"/>
<path d="M150.628 149.825C146.444 145.416 140.035 148.125 140.172 153.072L129.922 165.884C129.922 165.884 133.28 169.353 137.532 170.582C141.784 171.811 146.932 171.029 146.932 171.029C146.932 171.029 157.325 170.211 160.512 157.518C162.617 149.129 154.875 147.2 150.628 149.825Z" fill="#0D8E75"/>
<path fill-rule="evenodd" clip-rule="evenodd" d="M146.787 169.245L146.789 169.245Z" fill="#222C20"/>
<path d="M129.312 167.773C129.105 167.585 128.941 167.43 128.827 167.319C127.908 164.989 128.58 161.41 131.042 164.542C131.286 164.743 132.973 166.55 133.28 166.779C134.562 167.733 136.19 168.331 138.029 168.862C139.904 169.404 142.048 169.517 143.785 169.477C144.641 169.457 145.372 169.401 145.885 169.351C146.142 169.326 146.342 169.302 146.476 169.285C146.543 169.276 146.593 169.27 146.624 169.265L146.658 169.26L146.663 169.26L146.663 169.26C146.703 169.254 146.743 169.249 146.783 169.246L146.787 169.245C146.795 169.244 146.813 169.243 146.839 169.239C146.892 169.233 146.979 169.222 147.097 169.203C147.334 169.164 147.693 169.095 148.141 168.974C149.038 168.733 150.278 168.292 151.608 167.497C154.227 165.932 157.305 162.935 158.775 157.082C159.235 155.248 159.115 153.938 158.776 153.037C158.443 152.15 157.849 151.524 157.094 151.111C155.497 150.24 153.187 150.347 151.569 151.347C150.848 151.793 149.912 151.671 149.328 151.056C147.718 149.359 145.81 149.121 144.376 149.627C142.911 150.145 141.917 151.417 141.962 153.022C141.561 154.251 138.651 154.028 138.395 152.427C138.594 149.428 140.626 147.156 143.183 146.253C145.615 145.394 148.512 145.753 150.922 147.671C153.392 146.645 156.418 146.664 158.81 147.97C160.258 148.76 161.47 150.025 162.129 151.778C162.782 153.516 162.84 155.593 162.248 157.953C160.531 164.793 156.82 168.552 153.446 170.569C151.779 171.565 150.221 172.122 149.07 172.431C148.494 172.586 148.015 172.68 147.672 172.735C147.5 172.763 147.361 172.782 147.26 172.794C147.213 172.799 147.174 172.803 147.144 172.807L147.121 172.81C147.076 172.816 147.011 172.825 146.928 172.835C146.764 172.856 146.529 172.884 146.237 172.913C145.652 172.97 144.83 173.033 143.868 173.055C141.968 173.099 139.411 172.988 137.034 172.301C134.621 171.603 132.522 170.294 131.063 169.207C130.324 168.657 129.727 168.148 129.312 167.773Z" fill="#222C20"/>
<path d="M241.441 197.102C239.245 200.661 234.172 208.052 231.445 209.142" stroke="#222C20" stroke-width="3" stroke-linecap="round" stroke-linejoin="round"/>
<line x1="260.908" y1="203.419" x2="253.541" y2="239.956" stroke="#222C20" stroke-width="3"/>
</g>
<defs>
<filter id="filter0_i_24_87699" x="203.082" y="145.234" width="63.3164" height="98.3369" filterUnits="userSpaceOnUse" color-interpolation-filters="sRGB">
<feFlood flood-opacity="0" result="BackgroundImageFix"/>
<feBlend mode="normal" in="SourceGraphic" in2="BackgroundImageFix" result="shape"/>
<feColorMatrix in="SourceAlpha" type="matrix" values="0 0 0 0 0 0 0 0 0 0 0 0 0 0 0 0 0 0 127 0" result="hardAlpha"/>
<feOffset dx="-5" dy="-17"/>
<feGaussianBlur stdDeviation="1.5"/>
<feComposite in2="hardAlpha" operator="arithmetic" k2="-1" k3="1"/>
<feColorMatrix type="matrix" values="0 0 0 0 0 0 0 0 0 0 0 0 0 0 0 0 0 0 0.3 0"/>
<feBlend mode="darken" in2="shape" result="effect1_innerShadow_24_87699"/>
</filter>
<filter id="filter1_i_24_87699" x="148.91" y="70.2314" width="116.68" height="80.2617" filterUnits="userSpaceOnUse" color-interpolation-filters="sRGB">
<feFlood flood-opacity="0" result="BackgroundImageFix"/>
<feBlend mode="normal" in="SourceGraphic" in2="BackgroundImageFix" result="shape"/>
<feColorMatrix in="SourceAlpha" type="matrix" values="0 0 0 0 0 0 0 0 0 0 0 0 0 0 0 0 0 0 127 0" result="hardAlpha"/>
<feOffset dx="-6" dy="-14"/>
<feGaussianBlur stdDeviation="1.5"/>
<feComposite in2="hardAlpha" operator="arithmetic" k2="-1" k3="1"/>
<feColorMatrix type="matrix" values="0 0 0 0 0 0 0 0 0 0 0 0 0 0 0 0 0 0 0.3 0"/>
<feBlend mode="normal" in2="shape" result="effect1_innerShadow_24_87699"/>
</filter>
<filter id="filter2_i_24_87699" x="174.375" y="103.777" width="83.7461" height="89.2549" filterUnits="userSpaceOnUse" color-interpolation-filters="sRGB">
<feFlood flood-opacity="0" result="BackgroundImageFix"/>
<feBlend mode="normal" in="SourceGraphic" in2="BackgroundImageFix" result="shape"/>
<feColorMatrix in="SourceAlpha" type="matrix" values="0 0 0 0 0 0 0 0 0 0 0 0 0 0 0 0 0 0 127 0" result="hardAlpha"/>
<feOffset dx="-5" dy="-17"/>
<feGaussianBlur stdDeviation="1.5"/>
<feComposite in2="hardAlpha" operator="arithmetic" k2="-1" k3="1"/>
<feColorMatrix type="matrix" values="0 0 0 0 0 0 0 0 0 0 0 0 0 0 0 0 0 0 0.3 0"/>
<feBlend mode="normal" in2="shape" result="effect1_innerShadow_24_87699"/>
</filter>
</defs>
</svg>
