<svg width="24" height="24" viewBox="0 0 24 24" fill="none" xmlns="http://www.w3.org/2000/svg">
<path d="M8 13L12.2277 16.3821C12.6556 16.7245 13.2793 16.6586 13.6263 16.2345L22 6" stroke="#83AA1D" stroke-width="1.2" stroke-linecap="round"/>
<path fill-rule="evenodd" clip-rule="evenodd" d="M10.5638 12.3677L15.4628 6.37999C15.6727 6.12352 15.6349 5.7455 15.3784 5.53567C15.1219 5.32583 14.7439 5.36363 14.5341 5.6201L9.64187 11.5995L10.5638 12.3677ZM8.03072 15.4637L7.10882 14.6954L6.14114 15.8782C6.00541 16.044 5.76304 16.0735 5.59156 15.9449L2.35847 13.52C2.09338 13.3212 1.7173 13.3749 1.51847 13.64C1.31965 13.9051 1.37338 14.2812 1.63847 14.48L4.87156 16.9049C5.55747 17.4193 6.52697 17.3016 7.06989 16.638L8.03072 15.4637Z" fill="#C3D785"/>
</svg>
