<svg width="16" height="16" viewBox="0 0 16 16" fill="none" xmlns="http://www.w3.org/2000/svg">
<g id="disconnect">
<path id="Union" fill-rule="evenodd" clip-rule="evenodd" d="M10.4636 5.67388C10.4906 5.69231 10.5177 5.71106 10.5449 5.73011C9.86483 6.33374 9.36692 6.76993 8.96233 7.09138C8.56711 6.86907 8.27518 6.79688 8.00001 6.79688C7.64489 6.79688 7.26185 6.91712 6.6649 7.32509C6.04451 7.74909 5.30897 8.40035 4.23528 9.35474L2.66437 10.7511C2.25159 11.118 1.61952 11.0808 1.2526 10.6681C0.885683 10.2553 0.922864 9.6232 1.33565 9.25628L2.90655 7.85992L2.95631 7.81569L2.95631 7.81569C3.96787 6.91648 4.79812 6.17845 5.53641 5.67388C6.31021 5.14504 7.0878 4.79688 8.00001 4.79688C8.91222 4.79688 9.68981 5.14504 10.4636 5.67388ZM13.3356 10.7511L12.8733 10.3401C13.2331 10.0306 13.6044 9.70052 13.987 9.36037L13.9871 9.3603L13.9871 9.36028L14.09 9.26879L14.3842 9.00726L14.6644 9.25628C15.0772 9.6232 15.1143 10.2553 14.7474 10.6681C14.3805 11.0808 13.7484 11.118 13.3356 10.7511ZM2.66437 5.2565L3.12675 5.6675C2.76687 5.97698 2.39554 6.30713 2.01294 6.64731L2.01293 6.64731L1.91001 6.73881L1.61579 7.00034L1.33565 6.75132C0.922864 6.3844 0.885683 5.75233 1.2526 5.33955C1.61952 4.92677 2.25159 4.88959 2.66437 5.2565ZM5.53641 10.3337C5.50944 10.3153 5.48235 10.2965 5.45513 10.2775C6.13519 9.67387 6.6331 9.23767 7.03769 8.91623C7.43292 9.13854 7.72484 9.21073 8.00001 9.21073C8.35513 9.21073 8.73817 9.09049 9.33512 8.68251C9.95552 8.25851 10.6911 7.60726 11.7647 6.65287L13.3356 5.2565C13.7484 4.88959 14.3805 4.92677 14.7474 5.33955C15.1143 5.75233 15.0772 6.3844 14.6644 6.75132L13.0935 8.14768L13.0437 8.19192C12.0321 9.09113 11.2019 9.82915 10.4636 10.3337C9.68981 10.8626 8.91222 11.2107 8.00001 11.2107C7.0878 11.2107 6.31021 10.8626 5.53641 10.3337Z" fill="#283936"/>
<path id="Vector 35" d="M13.7851 13.7851L2 2" stroke="#D42222" stroke-width="2" stroke-linecap="round" stroke-linejoin="round"/>
</g>
</svg>
