<svg width="24" height="24" viewBox="0 0 24 24" fill="none" xmlns="http://www.w3.org/2000/svg">
<path fill-rule="evenodd" clip-rule="evenodd" d="M10.3671 4.05741C9.6671 4.56316 5 8.15414 5 13.9957C5 14.9149 5.18106 15.8252 5.53284 16.6745C5.88463 17.5237 6.40024 18.2954 7.05025 18.9454C7.70026 19.5954 8.47194 20.1111 9.32122 20.4628C10.146 20.8045 11.0282 20.9851 11.9203 20.9952C9.74796 20.9528 8 19.1785 8 16.996C8 16.7985 8.01432 16.6043 8.04197 16.4145C8.04315 16.4031 8.04459 16.3918 8.04628 16.3804C8.3817 14.1266 10.4553 12.2132 11.4581 11.4062C11.7785 11.1484 12.2216 11.1484 12.5421 11.4062C13.5448 12.2132 15.6183 14.1266 15.9537 16.3804C15.9554 16.3918 15.9569 16.4032 15.958 16.4145C15.9857 16.6043 16 16.7985 16 16.996C16 19.1785 14.252 20.9528 12.0797 20.9952C12.9718 20.9851 13.854 20.8045 14.6788 20.4628C15.5281 20.1111 16.2997 19.5954 16.9497 18.9454C17.5998 18.2954 18.1154 17.5237 18.4672 16.6745C18.807 15.854 18.9875 14.9765 18.9994 14.0891C18.9998 14.0776 19 14.0661 19 14.0545L18.9999 14.0229L19 13.9958L18.9999 13.9957L18.9998 13.9956C18.9734 9.75493 16.1044 7.4407 15.5813 7.0539C15.5323 7.01764 15.4671 7.01805 15.4181 7.05432C15.2083 7.20946 14.6241 7.67249 13.9967 8.44339C13.9251 8.53131 13.7845 8.51449 13.7361 8.41201C12.5573 5.91745 10.9243 4.40335 10.5386 4.06711C10.4888 4.02373 10.4206 4.01875 10.3671 4.05741Z" fill="#3B534F"/>
<path fill-rule="evenodd" clip-rule="evenodd" d="M8.04628 16.3863C8.3817 14.1325 10.4553 12.2191 11.4581 11.4121C11.7785 11.1543 12.2216 11.1543 12.5421 11.4122C13.5448 12.2191 15.6183 14.1325 15.9537 16.3863C15.9554 16.3977 15.9569 16.4091 15.958 16.4204C15.9857 16.6102 16 16.8044 16 17.0019C16 19.2111 14.2091 21.0019 12 21.0019C9.79086 21.0019 8 19.2111 8 17.0019C8 16.8044 8.01432 16.6102 8.04197 16.4204C8.04315 16.4091 8.04459 16.3977 8.04628 16.3863Z" fill="#92A09E"/>
</svg>
