<svg width="22" height="22" viewBox="0 0 22 22" fill="none" xmlns="http://www.w3.org/2000/svg">
<path fill-rule="evenodd" clip-rule="evenodd" d="M4.0414 4.0414C3 5.0828 3 6.7589 3 10.1111V11.8889C3 12.0355 3 12.179 3.00009 12.3193L4.5412 10.9984L4.5669 10.9763C5.30364 10.3448 5.89095 9.84141 6.39459 9.51427C6.91076 9.17897 7.41121 8.97958 7.96443 9.05797C8.09344 9.07625 8.22058 9.10583 8.3444 9.14639C8.8754 9.32031 9.23639 9.72016 9.5515 10.2489C9.85895 10.7648 10.1636 11.4758 10.5459 12.3676L10.5459 12.3677L10.5592 12.3988C10.7495 12.8427 10.8756 13.1347 10.9952 13.3362C11.1103 13.53 11.1793 13.569 11.2207 13.5839C11.2444 13.5925 11.2687 13.599 11.2935 13.6034C11.3362 13.611 11.4159 13.6118 11.6142 13.5C11.8198 13.384 12.0769 13.1923 12.4658 12.9007L12.4838 12.8872C12.8931 12.5802 13.2264 12.3302 13.5191 12.1531C13.8241 11.9686 14.1169 11.8426 14.4513 11.8083C14.5173 11.8015 14.5835 11.7976 14.6499 11.7968C14.9856 11.7924 15.2901 11.8832 15.6132 12.0306C15.9229 12.172 16.2808 12.3807 16.7198 12.6368L16.7393 12.6482L18.9871 13.9594C19 13.3504 19 12.6645 19 11.8889V10.1111C19 6.7589 19 5.0828 17.9586 4.0414C16.9172 3 15.2411 3 11.8889 3H10.1111C6.7589 3 5.0828 3 4.0414 4.0414ZM18.9478 14.9656L16.2914 13.416C15.8282 13.1458 15.5086 12.96 15.2441 12.8393C14.9884 12.7225 14.8186 12.6836 14.6614 12.6856C14.6216 12.6861 14.5818 12.6884 14.5422 12.6925L14.4967 12.2504L14.5422 12.6925C14.3861 12.7085 14.2215 12.767 13.9792 12.9136C13.7289 13.0651 13.4308 13.288 12.9991 13.6118L12.9752 13.6298L12.9751 13.6298C12.6167 13.8986 12.3131 14.1263 12.0507 14.2743C11.7751 14.4297 11.4751 14.5386 11.1375 14.4785C11.0633 14.4652 10.9902 14.4457 10.9193 14.4201C10.5973 14.3041 10.392 14.0614 10.2309 13.79C10.0778 13.5322 9.92922 13.1854 9.75403 12.7766L9.75402 12.7765L9.74221 12.749C9.34359 11.8189 9.06146 11.1629 8.78793 10.704C8.51848 10.2519 8.30071 10.0674 8.06772 9.99112C7.99343 9.96679 7.91714 9.94903 7.83974 9.93807C7.59699 9.90367 7.32017 9.97299 6.87879 10.2597C6.43072 10.5508 5.88799 11.0147 5.11968 11.6733L3.00541 13.4855C3.03125 15.8027 3.1804 17.0976 4.0414 17.9586C5.0828 19 6.7589 19 10.1111 19H11.8889C15.2411 19 16.9172 19 17.9586 17.9586C18.616 17.3012 18.8584 16.3908 18.9478 14.9656Z" fill="#92A09E"/>
<ellipse cx="14.5556" cy="7.44446" rx="1.77778" ry="1.77778" fill="#283936"/>
</svg>
