<svg width="24" height="24" viewBox="0 0 24 24" fill="none" xmlns="http://www.w3.org/2000/svg">
<g id="Map_duotone">
<path id="Subtract" d="M9 17.4702C9 17.9291 9.3123 18.329 9.75746 18.4403L13.7575 19.4403C14.3886 19.5981 15 19.1208 15 18.4702V6.53174C15 6.07288 14.6877 5.67289 14.2425 5.5616L10.2425 4.5616C9.61139 4.40381 9 4.88117 9 5.53174V17.4702Z" fill="#3B534F"/>
<path id="Subtract_2" fill-rule="evenodd" clip-rule="evenodd" d="M7 5.87755C7 5.17008 6.28547 4.68633 5.62861 4.94907L3.62861 5.74907C3.24895 5.90094 3 6.26864 3 6.67755V18.5235C3 19.2309 3.71453 19.7147 4.37139 19.452L6.37139 18.652C6.75105 18.5001 7 18.1324 7 17.7235L7 5.87755ZM17 18.1235C17 18.8309 17.7145 19.3147 18.3714 19.052L20.3714 18.252C20.751 18.1001 21 17.7324 21 17.3235V5.47755C21 4.77008 20.2855 4.28633 19.6286 4.54907L17.6286 5.34907C17.249 5.50094 17 5.86864 17 6.27755L17 18.1235Z" fill="#92A09E"/>
</g>
</svg>
