<svg width="24" height="24" viewBox="0 0 24 24" fill="none" xmlns="http://www.w3.org/2000/svg">
<path d="M4 16V10.2427C4 10.1312 4.11735 10.0587 4.21708 10.1085L10.6584 13.3292C11.5029 13.7515 12.4971 13.7515 13.3416 13.3292L19.7829 10.1085C19.8827 10.0587 20 10.1312 20 10.2427V16C20 17.1046 19.1046 18 18 18H6C4.89543 18 4 17.1046 4 16Z" fill="#3E423C"/>
<path d="M4 7.99961V8.9069C4 8.96372 4.0321 9.01566 4.08292 9.04107L10.6584 12.3288C11.5029 12.7511 12.4971 12.7511 13.3416 12.3288L19.9171 9.04107C19.9679 9.01566 20 8.96372 20 8.9069V7.99961C20 6.89504 19.1046 5.99961 18 5.99961H6C4.89543 5.99961 4 6.89504 4 7.99961Z" fill="#C8CBC8"/>
</svg>
