<svg width="24" height="24" viewBox="0 0 24 24" fill="none" xmlns="http://www.w3.org/2000/svg">
<path d="M11.9998 3C12.5521 3 12.9998 3.44772 12.9998 4V5H16.3371C16.5817 5 16.704 5 16.8191 5.02763C16.9211 5.05213 17.0187 5.09253 17.1081 5.14736C17.2091 5.2092 17.2955 5.29568 17.4685 5.46863L17.8685 5.86863C18.2645 6.26464 18.4625 6.46266 18.5367 6.69098C18.6019 6.89183 18.6019 7.10817 18.5367 7.30902C18.4625 7.53735 18.2645 7.73535 17.8685 8.13137L17.4685 8.53137C17.2955 8.70432 17.2091 8.7908 17.1081 8.85264C17.0187 8.90747 16.9211 8.94787 16.8191 8.97237C16.704 9 16.5817 9 16.3371 9H12.9998V11H14.3998C14.9599 11 15.2399 11 15.4538 11.109C15.642 11.2049 15.795 11.3578 15.8909 11.546C15.9998 11.7599 15.9998 12.0399 15.9998 12.6V13.4C15.9998 13.9601 15.9998 14.2401 15.8909 14.454C15.795 14.6422 15.642 14.7951 15.4538 14.891C15.2399 15 14.9599 15 14.3998 15H12.9998V20C12.9998 20.5523 12.5521 21 11.9998 21C11.4476 21 10.9998 20.5523 10.9998 20V15H6.66259C6.418 15 6.2957 15 6.18062 14.9724C6.07858 14.9479 5.98104 14.9075 5.89156 14.8526C5.79065 14.7908 5.70417 14.7043 5.53122 14.5314L5.13122 14.1314C4.7352 13.7354 4.53719 13.5373 4.46301 13.309C4.39775 13.1082 4.39775 12.8918 4.46301 12.691C4.53719 12.4627 4.7352 12.2646 5.13121 11.8686L5.53122 11.4686C5.70417 11.2957 5.79065 11.2092 5.89156 11.1474C5.98104 11.0925 6.07858 11.0521 6.18062 11.0276C6.2957 11 6.418 11 6.66259 11H10.9998V9H8.59985C8.0398 9 7.75977 9 7.54586 8.89101C7.3577 8.79513 7.20472 8.64215 7.10884 8.45399C6.99985 8.24008 6.99985 7.96005 6.99985 7.4V6.6C6.99985 6.03995 6.99985 5.75992 7.10884 5.54601C7.20472 5.35785 7.3577 5.20487 7.54586 5.10899C7.75977 5 8.0398 5 8.59985 5H10.9998V4C10.9998 3.44772 11.4476 3 11.9998 3Z" fill="#C8CBC8"/>
<path d="M12 4.99973C12.5523 4.99973 12.5 4.99973 13 5H16.3371C16.5817 5 16.704 5 16.8191 5.02763C16.9211 5.05213 17.0187 5.09254 17.1081 5.14736C17.2091 5.20921 17.2955 5.29568 17.4685 5.46863L17.8685 5.86863C18.2645 6.26465 18.4625 6.46266 18.5367 6.69099C18.6019 6.89183 18.6019 7.10818 18.5367 7.30902C18.4625 7.53735 18.2645 7.73536 17.8685 8.13138L17.4685 8.53138C17.2955 8.70433 17.2091 8.7908 17.1081 8.85264C17.0187 8.90747 16.9211 8.94788 16.8191 8.97237C16.704 9 16.5817 9 16.3371 9H12.9998V11H14.3998C14.9599 11 15.2399 11 15.4538 11.109C15.642 11.2049 15.795 11.3579 15.8909 11.546C15.9998 11.7599 15.9998 12.04 15.9998 12.6V13.4C15.9998 13.9601 15.9998 14.2401 15.8909 14.454C15.795 14.6422 15.642 14.7951 15.4538 14.891C15.2399 15 14.9599 15 14.3998 15H12.9998C12.9998 15 12.5523 15 12 15C11.4477 15 10.5 15 11 15H6.66259C6.418 15 6.2957 15 6.18062 14.9724C6.07858 14.9479 5.98104 14.9075 5.89156 14.8526C5.79065 14.7908 5.70417 14.7043 5.53122 14.5314L5.13122 14.1314C4.7352 13.7354 4.53719 13.5373 4.46301 13.309C4.39775 13.1082 4.39775 12.8918 4.46301 12.691C4.53719 12.4627 4.7352 12.2647 5.13121 11.8686L5.53122 11.4686C5.70417 11.2957 5.79065 11.2092 5.89156 11.1474C5.98104 11.0925 6.07858 11.0521 6.18062 11.0276C6.2957 11 6.418 11 6.66259 11H12.9998V9H8.59985C8.0398 9 7.75977 9 7.54586 8.89101C7.3577 8.79514 7.20472 8.64216 7.10884 8.45399C6.99985 8.24008 6.99985 7.96006 6.99985 7.4V6.6C6.99985 6.03995 6.99985 5.75993 7.10884 5.54601C7.20472 5.35785 7.3577 5.20487 7.54586 5.109C7.75977 5 8.0398 5 8.59985 5H10.9998C11.5 4.99973 11.4477 4.99973 12 4.99973Z" fill="#3E423C"/>
</svg>
