<svg width="24" height="24" viewBox="0 0 24 24" fill="none" xmlns="http://www.w3.org/2000/svg">
<g id="Send_duotone">
<path id="Vector 121" d="M7.69388 11.8953L9.10442 12.3654L9.10443 12.3654C10.0355 12.6758 10.501 12.831 10.8349 13.1648C11.1687 13.4987 11.3239 13.9642 11.6342 14.8953L11.6342 14.8953L12.1044 16.3058C12.8888 18.659 13.281 19.8356 14.0018 19.8356C14.7225 19.8356 15.1147 18.659 15.8991 16.3058L15.8992 16.3058L18.7369 7.79263C19.2888 6.13684 19.5648 5.30895 19.1278 4.87193C18.6907 4.43491 17.8628 4.71088 16.2071 5.26281L7.69389 8.10053C5.34067 8.88494 4.16406 9.27714 4.16406 9.9979C4.16406 10.7187 5.34067 11.1109 7.69388 11.8953L7.69388 11.8953Z" fill="#92A09E"/>
<path id="Vector 273" d="M7.69388 11.8953L9.10442 12.3654L9.10443 12.3654C10.0355 12.6758 10.501 12.831 10.8349 13.1648C11.1687 13.4987 11.3239 13.9642 11.6342 14.8953L11.6342 14.8953L12.1044 16.3058C12.8888 18.659 13.281 19.8356 14.0018 19.8356C14.7225 19.8356 15.1147 18.659 15.8991 16.3058L15.8992 16.3058L18.7369 7.79263C19.2888 6.13684 19.5648 5.30895 19.1278 4.87193C18.6907 4.43491 17.8628 4.71088 16.2071 5.26281L7.69389 8.10053C5.34067 8.88494 4.16406 9.27714 4.16406 9.9979C4.16406 10.7187 5.34067 11.1109 7.69388 11.8953L7.69388 11.8953Z" fill="#92A09E"/>
<path id="Vector 277" d="M9.52597 13.8401L7.4643 13.1529C7.17155 13.0553 6.85014 13.0983 6.59337 13.2695L5.50503 13.9951C4.92716 14.3803 5.08098 15.2684 5.75476 15.4368L7.70927 15.9255C7.88842 15.9702 8.02829 16.1101 8.07308 16.2893L8.5617 18.2438C8.73015 18.9176 9.61821 19.0714 10.0035 18.4935L10.729 17.4052C10.9002 17.1484 10.9432 16.827 10.8457 16.5342L10.1584 14.4726C10.0589 14.174 9.82458 13.9396 9.52597 13.8401Z" fill="#3B534F"/>
</g>
</svg>
