<svg width="24" height="24" viewBox="0 0 24 24" fill="none" xmlns="http://www.w3.org/2000/svg">
<path d="M12.0005 8.5C17.5005 15.5 17.5268 21.5 12.0039 21.5C9.50391 20 11.0039 18.5 7.50324 11C-1.0015 8.5 6.47767 2 12.0005 2C17.5234 2 22.0005 7.5 12.0005 8.5Z" fill="#92A09E"/>
<path fill-rule="evenodd" clip-rule="evenodd" d="M17.4333 6.3L18.9 5.2L20.1 6.8L18.6333 7.9C18.114 8.28947 17.4824 8.5 16.8333 8.5H13.475C13.2562 8.5 13.0562 8.6236 12.9584 8.81928C12.8377 9.06075 12.9003 9.35364 13.1093 9.5246L15.1092 11.1609C16.9455 12.6633 17.8958 14.9936 17.6337 17.3517L17.5875 17.7681C17.5175 18.3981 17.3811 19.0189 17.1807 19.6203L16.9487 20.3162L15.0513 19.6838L15.2833 18.9878C15.4392 18.5201 15.5453 18.0372 15.5997 17.5472L15.646 17.1308C15.8331 15.4465 15.1544 13.782 13.8428 12.7089L11.8428 11.0725C10.9103 10.3096 10.6307 9.00247 11.1695 7.92485C11.6062 7.05161 12.4987 6.5 13.475 6.5H16.8333C17.0497 6.5 17.2602 6.42982 17.4333 6.3Z" fill="#3B534F"/>
<path fill-rule="evenodd" clip-rule="evenodd" d="M7.05329 12.0975C7.16609 11.4207 6.57932 10.8339 5.9025 10.9467L2.6644 11.4864L2.3356 9.51361L5.5737 8.97392C7.60416 8.63551 9.36449 10.3958 9.02608 12.4263L8.89156 13.2334C8.72291 14.2453 9.23397 15.249 10.1516 15.7078C11.62 16.4419 12.3814 18.0975 11.9832 19.6902L11.4701 21.7425L9.52986 21.2575L10.0429 19.2051C10.2138 18.5218 9.8871 17.8116 9.25715 17.4966C7.55423 16.6451 6.60577 14.7826 6.91878 12.9046L7.05329 12.0975Z" fill="#3B534F"/>
<path fill-rule="evenodd" clip-rule="evenodd" d="M12 20C16.4183 20 20 16.4183 20 12C20 7.58172 16.4183 4 12 4C7.58172 4 4 7.58172 4 12C4 16.4183 7.58172 20 12 20ZM12 22C17.5228 22 22 17.5228 22 12C22 6.47715 17.5228 2 12 2C6.47715 2 2 6.47715 2 12C2 17.5228 6.47715 22 12 22Z" fill="#3B534F"/>
</svg>
