<svg width="695" height="1024" viewBox="0 0 695 1024" fill="none" xmlns="http://www.w3.org/2000/svg">
<g opacity="0.25">
<path opacity="0.2" d="M60.5322 -727.596C203.961 -408.86 -61.8606 -325.677 40.2609 -128.917C155.769 93.0383 159.976 161.824 78.5086 407.375C-35.0873 750.505 -28.9677 1019.25 120.199 1272C454.102 1272 745.167 1272 745.167 1272L745.167 -727.596C745.167 -727.596 233.795 -727.596 60.5322 -727.596Z" fill="#92A09E"/>
<path opacity="0.2" d="M234.177 1272C234.177 1272 77.7438 916.072 229.587 388.579C371.487 -104.522 42.9384 -186.105 198.989 -727.596C556.988 -727.596 745.167 -727.596 745.167 -727.596L745.167 1272L234.177 1272Z" fill="#728380"/>
<path opacity="0.2" d="M370.339 1272C370.339 1272 110.637 876.08 397.878 90.6388C517.211 -235.695 262.48 -727.596 262.48 -727.596L745.167 -727.596L745.167 1272L370.339 1272Z" fill="#3B534F"/>
<path opacity="0.2" d="M555.076 1272C555.076 1272 318.704 999.655 324.824 623.731C330.944 247.807 611.3 -53.7323 584.144 -328.077C556.223 -608.82 386.786 -727.996 386.786 -727.996L745.167 -727.996L745.167 1272L555.076 1272Z" fill="#283936"/>
<path opacity="0.2" d="M535.187 -727.6C535.187 -727.6 745.167 -434.059 675.939 -78.9312C623.922 187.015 420.061 444.563 535.187 702.911C622.392 898.071 672.496 920.467 633.484 1103.23C626.981 1134.02 622.774 1231.2 690.855 1271.6C711.892 1271.6 745.167 1271.6 745.167 1271.6L745.167 -728L535.187 -728L535.187 -727.6Z" fill="#151E1C"/>
</g>
</svg>
