<svg width="800" height="1024" viewBox="0 0 800 1024" fill="none" xmlns="http://www.w3.org/2000/svg">
<path d="M35.2183 0C35.2183 0 -0.819336 177.321 94.1888 421.394C189.197 665.467 -23.9572 742.456 19.8613 1023.8C152.955 1023.8 1023.79 1023.8 1023.79 1023.8V0H35.2183Z" fill="#E9FFF9"/>
<path d="M70.8463 1023.8C35.2183 935.749 90.7079 809.208 131.045 739.385C183.259 649.086 238.339 536.059 143.126 337.648C100.127 247.963 62.4512 149.269 99.9221 0C641.305 0 1023.79 0 1023.79 0V1023.8C1023.79 1023.8 340.104 1023.8 70.8463 1023.8Z" fill="#D5F7EE"/>
<path d="M135.141 0C135.141 0 226.258 196.978 231.787 355.871C246.325 765.185 72.8939 847.293 153.159 1023.8C407.88 1023.8 1023.79 1023.8 1023.79 1023.8V0H135.141Z" fill="#C2EFE7"/>
<path d="M177.731 0C177.731 0 343.176 216.635 287.481 454.156C231.787 691.676 146.607 805.522 238.339 1023.8C375.937 1023.8 1023.79 1023.8 1023.79 1023.8V0H177.731Z" fill="#AAE2D7"/>
<path d="M332.938 1023.8C332.938 1023.8 278.472 924.897 278.472 769.689C278.472 614.482 346.452 486.712 372.866 392.728C418.732 229.74 269.053 130.022 269.053 0C417.913 0 1023.79 0 1023.79 0V1023.8H332.938Z" fill="#8FD8CA"/>
<path d="M365.085 0C365.085 0 433.679 95.4177 437.57 217.659C441.46 339.9 371.637 430.608 410.951 602.811C467.874 853.026 365.085 1023.8 365.085 1023.8H1023.79V0H365.085Z" fill="#71CCBD"/>
<path d="M437.57 1023.8C437.57 1023.8 549.778 903.192 549.778 742.047C549.778 580.901 419.346 539.745 469.717 317.786C494.083 210.288 550.802 110.365 492.24 0C686.352 0 1023.79 0 1023.79 0V1023.8H437.57Z" fill="#49B7A7"/>
<path d="M544.454 0C544.454 0 638.438 275.401 592.163 468.898C544.249 668.743 580.082 745.937 607.725 834.188C642.943 947.011 557.763 1023.8 557.763 1023.8H1023.79V0H544.454Z" fill="#36AD96"/>
<path d="M657.276 1023.8C734.061 860.602 591.753 818.012 646.424 717.271C708.261 603.63 710.514 568.411 666.9 442.689C606.086 267.006 609.363 129.408 689.219 0C867.973 0 1023.79 0 1023.79 0V1023.8C1023.79 1023.8 750.032 1023.8 657.276 1023.8Z" fill="#21A38A"/>
<path d="M750.237 0C750.237 0 666.49 182.236 747.78 452.313C823.745 704.781 647.857 746.552 731.399 1023.8C923.053 1023.8 1023.79 1023.8 1023.79 1023.8V0H750.237Z" fill="#0D8E75"/>
<path d="M823.131 0C823.131 0 684.1 202.711 837.874 604.858C901.759 771.942 765.389 1023.8 765.389 1023.8H1023.79V0H823.131Z" fill="#2C664A"/>
<path d="M922.03 0C922.03 0 795.489 139.441 798.765 331.914C802.041 524.388 952.129 678.776 937.591 819.241C922.644 962.982 831.936 1024 831.936 1024H1023.79V0H922.03Z" fill="#34593F"/>
</svg>
