<svg width="862" height="1024" viewBox="0 0 862 1024" fill="none" xmlns="http://www.w3.org/2000/svg">
<path d="M38.6503 -549.918C38.6503 -549.918 -25.4434 -227.138 143.585 217.14C312.614 661.418 -66.5595 801.578 11.4107 1313.7C248.17 1313.69 1797.31 1313.62 1797.31 1313.62L1797.23 -549.992L38.6503 -549.918Z" fill="#E8FAE0"/>
<path d="M102.108 1313.69C38.7223 1153.42 137.423 923.077 209.174 795.975C302.05 631.601 400.023 425.854 230.634 64.6932C154.135 -98.556 87.1064 -278.205 153.752 -549.923C1116.82 -549.963 1797.23 -549.992 1797.23 -549.992L1797.31 1313.62C1797.31 1313.62 581.091 1313.67 102.108 1313.69Z" fill="#CEF6C2"/>
<path d="M216.402 -549.925C216.402 -549.925 378.507 -191.373 388.354 97.8589C414.247 842.93 105.737 992.405 248.535 1313.69C701.656 1313.67 1797.31 1313.62 1797.31 1313.62L1797.23 -549.992L216.402 -549.925Z" fill="#A8E69C"/>
<path d="M292.165 -549.929C292.165 -549.929 586.493 -155.601 487.436 276.761C388.379 709.124 236.862 916.364 400.061 1313.68C644.834 1313.67 1797.31 1313.62 1797.31 1313.62L1797.23 -549.992L292.165 -549.929Z" fill="#81CE7B"/>
<path d="M568.342 1313.67C568.342 1313.67 471.445 1133.65 471.433 851.127C471.422 568.604 592.341 336.02 639.322 164.938C720.9 -131.752 454.629 -313.257 454.619 -549.935C719.426 -549.947 1797.23 -549.992 1797.23 -549.992L1797.31 1313.62L568.342 1313.67Z" fill="#51AE53"/>
<path d="M625.45 -549.943C625.45 -549.943 747.48 -376.259 754.41 -153.744C761.34 68.7708 637.139 233.892 707.088 547.349C808.367 1002.81 625.529 1313.67 625.529 1313.67L1797.31 1313.62L1797.23 -549.992L625.45 -549.943Z" fill="#3B9545"/>
<path d="M754.472 1313.66C754.472 1313.66 954.069 1094.12 954.057 800.789C954.045 507.457 722.017 432.549 811.604 28.5146C854.941 -167.166 955.83 -349.059 851.647 -549.952C1196.95 -549.967 1797.23 -549.992 1797.23 -549.992L1797.31 1313.62L754.472 1313.66Z" fill="#287D39"/>
</svg>
