<svg width="250" height="100" viewBox="0 0 250 100" fill="none" xmlns="http://www.w3.org/2000/svg">
<mask id="mask0_1414_164909" style="mask-type:alpha" maskUnits="userSpaceOnUse" x="0" y="0" width="250" height="100">
<rect width="250" height="100" fill="#D9D9D9"/>
</mask>
<g mask="url(#mask0_1414_164909)">
<path d="M222.607 48.6277C221.059 45.7863 218.774 43.4366 216.003 41.8378C213.102 40.1882 209.828 39.3464 206.509 39.3967C203.161 39.3456 199.858 40.1869 196.925 41.8378C194.143 43.4256 191.852 45.7777 190.311 48.6277C188.716 51.6539 187.908 55.0476 187.963 58.4843C187.914 61.8976 188.722 65.2666 190.311 68.2692C191.852 71.1192 194.143 73.4713 196.925 75.0591C199.871 76.6619 203.157 77.5002 206.494 77.5002C209.831 77.5002 213.117 76.6619 216.063 75.0591C218.83 73.4652 221.107 71.1137 222.637 68.2692C224.234 65.2693 225.046 61.899 224.995 58.4843C225.052 55.0424 224.228 51.6449 222.607 48.6277ZM216.756 58.4843C216.79 60.4938 216.338 62.4807 215.441 64.2691C214.61 65.8981 213.348 67.2557 211.798 68.1871C210.178 69.1152 208.351 69.6025 206.494 69.6025C204.637 69.6025 202.81 69.1152 201.19 68.1871C199.635 67.248 198.364 65.8887 197.517 64.2588C196.636 62.4599 196.177 60.4757 196.177 58.4638C196.177 56.452 196.636 54.4678 197.517 52.6688C198.354 51.0265 199.622 49.6554 201.18 48.7098C202.8 47.7817 204.627 47.2943 206.484 47.2943C208.341 47.2943 210.168 47.7817 211.788 48.7098C213.334 49.6534 214.589 51.0216 215.411 52.6586C216.318 54.4593 216.779 56.4594 216.756 58.4843Z" fill="#E1EAE8"/>
<path d="M175.9 41.7533C173.18 40.1363 170.074 39.3199 166.928 39.3943C163.664 39.3524 160.447 40.1947 157.605 41.8354C154.862 43.4492 152.616 45.8155 151.122 48.6663C149.554 51.687 148.756 55.0629 148.803 58.4819C148.756 61.9156 149.604 65.3002 151.262 68.2873C152.884 71.149 155.249 73.4957 158.096 75.0669C160.578 76.4122 163.305 77.2195 166.106 77.4384C168.907 77.6572 171.722 77.2829 174.375 76.3387C176.414 75.6785 178.326 74.6617 180.025 73.3335C180.463 73.0232 180.821 72.6094 181.069 72.1273C181.317 71.6452 181.448 71.109 181.45 70.5643C181.396 69.5139 180.949 68.5249 180.202 67.8015C179.455 67.0781 178.465 66.6755 177.436 66.677C176.456 66.6614 175.5 66.987 174.726 67.6001C173.779 68.2992 172.728 68.8393 171.615 69.2001C170.44 69.622 169.206 69.8437 167.962 69.8565C165.236 69.9398 162.57 69.0351 160.435 67.3026C158.721 65.8993 157.511 63.9552 156.992 61.7743H179.914C180.928 61.7698 181.9 61.3614 182.624 60.6358C182.993 60.2796 183.285 59.848 183.48 59.3692C183.675 58.8904 183.77 58.3749 183.758 57.8563C183.817 54.5578 183.13 51.2899 181.751 48.3073C180.46 45.592 178.428 43.316 175.9 41.7533ZM156.992 54.5331C157.488 52.5468 158.558 50.7595 160.063 49.4048C161.988 47.7801 164.435 46.9463 166.928 47.0663C168.044 47.0066 169.159 47.1785 170.208 47.5716C171.257 47.9647 172.217 48.5709 173.03 49.3535C174.39 50.7761 175.309 52.5783 175.669 54.5331H156.992Z" fill="#E1EAE8"/>
<path d="M132.836 58.0166L143.735 46.0881C144.321 45.4222 144.652 44.5628 144.668 43.6675C144.655 43.0863 144.526 42.5139 144.289 41.985C144.053 41.4561 143.714 40.9817 143.293 40.5905C142.931 40.2588 142.507 40.0044 142.047 39.8423C141.587 39.6803 141.099 39.6139 140.614 39.6469C139.982 39.6148 139.351 39.7208 138.763 39.9578C138.174 40.1948 137.642 40.5574 137.202 41.0213L126.002 53.8114H122.619V43.9957C122.631 43.4257 122.529 42.8592 122.32 42.3304C122.111 41.8016 121.8 41.3214 121.405 40.9188C120.998 40.5065 120.514 40.1837 119.98 39.9702C119.447 39.7568 118.876 39.6572 118.304 39.6777C117.755 39.6553 117.207 39.7535 116.698 39.9659C116.189 40.1782 115.731 40.4996 115.353 40.9085C114.613 41.7511 114.221 42.8539 114.26 43.9855V72.94C114.219 74.0702 114.607 75.1728 115.343 76.017C115.728 76.4336 116.196 76.7602 116.716 76.9744C117.236 77.1887 117.794 77.2854 118.354 77.258C118.918 77.2692 119.478 77.1651 120.002 76.952C120.526 76.7389 121.003 76.421 121.405 76.017C121.799 75.6137 122.11 75.1334 122.318 74.6047C122.527 74.0761 122.629 73.5099 122.619 72.94V61.9654H125.309L138.125 76.017C138.522 76.4138 138.993 76.7253 139.511 76.9331C140.028 77.141 140.58 77.241 141.136 77.2273C142.231 77.2928 143.309 76.9256 144.146 76.2016C144.551 75.8519 144.879 75.4192 145.109 74.9314C145.339 74.4437 145.466 73.9119 145.481 73.3708C145.44 72.3828 145.052 71.4431 144.387 70.7246L132.836 58.0166Z" fill="#E1EAE8"/>
<path d="M99.6166 41.8378C96.7158 40.1882 93.4419 39.3464 90.1226 39.3967C86.7778 39.3455 83.4777 40.1868 80.5484 41.8378C77.7638 43.4216 75.4718 45.7747 73.9348 48.6277C72.3353 51.6521 71.5264 55.047 71.5864 58.4844C71.5326 61.8981 72.3415 65.2683 73.9348 68.2692C75.4718 71.1222 77.7638 73.4753 80.5484 75.0591C83.4924 76.6619 86.7769 77.5002 90.1126 77.5002C93.4483 77.5002 96.7328 76.6619 99.6768 75.0591C102.447 73.4668 104.728 71.1151 106.26 68.2692C107.849 65.2666 108.658 61.8976 108.609 58.4844C108.665 55.0424 107.842 51.645 106.22 48.6277C104.673 45.7863 102.387 43.4366 99.6166 41.8378ZM100.399 58.4844C100.433 60.4938 99.9818 62.4807 99.0847 64.2691C98.262 65.8977 97.0062 67.2558 95.4617 68.1871C93.8414 69.1152 92.0151 69.6026 90.1577 69.6026C88.3004 69.6026 86.4741 69.1152 84.8538 68.1871C83.3041 67.2449 82.0371 65.8861 81.1907 64.2588C80.2735 62.4806 79.8109 60.4942 79.8459 58.4844C79.8132 56.4616 80.2755 54.4626 81.1907 52.6688C82.0305 51.0287 83.2984 49.6583 84.8538 48.7098C86.4741 47.7817 88.3004 47.2944 90.1577 47.2944C92.0151 47.2944 93.8414 47.7817 95.4617 48.7098C97.0073 49.6534 98.2626 51.0216 99.0847 52.6586C99.9809 54.462 100.432 56.462 100.399 58.4844Z" fill="#E1EAE8"/>
<path d="M90.3639 36.1233C90.9071 36.1347 91.4469 36.0333 91.9506 35.8253C92.4543 35.6173 92.9114 35.3069 93.2943 34.913L99.4363 28.6359C99.8371 28.249 100.152 27.7787 100.36 27.2567C100.568 26.7347 100.663 26.1732 100.641 25.6102C100.653 24.4621 100.22 23.3556 99.4363 22.5332C99.0502 22.1161 98.5827 21.7864 98.0641 21.5656C97.5454 21.3447 96.9872 21.2376 96.4255 21.2511C95.8653 21.2419 95.3092 21.35 94.7914 21.5687C94.2736 21.7874 93.8051 22.1122 93.4148 22.523L87.1624 28.8411C86.4719 29.6388 86.112 30.6797 86.1588 31.7437C86.1433 32.3099 86.2383 32.8735 86.4382 33.4018C86.638 33.9301 86.9388 34.4124 87.323 34.8207C87.7138 35.2413 88.186 35.5744 88.7095 35.7986C89.233 36.0228 89.7964 36.1334 90.3639 36.1233Z" fill="#E1EAE8"/>
<path d="M51.3444 27.3935C51.0829 26.5222 50.5482 25.763 49.8227 25.2329C49.0973 24.7028 48.2214 24.4313 47.3301 24.4601C46.4472 24.4506 45.5839 24.7261 44.8631 25.2472C44.1423 25.7684 43.6008 26.5087 43.3157 27.3627L25.3816 70.974C25.1427 71.5632 25.0133 72.1927 25.0003 72.8304C24.9875 73.9746 25.4125 75.0787 26.1845 75.9074C26.5662 76.3338 27.0317 76.673 27.5505 76.9028C28.0693 77.1326 28.6298 77.2478 29.1953 77.2408C30.023 77.2368 30.8319 76.9874 31.5236 76.5228C32.2485 76.0312 32.8199 75.3369 33.1695 74.5228L47.4806 39.3527L61.4405 74.5125C61.7498 75.3588 62.3206 76.0789 63.0663 76.5638C63.766 77.0274 64.5809 77.2766 65.4147 77.2818C65.9749 77.2979 66.5323 77.194 67.0508 76.9768C67.5693 76.7595 68.0376 76.4336 68.4255 76.0202C68.8248 75.6203 69.1395 75.1408 69.3501 74.6115C69.5607 74.0823 69.6627 73.5144 69.6499 72.9432C69.6316 72.2942 69.4955 71.6542 69.2485 71.056L51.3444 27.3935Z" fill="#E1EAE8"/>
</g>
</svg>
