<svg width="157" height="50" viewBox="0 0 157 50" fill="none" xmlns="http://www.w3.org/2000/svg">
<g clip-path="url(#clip0_1413_103114)">
<path d="M72.1463 14.5784C72.0185 14.1639 71.7572 13.8026 71.4028 13.5504C71.0483 13.2981 70.6203 13.1689 70.1848 13.1826C69.7534 13.1781 69.3315 13.3092 68.9793 13.5572C68.6271 13.8052 68.3625 14.1574 68.2232 14.5638L59.4599 35.3156C59.3431 35.596 59.28 35.8956 59.2736 36.199C59.2673 36.7434 59.475 37.2688 59.8522 37.6631C60.0387 37.866 60.2662 38.0275 60.5197 38.1368C60.7732 38.2461 61.0471 38.3009 61.3234 38.2976C61.7279 38.2957 62.1231 38.1771 62.4611 37.956C62.8153 37.722 63.0945 37.3917 63.2654 37.0043L70.2583 20.2691L77.0797 36.9994C77.2308 37.4021 77.5097 37.7447 77.8741 37.9755C78.216 38.1961 78.6142 38.3146 79.0216 38.3171C79.2954 38.3248 79.5677 38.2754 79.8211 38.172C80.0744 38.0686 80.3033 37.9135 80.4928 37.7168C80.6879 37.5265 80.8417 37.2984 80.9446 37.0465C81.0475 36.7947 81.0973 36.5245 81.0911 36.2527C81.0821 35.9438 81.0156 35.6393 80.8949 35.3547L72.1463 14.5784Z" fill="#3B3B3B"/>
<path d="M91.213 18.7315C91.4784 18.737 91.7422 18.6887 91.9883 18.5897C92.2344 18.4908 92.4578 18.3431 92.6449 18.1556L95.6461 15.1688C95.842 14.9847 95.9959 14.7609 96.0974 14.5125C96.1989 14.2641 96.2457 13.997 96.2346 13.729C96.2408 13.1827 96.0292 12.6562 95.6461 12.2649C95.4574 12.0664 95.229 11.9096 94.9756 11.8045C94.7222 11.6994 94.4494 11.6484 94.1749 11.6548C93.9012 11.6504 93.6295 11.7019 93.3764 11.806C93.1234 11.91 92.8945 12.0646 92.7038 12.26L89.6486 15.2664C89.3112 15.646 89.1354 16.1413 89.1582 16.6476C89.1507 16.917 89.1971 17.1852 89.2947 17.4366C89.3924 17.688 89.5394 17.9175 89.7271 18.1117C89.9181 18.3119 90.1488 18.4704 90.4046 18.5771C90.6604 18.6838 90.9357 18.7364 91.213 18.7315Z" fill="#3B3B3B"/>
<path d="M95.7343 21.4497C94.3168 20.6648 92.7171 20.2642 91.0952 20.2882C89.4608 20.2638 87.8482 20.6641 86.4168 21.4497C85.0562 22.2033 83.9362 23.323 83.1852 24.6806C82.4036 26.1197 82.0083 27.7351 82.0377 29.3707C82.0114 30.9951 82.4066 32.5988 83.1852 34.0267C83.9362 35.3843 85.0562 36.504 86.4168 37.2576C87.8554 38.0203 89.4603 38.4192 91.0903 38.4192C92.7202 38.4192 94.3251 38.0203 95.7637 37.2576C97.1175 36.4999 98.2317 35.3809 98.9807 34.0267C99.7571 32.598 100.152 30.9949 100.128 29.3707C100.156 27.7329 99.7534 26.1163 98.961 24.6806C98.2048 23.3285 97.0882 22.2105 95.7343 21.4497ZM96.1168 29.3707C96.1334 30.3269 95.9128 31.2724 95.4744 32.1233C95.0724 32.8983 94.4588 33.5445 93.7041 33.9877C92.9123 34.4293 92.0199 34.6612 91.1123 34.6612C90.2047 34.6612 89.3123 34.4293 88.5206 33.9877C87.7634 33.5393 87.1443 32.8928 86.7307 32.1185C86.2825 31.2723 86.0565 30.3271 86.0736 29.3707C86.0576 28.4083 86.2835 27.457 86.7307 26.6035C87.141 25.8231 87.7606 25.171 88.5206 24.7196C89.3123 24.278 90.2047 24.0461 91.1123 24.0461C92.0199 24.0461 92.9123 24.278 93.7041 24.7196C94.4593 25.1687 95.0727 25.8197 95.4744 26.5986C95.9123 27.4568 96.1328 28.4084 96.1168 29.3707Z" fill="#3B3B3B"/>
<path d="M111.966 29.1511L117.292 23.4751C117.578 23.1583 117.74 22.7494 117.748 22.3233C117.741 22.0467 117.678 21.7744 117.563 21.5227C117.447 21.271 117.282 21.0453 117.076 20.8592C116.899 20.7013 116.692 20.5803 116.467 20.5032C116.242 20.4261 116.004 20.3944 115.767 20.4102C115.458 20.3949 115.15 20.4453 114.862 20.5581C114.575 20.6709 114.315 20.8434 114.099 21.0642L108.627 27.1501H106.974V22.4795C106.98 22.2082 106.93 21.9387 106.828 21.6871C106.726 21.4354 106.574 21.2069 106.381 21.0154C106.182 20.8192 105.945 20.6656 105.684 20.564C105.424 20.4625 105.145 20.4151 104.865 20.4248C104.597 20.4142 104.329 20.4609 104.081 20.5619C103.832 20.663 103.608 20.8159 103.424 21.0105C103.062 21.4114 102.87 21.9362 102.889 22.4746V36.2522C102.869 36.79 103.059 37.3147 103.419 37.7164C103.607 37.9146 103.835 38.07 104.089 38.172C104.343 38.2739 104.616 38.3199 104.89 38.3069C105.165 38.3122 105.439 38.2627 105.695 38.1613C105.951 38.0599 106.184 37.9086 106.381 37.7164C106.573 37.5245 106.725 37.2959 106.827 37.0444C106.929 36.7928 106.979 36.5234 106.974 36.2522V31.0301H108.288L114.551 37.7164C114.745 37.9052 114.975 38.0534 115.228 38.1523C115.48 38.2512 115.75 38.2988 116.022 38.2923C116.557 38.3235 117.084 38.1487 117.493 37.8042C117.691 37.6378 117.851 37.4319 117.963 37.1998C118.076 36.9677 118.138 36.7147 118.145 36.4572C118.125 35.9871 117.936 35.5399 117.611 35.198L111.966 29.1511Z" fill="#3B3B3B"/>
<path d="M133.009 21.4099C131.68 20.6405 130.162 20.252 128.625 20.2874C127.03 20.2675 125.458 20.6682 124.069 21.4489C122.729 22.2168 121.632 23.3428 120.901 24.6993C120.135 26.1367 119.746 27.7431 119.769 29.37C119.745 31.0038 120.16 32.6143 120.97 34.0357C121.762 35.3974 122.918 36.5141 124.31 37.2617C125.522 37.9018 126.855 38.286 128.223 38.3901C129.592 38.4943 130.967 38.3161 132.264 37.8669C133.26 37.5527 134.194 37.0689 135.025 36.4369C135.239 36.2892 135.414 36.0923 135.535 35.8629C135.656 35.6335 135.72 35.3784 135.721 35.1192C135.695 34.6194 135.476 34.1488 135.111 33.8045C134.746 33.4603 134.262 33.2688 133.759 33.2695C133.281 33.2621 132.814 33.417 132.435 33.7087C131.973 34.0414 131.459 34.2984 130.915 34.4701C130.341 34.6708 129.738 34.7763 129.13 34.7824C127.798 34.822 126.496 34.3915 125.452 33.5672C124.615 32.8994 124.023 31.9744 123.77 30.9366H134.971C135.466 30.9344 135.941 30.7401 136.295 30.3949C136.475 30.2253 136.618 30.02 136.713 29.7922C136.808 29.5643 136.855 29.319 136.849 29.0722C136.878 27.5027 136.542 25.9478 135.868 24.5285C135.237 23.2365 134.244 22.1535 133.009 21.4099ZM123.77 27.491C124.012 26.5458 124.535 25.6953 125.271 25.0507C126.211 24.2776 127.407 23.8809 128.625 23.938C129.17 23.9096 129.715 23.9914 130.228 24.1784C130.74 24.3655 131.209 24.6539 131.607 25.0263C132.271 25.7033 132.72 26.5608 132.896 27.491H123.77Z" fill="#3B3B3B"/>
<path d="M155.832 24.6806C155.076 23.3285 153.959 22.2105 152.605 21.4497C151.188 20.6648 149.588 20.2642 147.966 20.2882C146.33 20.2638 144.716 20.6641 143.283 21.4497C141.924 22.2052 140.804 23.3244 140.051 24.6806C139.272 26.1206 138.877 27.7354 138.904 29.3707C138.88 30.9949 139.275 32.598 140.051 34.0267C140.804 35.3829 141.924 36.5021 143.283 37.2576C144.722 38.0203 146.328 38.4192 147.959 38.4192C149.589 38.4192 151.195 38.0203 152.635 37.2576C153.987 36.4992 155.099 35.3802 155.847 34.0267C156.627 32.5992 157.024 30.9956 156.999 29.3707C157.027 27.7329 156.624 26.1163 155.832 24.6806ZM152.973 29.3707C152.99 30.3269 152.769 31.2724 152.331 32.1233C151.924 32.8985 151.308 33.5445 150.55 33.9877C149.759 34.4293 148.866 34.6612 147.959 34.6612C147.051 34.6612 146.159 34.4293 145.367 33.9877C144.607 33.5408 143.986 32.894 143.572 32.1184C143.141 31.2624 142.917 30.3183 142.917 29.361C142.917 28.4037 143.141 27.4595 143.572 26.6035C143.981 25.822 144.601 25.1696 145.362 24.7196C146.154 24.278 147.046 24.0461 147.954 24.0461C148.861 24.0461 149.754 24.278 150.546 24.7196C151.301 25.1686 151.914 25.8197 152.316 26.5986C152.759 27.4555 152.984 28.4072 152.973 29.3707Z" fill="#3B3B3B"/>
<path d="M24.5196 49.4298C38.0613 49.4298 49.0391 38.5045 49.0391 25.0274C49.0391 11.5503 38.0613 0.625 24.5196 0.625C10.9778 0.625 0 11.5503 0 25.0274C0 38.5045 10.9778 49.4298 24.5196 49.4298Z" fill="#98E288"/>
<path d="M30.6155 12.9334C27.3593 11.9573 21.6757 8.77034 13.8491 10.2735C5.67915 11.8499 1.61381 18.2873 0.583984 19.7124C1.23897 16.7702 2.44152 13.976 4.12951 11.4741C15.1388 1.43497 22.7987 9.10709 30.6155 12.9334Z" fill="#44993D"/>
<path d="M49.0391 25.0277C49.0363 28.5934 48.2482 32.1153 46.7305 35.3453C45.2127 38.5754 43.0022 41.4352 40.2543 43.7234C37.5064 46.0117 34.2881 47.6728 30.8257 48.5899C27.3633 49.5069 23.741 49.6577 20.2138 49.0315C16.6866 48.4054 13.3401 47.0175 10.4099 44.9656C7.47962 42.9136 5.03683 40.2475 3.2534 37.1549C1.46997 34.0622 0.389235 30.6181 0.0872509 27.065C-0.214734 23.5119 0.269371 19.9362 1.5055 16.5893C16.3594 0.171357 27.9523 15.1935 40.1336 15.1935C42.2976 15.2117 44.4503 14.8821 46.5087 14.2174C48.1787 17.5783 49.0448 21.2782 49.0391 25.0277Z" fill="#4FB749"/>
<path d="M49.0392 25.0277C49.0392 25.7012 49.0098 26.3698 48.9558 27.0336C47.9751 25.8086 44.6404 21.5674 36.1615 21.909C25.6623 22.3385 23.9018 29.1712 10.8721 27.8242C21.4204 27.5899 25.525 19.3663 34.7639 17.9363C37.588 17.5053 40.4769 17.9557 43.0332 19.2256C45.5896 20.4955 47.6878 22.5224 49.0392 25.0277Z" fill="#1D6363"/>
<path d="M48.9704 26.828C48.5108 33.0933 45.6409 38.9409 40.9583 43.1536C36.2756 47.3662 30.141 49.6193 23.8312 49.4438C17.5215 49.2684 11.5228 46.6779 7.08375 42.2117C2.64475 37.7454 0.107451 31.7475 0 25.4663C19.4979 32.5479 23.9458 21.6547 34.7589 20.6981C42.3698 20.0246 47.1168 23.7972 48.9704 26.828Z" fill="#2A838C"/>
<path d="M35.0142 42.6262C30.1985 43.2851 25.1132 41.694 19.9543 38.8341C10.7349 33.7193 5.88494 36.4621 3.62914 37.814C3.00336 36.8053 2.45423 35.7515 1.98633 34.6613C4.69819 31.5182 10.4309 28.8047 18.5272 34.305C27.4327 40.3665 30.635 42.7092 35.0142 42.6262Z" fill="#243F3C"/>
<path d="M44.6251 38.9703C42.196 42.4387 38.9032 45.2194 35.0693 47.0401C31.2353 48.8608 26.9919 49.6589 22.7548 49.3563C18.5176 49.0537 14.4322 47.6607 10.8988 45.3139C7.36538 42.967 4.50524 39.7468 2.59863 35.9688C5.59492 33.4651 11.3031 32.2987 22.0132 38.6384C32.1104 44.6122 39.9664 43.1578 44.6251 38.9703Z" fill="#325B5A"/>
</g>
<defs>
<clipPath id="clip0_1413_103114">
<rect width="157" height="50" fill="white"/>
</clipPath>
</defs>
</svg>
