<svg width="30" height="30" viewBox="0 0 30 30" fill="none" xmlns="http://www.w3.org/2000/svg">
<path d="M15 29.9847C23.2843 29.9847 30 23.2724 30 14.9924C30 6.71231 23.2843 0 15 0C6.71573 0 0 6.71231 0 14.9924C0 23.2724 6.71573 29.9847 15 29.9847Z" fill="#BADEDA"/>
<path d="M18.7392 7.56156C16.7472 6.96186 13.2702 5.00386 8.48218 5.92739C3.48419 6.8959 0.997187 10.8509 0.367188 11.7264C0.767882 9.91881 1.50355 8.20211 2.53619 6.66501C9.27118 0.497156 13.9572 5.21076 18.7392 7.56156Z" fill="#358477"/>
<path d="M30 14.9929C29.9982 17.1836 29.5162 19.3474 28.5877 21.3319C27.6592 23.3163 26.3068 25.0733 24.6258 26.4792C22.9448 27.885 20.9759 28.9056 18.8578 29.469C16.7397 30.0325 14.5237 30.1251 12.3659 29.7404C10.2081 29.3557 8.16089 28.503 6.3683 27.2423C4.57571 25.9817 3.08131 24.3437 1.99029 22.4436C0.899264 20.5435 0.238117 18.4276 0.0533763 16.2446C-0.131365 14.0617 0.164789 11.8648 0.920997 9.80851C10.008 -0.278349 17.121 8.95095 24.552 8.95095C25.8758 8.96213 27.1927 8.75963 28.452 8.35126C29.4736 10.4162 30.0034 12.6893 30 14.9929Z" fill="#49B7A7"/>
<path d="M29.9974 14.993C29.9974 15.4068 29.9794 15.8176 29.9464 16.2254C29.3464 15.4728 27.3064 12.8671 22.1194 13.077C15.6964 13.3409 14.6194 17.5387 6.64844 16.7112C13.1014 16.5672 15.6124 11.5148 21.2644 10.6363C22.9921 10.3714 24.7594 10.6482 26.3232 11.4284C27.8871 12.2085 29.1707 13.4539 29.9974 14.993Z" fill="#227567"/>
<path d="M29.958 16.0992C29.6768 19.9486 27.9211 23.5412 25.0565 26.1294C22.1919 28.7175 18.4389 30.1018 14.5789 29.994C10.7189 29.8862 7.04912 28.2947 4.33353 25.5507C1.61794 22.8067 0.0657341 19.1217 0 15.2627C11.928 19.6135 14.649 12.9209 21.264 12.3332C25.92 11.9194 28.824 14.2372 29.958 16.0992Z" fill="#0D8E75"/>
<path d="M21.4159 25.8051C18.4699 26.2099 15.3589 25.2324 12.2029 23.4753C6.56293 20.3329 3.59594 22.018 2.21594 22.8486C1.83311 22.2289 1.49718 21.5814 1.21094 20.9116C2.86994 18.9806 6.37693 17.3134 11.3299 20.6927C16.7779 24.4168 18.7369 25.8561 21.4159 25.8051Z" fill="#253F2D"/>
<path d="M27.2959 23.5594C25.8099 25.6903 23.7955 27.3987 21.4501 28.5173C19.1046 29.6359 16.5087 30.1263 13.9166 29.9403C11.3245 29.7544 8.8252 28.8986 6.66361 27.4567C4.50203 26.0149 2.75231 24.0364 1.58594 21.7153C3.41894 20.1771 6.91093 19.4605 13.4629 23.3555C19.6399 27.0256 24.4459 26.1321 27.2959 23.5594Z" fill="#34593F"/>
</svg>
