<svg width="67" height="31" viewBox="0 0 67 31" fill="none" xmlns="http://www.w3.org/2000/svg">
<path d="M8.78865 2.04808C8.70139 1.75786 8.52301 1.50498 8.281 1.32842C8.039 1.15185 7.7468 1.0614 7.44944 1.07101C7.15491 1.06785 6.86691 1.1596 6.62645 1.33319C6.386 1.50678 6.20535 1.75337 6.11023 2.03783L0.127317 16.5641C0.0475939 16.7604 0.00444858 16.9701 9.29153e-05 17.1825C-0.00415798 17.5636 0.137597 17.9313 0.39516 18.2074C0.52248 18.3494 0.677771 18.4624 0.850862 18.5389C1.02395 18.6155 1.21094 18.6538 1.39957 18.6515C1.67571 18.6502 1.94554 18.5671 2.17631 18.4123C2.41815 18.2486 2.60875 18.0174 2.72538 17.7462L7.49967 6.03153L12.1568 17.7427C12.2599 18.0246 12.4504 18.2645 12.6991 18.426C12.9326 18.5804 13.2044 18.6634 13.4826 18.6652C13.6695 18.6705 13.8554 18.6359 14.0284 18.5635C14.2014 18.4912 14.3576 18.3826 14.487 18.2449C14.6202 18.1117 14.7252 17.952 14.7954 17.7757C14.8657 17.5994 14.8997 17.4103 14.8955 17.22C14.8894 17.0038 14.8439 16.7907 14.7615 16.5914L8.78865 2.04808Z" fill="#283936"/>
<path d="M21.8065 4.95407C21.9877 4.95788 22.1678 4.92411 22.3358 4.85482C22.5039 4.78552 22.6564 4.68214 22.7841 4.55094L24.8331 2.46014C24.9669 2.33126 25.0719 2.1746 25.1412 2.00074C25.2105 1.82687 25.2425 1.63986 25.2349 1.45232C25.2392 1.0699 25.0947 0.701348 24.8331 0.427421C24.7043 0.288482 24.5484 0.178679 24.3753 0.105118C24.2023 0.0315564 24.0161 -0.00412562 23.8287 0.000379129C23.6418 -0.00269643 23.4563 0.0333022 23.2836 0.106158C23.1108 0.179013 22.9545 0.287183 22.8243 0.424005L20.7385 2.52847C20.5081 2.79418 20.3881 3.14089 20.4037 3.49529C20.3985 3.68388 20.4302 3.87163 20.4969 4.0476C20.5636 4.22356 20.6639 4.38422 20.7921 4.5202C20.9225 4.66031 21.08 4.77124 21.2546 4.84593C21.4292 4.92062 21.6172 4.95745 21.8065 4.95407Z" fill="#283936"/>
<path d="M24.8911 6.85679C23.9234 6.30734 22.8312 6.02695 21.7239 6.04371C20.608 6.02662 19.5071 6.30688 18.5299 6.85679C17.6009 7.38433 16.8363 8.16811 16.3235 9.11841C15.7899 10.1258 15.5201 11.2566 15.5401 12.4015C15.5222 13.5386 15.792 14.6612 16.3235 15.6607C16.8363 16.611 17.6009 17.3948 18.5299 17.9223C19.512 18.4562 20.6078 18.7354 21.7206 18.7354C22.8334 18.7354 23.9291 18.4562 24.9112 17.9223C25.8355 17.3919 26.5962 16.6086 27.1075 15.6607C27.6376 14.6606 27.9074 13.5384 27.891 12.4015C27.9098 11.255 27.6351 10.1234 27.0941 9.11841C26.5778 8.17196 25.8155 7.38934 24.8911 6.85679ZM25.1523 12.4015C25.1636 13.0708 25.013 13.7326 24.7137 14.3283C24.4393 14.8708 24.0203 15.3231 23.5051 15.6334C22.9645 15.9425 22.3553 16.1048 21.7356 16.1048C21.116 16.1048 20.5067 15.9425 19.9662 15.6334C19.4492 15.3195 19.0265 14.8669 18.7442 14.3249C18.4382 13.7326 18.2839 13.071 18.2955 12.4015C18.2846 11.7278 18.4388 11.0619 18.7442 10.4644C19.0243 9.91814 19.4473 9.4617 19.9662 9.14574C20.5067 8.83662 21.116 8.67429 21.7356 8.67429C22.3553 8.67429 22.9645 8.83662 23.5051 9.14574C24.0207 9.46005 24.4394 9.91578 24.7137 10.461C25.0127 11.0617 25.1632 11.7279 25.1523 12.4015Z" fill="#283936"/>
<path d="M35.9731 12.2464L39.609 8.27321C39.8045 8.05141 39.915 7.76517 39.9204 7.46696C39.9159 7.27335 39.8729 7.08269 39.794 6.90652C39.7152 6.73035 39.6021 6.57234 39.4617 6.44205C39.3408 6.33154 39.1994 6.24681 39.0459 6.19284C38.8923 6.13886 38.7298 6.11674 38.5678 6.12775C38.3571 6.11705 38.1465 6.15234 37.9502 6.23129C37.7539 6.31023 37.5764 6.43101 37.4295 6.58554L33.6931 10.8457H32.5648V7.57628C32.5685 7.38639 32.5346 7.1977 32.4649 7.02156C32.3953 6.84542 32.2915 6.68549 32.1597 6.55138C32.024 6.41406 31.8623 6.30654 31.6843 6.23544C31.5064 6.16435 31.3161 6.13119 31.1251 6.138C30.9419 6.13053 30.7592 6.16326 30.5894 6.23398C30.4196 6.30471 30.2666 6.41177 30.1408 6.54796C29.8939 6.82861 29.7631 7.19594 29.7759 7.57286V17.2172C29.7622 17.5936 29.8918 17.9609 30.1375 18.2421C30.2658 18.3808 30.4219 18.4896 30.5953 18.561C30.7687 18.6324 30.9551 18.6646 31.1419 18.6555C31.33 18.6592 31.5169 18.6245 31.6916 18.5535C31.8664 18.4825 32.0255 18.3767 32.1597 18.2421C32.2912 18.1077 32.3948 17.9478 32.4644 17.7717C32.534 17.5956 32.5681 17.407 32.5648 17.2172V13.5617H33.4621L37.7375 18.2421C37.8701 18.3743 38.0273 18.478 38.1998 18.5472C38.3723 18.6165 38.5566 18.6498 38.7419 18.6452C39.1073 18.6671 39.4669 18.5447 39.7463 18.3036C39.8812 18.1871 39.9906 18.043 40.0673 17.8805C40.1441 17.718 40.1864 17.5409 40.1916 17.3607C40.178 17.0316 40.0484 16.7186 39.8267 16.4793L35.9731 12.2464Z" fill="#283936"/>
<path d="M50.3411 6.83028C49.4335 6.29168 48.3976 6.01973 47.348 6.04452C46.259 6.03058 45.1859 6.31111 44.2377 6.85761C43.3227 7.39515 42.5735 8.18332 42.0748 9.13289C41.5518 10.139 41.2858 11.2635 41.3014 12.4023C41.2856 13.546 41.5687 14.6734 42.1217 15.6683C42.6627 16.6216 43.4518 17.4032 44.4017 17.9265C45.2296 18.3746 46.1392 18.6436 47.0736 18.7164C48.0081 18.7893 48.9472 18.6646 49.8322 18.3502C50.5125 18.1302 51.1503 17.7916 51.7171 17.3492C51.8633 17.2458 51.9828 17.108 52.0656 16.9474C52.1483 16.7868 52.1919 16.6082 52.1926 16.4268C52.1745 16.0769 52.0255 15.7475 51.7763 15.5065C51.5271 15.2656 51.1967 15.1315 50.8533 15.132C50.5266 15.1268 50.2078 15.2352 49.9494 15.4395C49.6334 15.6723 49.283 15.8522 48.9115 15.9724C48.5197 16.1129 48.108 16.1868 47.6928 16.191C46.7837 16.2188 45.8942 15.9174 45.1818 15.3404C44.6101 14.8729 44.2063 14.2254 44.0334 13.499H51.6803C52.0185 13.4975 52.3428 13.3614 52.5843 13.1198C52.7074 13.0011 52.8047 12.8574 52.8698 12.6979C52.935 12.5384 52.9666 12.3667 52.9626 12.1939C52.9823 11.0953 52.7532 10.0068 52.293 9.01332C51.8622 8.10888 51.1843 7.35078 50.3411 6.83028ZM44.0334 11.087C44.1987 10.4254 44.5557 9.83009 45.0579 9.37887C45.6998 8.83769 46.5163 8.55998 47.348 8.59995C47.7201 8.58006 48.0923 8.63732 48.4422 8.76825C48.792 8.89919 49.1123 9.1011 49.3836 9.36179C49.8374 9.83564 50.1438 10.4359 50.2641 11.087H44.0334Z" fill="#283936"/>
<path d="M65.9228 9.11841C65.4065 8.17196 64.6441 7.38934 63.7198 6.85679C62.752 6.30733 61.6598 6.02695 60.5525 6.0437C59.4356 6.02665 58.3336 6.30689 57.3552 6.85679C56.4272 7.38565 55.6629 8.16911 55.1488 9.11841C54.6168 10.1264 54.347 11.2568 54.3654 12.4015C54.349 13.5384 54.6187 14.6606 55.1488 15.6607C55.6629 16.61 56.4272 17.3934 57.3552 17.9223C58.3379 18.4562 59.4342 18.7354 60.5475 18.7354C61.6608 18.7354 62.7571 18.4562 63.7398 17.9223C64.6629 17.3914 65.4224 16.6082 65.9328 15.6607C66.4655 14.6615 66.7365 13.5389 66.7196 12.4015C66.7384 11.255 66.4637 10.1234 65.9228 9.11841ZM63.9709 12.4015C63.9822 13.0708 63.8316 13.7326 63.5323 14.3283C63.255 14.8709 62.8339 15.3231 62.3169 15.6334C61.7764 15.9425 61.1671 16.1048 60.5475 16.1048C59.9279 16.1048 59.3186 15.9425 58.7781 15.6334C58.2594 15.3205 57.8354 14.8678 57.5527 14.3249C57.2587 13.7257 57.1056 13.0648 57.1056 12.3947C57.1056 11.7246 57.2587 11.0637 57.5527 10.4644C57.8318 9.9174 58.2551 9.4607 58.7747 9.14574C59.3153 8.83662 59.9245 8.67428 60.5442 8.67428C61.1638 8.67428 61.7731 8.83662 62.3136 9.14574C62.8292 9.46005 63.248 9.91577 63.5222 10.461C63.8247 11.0608 63.9787 11.727 63.9709 12.4015Z" fill="#283936"/>
<path d="M4.50154 23.5125C5.07097 23.8378 5.53957 24.3173 5.85477 24.8971C6.17433 25.5204 6.34113 26.2122 6.34113 26.9144C6.34113 27.6165 6.17433 28.3084 5.85477 28.9317C5.54179 29.5141 5.07274 29.9954 4.50154 30.3202C3.89392 30.661 3.20814 30.8335 2.51351 30.8202H0.726951C0.659278 30.8212 0.592085 30.8085 0.529362 30.7827C0.466639 30.757 0.409664 30.7188 0.361807 30.6704C0.31395 30.622 0.276189 30.5643 0.250763 30.5008C0.225337 30.4374 0.212764 30.3694 0.21379 30.3009V23.5317C0.20951 23.4605 0.220547 23.3893 0.246143 23.3229C0.271739 23.2565 0.311279 23.1965 0.362033 23.1471C0.41152 23.0968 0.47101 23.0578 0.536549 23.0326C0.602087 23.0074 0.672172 22.9966 0.742153 23.0009H2.52872C3.21924 22.9938 3.8995 23.1702 4.50154 23.5125ZM3.98457 29.5202C4.4124 29.2693 4.76157 28.9013 4.99189 28.4586C5.22635 27.9805 5.34835 27.4539 5.34835 26.9202C5.34835 26.3864 5.22635 25.8598 4.99189 25.3817C4.7595 24.9415 4.41074 24.5753 3.98457 24.324C3.53706 24.0649 3.02904 23.9321 2.51351 23.9394H1.24011V29.9009H2.51351C3.02869 29.9094 3.53669 29.7779 3.98457 29.5202Z" fill="#283936"/>
<path d="M11.6724 25.6773C12.0799 25.9172 12.417 26.2623 12.6494 26.6773C12.8935 27.1076 13.0183 27.5966 13.0105 28.0927V30.3197C13.0135 30.3875 13.0021 30.4551 12.9772 30.5181C12.9523 30.5811 12.9144 30.638 12.866 30.685C12.7951 30.7567 12.7047 30.8055 12.6063 30.8251C12.5079 30.8447 12.406 30.8342 12.3135 30.795C12.221 30.7559 12.1421 30.6898 12.0869 30.6051C12.0316 30.5205 12.0025 30.4211 12.0032 30.3197V29.935C11.7771 30.2199 11.4898 30.4488 11.1631 30.6043C10.83 30.7666 10.4646 30.8495 10.095 30.8466C9.64012 30.853 9.19299 30.7275 8.80635 30.485C8.41878 30.2455 8.10433 29.902 7.89786 29.4927C7.67471 29.0555 7.56114 28.5694 7.56715 28.0773C7.56048 27.5824 7.68239 27.0943 7.92067 26.662C8.1533 26.2446 8.49358 25.899 8.90518 25.662C9.32497 25.4096 9.80434 25.2768 10.2926 25.2773C10.7801 25.2803 11.2574 25.4186 11.6724 25.6773ZM11.1859 29.7158C11.4534 29.5562 11.6719 29.3245 11.8169 29.0466C11.9684 28.7523 12.0455 28.4245 12.0412 28.0927C12.045 27.7585 11.968 27.4284 11.8169 27.1312C11.672 26.8522 11.4536 26.6193 11.1859 26.4581C10.9152 26.2968 10.6068 26.2117 10.2926 26.2117C9.97845 26.2117 9.67002 26.2968 9.39933 26.4581C9.13229 26.6213 8.91315 26.8537 8.76453 27.1312C8.60915 27.4271 8.52944 27.7577 8.53266 28.0927C8.52908 28.4254 8.60886 28.7536 8.76453 29.0466C8.91324 29.323 9.13244 29.5541 9.39933 29.7158C9.67002 29.8771 9.97845 29.9622 10.2926 29.9622C10.6068 29.9622 10.9152 29.8771 11.1859 29.7158Z" fill="#283936"/>
<path d="M17.1218 29.9633C17.2077 30.0616 17.2527 30.1898 17.2472 30.321C17.2497 30.39 17.2363 30.4586 17.2079 30.5214C17.1795 30.5842 17.137 30.6393 17.0838 30.6825C16.9653 30.7779 16.8169 30.8271 16.6656 30.821H16.487C16.1738 30.824 15.8664 30.7359 15.6013 30.5671C15.3338 30.3968 15.117 30.1562 14.9741 29.871C14.819 29.5654 14.7407 29.2259 14.746 28.8825V26.4133H14.2899C14.1657 26.4244 14.042 26.3873 13.944 26.3094C13.9019 26.2721 13.8686 26.2259 13.8462 26.174C13.8239 26.1222 13.8131 26.066 13.8147 26.0094C13.8126 25.9494 13.823 25.8896 13.8453 25.8339C13.8675 25.7783 13.9012 25.728 13.944 25.6864C14.0369 25.6058 14.1562 25.5633 14.2785 25.5671H14.7346V24.1133C14.7346 23.9807 14.7867 23.8535 14.8793 23.7597C14.972 23.666 15.0977 23.6133 15.2288 23.6133C15.3598 23.6133 15.4855 23.666 15.5782 23.7597C15.6709 23.8535 15.7229 23.9807 15.7229 24.1133V25.5402H16.563C16.6855 25.5352 16.8052 25.5778 16.8975 25.6594C16.9409 25.7006 16.9749 25.7508 16.9972 25.8066C17.0195 25.8624 17.0296 25.9224 17.0267 25.9825C17.0283 26.0391 17.0176 26.0953 16.9952 26.1471C16.9729 26.199 16.9395 26.2452 16.8975 26.2825C16.8052 26.3641 16.6855 26.4068 16.563 26.4017H15.7229V28.871C15.7153 29.1129 15.792 29.3498 15.9396 29.5402C16.0017 29.6245 16.0826 29.6929 16.1758 29.7397C16.2689 29.7864 16.3716 29.8103 16.4756 29.8094H16.8101C16.8704 29.8082 16.9301 29.8215 16.9843 29.8483C17.0385 29.875 17.0856 29.9145 17.1218 29.9633Z" fill="#283936"/>
<path d="M22.3077 25.6774C22.7166 25.9167 23.0551 26.2619 23.2885 26.6774C23.5309 27.1083 23.6556 27.5969 23.6496 28.0927V30.3197C23.6516 30.3873 23.6399 30.4547 23.615 30.5176C23.5901 30.5805 23.5527 30.6375 23.5051 30.685C23.4077 30.7786 23.2784 30.8308 23.144 30.8308C23.0096 30.8308 22.8804 30.7786 22.7829 30.685C22.7353 30.6375 22.6979 30.5805 22.673 30.5176C22.6482 30.4547 22.6364 30.3873 22.6385 30.3197V29.935C22.4132 30.2207 22.1257 30.4497 21.7984 30.6043C21.4262 30.7822 21.0164 30.8643 20.6053 30.8435C20.1941 30.8227 19.7945 30.6996 19.4417 30.485C19.055 30.2444 18.7408 29.9012 18.5332 29.4927C18.31 29.0555 18.1964 28.5694 18.2025 28.0774C18.1951 27.5818 18.3185 27.0932 18.5598 26.662C18.7898 26.2439 19.1291 25.8979 19.5405 25.662C19.9615 25.4092 20.4422 25.2763 20.9317 25.2774C21.4179 25.281 21.8938 25.4193 22.3077 25.6774ZM21.825 29.7158C22.0905 29.5549 22.3074 29.3234 22.4522 29.0466C22.6067 28.7533 22.6852 28.4251 22.6803 28.0927C22.6847 27.758 22.6063 27.4275 22.4522 27.1312C22.3075 26.8533 22.0907 26.6206 21.825 26.4581C21.5536 26.2968 21.2446 26.2118 20.9298 26.2118C20.6151 26.2118 20.306 26.2968 20.0346 26.4581C19.7686 26.6214 19.5508 26.8538 19.4036 27.1312C19.2465 27.4264 19.1667 27.7575 19.1718 28.0927C19.1661 28.4256 19.246 28.7543 19.4036 29.0466C19.5489 29.3218 19.7641 29.5528 20.027 29.7158C20.2984 29.8771 20.6075 29.9621 20.9222 29.9621C21.237 29.9621 21.546 29.8771 21.8174 29.7158H21.825Z" fill="#283936"/>
</svg>
