<svg width="16" height="16" viewBox="0 0 16 16" fill="none" xmlns="http://www.w3.org/2000/svg">
<path d="M7.99992 15.992C12.4182 15.992 15.9998 12.4121 15.9998 7.99599C15.9998 3.57993 12.4182 0 7.99992 0C3.58169 0 0 3.57993 0 7.99599C0 12.4121 3.58169 15.992 7.99992 15.992Z" fill="#98E288"/>
<path d="M9.9858 4.03389C8.92341 3.71405 7.06903 2.66977 4.51546 3.16233C1.84988 3.67887 0.523497 5.78821 0.1875 6.25518C0.401202 5.2911 0.793553 4.37552 1.34429 3.55573C4.93625 0.266179 7.43543 2.78012 9.9858 4.03389Z" fill="#44993D"/>
<path d="M15.9998 7.99936C15.9989 9.16777 15.7418 10.3218 15.2466 11.3802C14.7514 12.4386 14.0302 13.3756 13.1336 14.1254C12.2371 14.8752 11.1871 15.4195 10.0574 15.72C8.92774 16.0205 7.74592 16.0699 6.5951 15.8648C5.44428 15.6596 4.35243 15.2048 3.39639 14.5325C2.44035 13.8601 1.64335 12.9865 1.06148 11.9731C0.479603 10.9597 0.126995 9.83121 0.0284671 8.66696C-0.0700605 7.50271 0.0878868 6.33102 0.491194 5.23435C5.33754 -0.14535 9.11991 4.77698 13.0943 4.77698C13.8003 4.78294 14.5027 4.67494 15.1742 4.45714C15.7191 5.55843 16.0017 6.77078 15.9998 7.99936Z" fill="#4FB749"/>
<path d="M15.9995 7.99292C15.9995 8.21361 15.99 8.4327 15.9724 8.65019C15.6524 8.24879 14.5644 6.85909 11.798 6.97103C8.37243 7.11176 7.79803 9.35064 3.54688 8.90926C6.98844 8.8325 8.32763 6.13785 11.342 5.66928C12.2634 5.52805 13.2059 5.67564 14.04 6.09174C14.874 6.50785 15.5586 7.17202 15.9995 7.99292Z" fill="#1D6363"/>
<path d="M15.9774 8.58914C15.8275 10.6421 14.8911 12.5582 13.3633 13.9386C11.8355 15.3189 9.834 16.0572 7.77534 15.9997C5.71667 15.9422 3.75949 15.0934 2.31119 13.63C0.862895 12.1665 0.0350578 10.2011 0 8.14297C6.36154 10.4634 7.81272 6.894 11.3407 6.58055C13.8239 6.35986 15.3726 7.59604 15.9774 8.58914Z" fill="#2A838C"/>
<path d="M11.4243 13.7622C9.85314 13.9781 8.19396 13.4568 6.51078 12.5196C3.50281 10.8437 1.92042 11.7424 1.18443 12.1854C0.980261 11.8549 0.801097 11.5096 0.648438 11.1523C1.53323 10.1224 3.40361 9.23329 6.04518 11.0356C8.95075 13.0218 9.99554 13.7894 11.4243 13.7622Z" fill="#243F3C"/>
<path d="M14.5634 12.5627C13.7709 13.6991 12.6965 14.6103 11.4457 15.2069C10.1948 15.8035 8.81028 16.065 7.42785 15.9659C6.04541 15.8667 4.71247 15.4103 3.55963 14.6413C2.4068 13.8723 1.47362 12.8171 0.851562 11.5792C1.82915 10.7588 3.69153 10.3766 7.1859 12.4539C10.4803 14.4113 13.0434 13.9348 14.5634 12.5627Z" fill="#325B5A"/>
</svg>
