<svg width="20" height="20" viewBox="0 0 20 20" fill="none" xmlns="http://www.w3.org/2000/svg">
<path d="M7.36855 1.66699C6.97538 1.66698 6.63128 1.66696 6.3469 1.6902C6.04524 1.71485 5.73814 1.76973 5.44065 1.92131C5.00161 2.14502 4.64465 2.50197 4.42095 2.94102C4.26937 3.23851 4.21448 3.54561 4.18983 3.84727C4.1666 4.13165 4.16661 4.47571 4.16663 4.86888L4.16663 5.83366H5.8333V4.90033C5.8333 4.46654 5.83394 4.19131 5.85096 3.98299C5.86719 3.7844 5.89405 3.72105 5.90596 3.69767C5.96987 3.57223 6.07186 3.47024 6.1973 3.40632C6.22068 3.39441 6.28403 3.36756 6.48262 3.35133C6.69095 3.33431 6.96617 3.33366 7.39996 3.33366H12.6C13.0338 3.33366 13.309 3.33431 13.5173 3.35133C13.7159 3.36756 13.7792 3.39441 13.8026 3.40632C13.9281 3.47024 14.0301 3.57223 14.094 3.69767C14.1059 3.72105 14.1327 3.7844 14.149 3.98299C14.166 4.19131 14.1666 4.46654 14.1666 4.90033V5.83366H15.8333L15.8333 4.8689C15.8333 4.47576 15.8333 4.13163 15.8101 3.84727C15.7854 3.54561 15.7306 3.23851 15.579 2.94102C15.3553 2.50197 14.9983 2.14502 14.5593 1.92131C14.2618 1.76973 13.9547 1.71485 13.653 1.6902C13.3686 1.66696 13.0246 1.66698 12.6314 1.66699H7.36855Z" fill="white"/>
<path d="M8.33335 10.8337C7.87312 10.8337 7.50002 11.2068 7.50002 11.667C7.50002 12.1272 7.87312 12.5003 8.33335 12.5003H10.8334C11.2936 12.5003 11.6667 12.1272 11.6667 11.667C11.6667 11.2068 11.2936 10.8337 10.8334 10.8337H8.33335Z" fill="white"/>
<path d="M8.33335 13.3337C7.87312 13.3337 7.50002 13.7068 7.50002 14.167C7.50002 14.6272 7.87312 15.0003 8.33335 15.0003L12.0834 15.0003C12.5436 15.0003 12.9167 14.6272 12.9167 14.167C12.9167 13.7068 12.5436 13.3337 12.0834 13.3337H8.33335Z" fill="white"/>
<path fill-rule="evenodd" clip-rule="evenodd" d="M4.16666 16.9482L4.16669 16.9222L4.16668 9.955C4.16661 9.60161 4.16654 9.25817 4.20463 8.97491C4.24756 8.65557 4.35216 8.29118 4.65484 7.9885C4.95752 7.68582 5.32192 7.58121 5.64125 7.53828C5.92451 7.5002 6.26796 7.50027 6.62134 7.50033L13.3787 7.50033C13.7321 7.50027 14.0755 7.5002 14.3588 7.53828C14.6781 7.58121 15.0425 7.68582 15.3452 7.9885C15.6479 8.29118 15.7525 8.65557 15.7954 8.97491C15.8335 9.25816 15.8334 9.60159 15.8334 9.95497L15.8334 16.9222L15.8334 16.9482C15.8335 17.0541 15.8338 17.2109 15.8137 17.3477C15.7891 17.5156 15.7108 17.8329 15.4008 18.0563C15.0907 18.2798 14.765 18.2538 14.5979 18.224C14.4618 18.1998 14.3131 18.15 14.2127 18.1163L14.1881 18.1081L12.5 17.5454L10.3953 18.247L10.39 18.2489C10.356 18.2612 10.1864 18.3224 10 18.3224C9.81361 18.3224 9.64403 18.2612 9.61001 18.2489L9.60474 18.247L7.50002 17.5454L5.81197 18.1081L5.78734 18.1163C5.68691 18.15 5.53824 18.1998 5.40211 18.224C5.23507 18.2538 4.90935 18.2798 4.59928 18.0563C4.28921 17.8329 4.21094 17.5156 4.18632 17.3477C4.16626 17.2109 4.1665 17.0541 4.16666 16.9482ZM5.83335 16.3442L7.10474 15.9204L7.11002 15.9185C7.14403 15.9062 7.31361 15.8449 7.50002 15.8449C7.68643 15.8449 7.85601 15.9062 7.89002 15.9185L7.8953 15.9204L10 16.6219L12.1047 15.9204L12.11 15.9185C12.144 15.9062 12.3136 15.8449 12.5 15.8449C12.6864 15.8449 12.856 15.9062 12.89 15.9185L12.8953 15.9204L14.1667 16.3442L14.1667 10.0003C14.1667 9.58394 14.1649 9.35548 14.1436 9.19699L14.1428 9.19092L14.1367 9.19009C13.9782 9.16878 13.7497 9.16701 13.3334 9.16701L6.66669 9.16701C6.25029 9.16701 6.02183 9.16878 5.86333 9.19009L5.85726 9.19092L5.85643 9.19699C5.83512 9.35548 5.83335 9.58395 5.83335 10.0003L5.83335 16.3442Z" fill="white"/>
<path d="M15.2941 11.6663H15.5556C16.4444 11.6663 16.8889 11.6663 17.1756 11.4036C17.197 11.384 17.2176 11.3634 17.2373 11.3419C17.5 11.0552 17.5 10.6108 17.5 9.7219V9.7219C17.5 7.94413 17.5 7.05525 16.9746 6.48183C16.9352 6.43893 16.8941 6.39776 16.8512 6.35845C16.2778 5.83301 15.3889 5.83301 13.6111 5.83301H6.5C4.61438 5.83301 3.67157 5.83301 3.08579 6.41879C2.5 7.00458 2.5 7.94739 2.5 9.83301V10.6663C2.5 11.1377 2.5 11.3734 2.64645 11.5199C2.79289 11.6663 3.0286 11.6663 3.5 11.6663H4.70588" stroke="white"/>
</svg>
