<svg width="20" height="21" viewBox="0 0 20 21" fill="none" xmlns="http://www.w3.org/2000/svg">
<path fill-rule="evenodd" clip-rule="evenodd" d="M1.66406 17.9998C1.66406 17.5396 2.03716 17.1665 2.4974 17.1665H17.4974C17.9576 17.1665 18.3307 17.5396 18.3307 17.9998C18.3307 18.4601 17.9576 18.8332 17.4974 18.8332H2.4974C2.03716 18.8332 1.66406 18.4601 1.66406 17.9998Z" fill="#4E6262"/>
<path fill-rule="evenodd" clip-rule="evenodd" d="M3.33333 11.3335C3.79357 11.3335 4.16667 11.7066 4.16667 12.1668V13.8335C4.16667 14.2937 3.79357 14.6668 3.33333 14.6668C2.8731 14.6668 2.5 14.2937 2.5 13.8335V12.1668C2.5 11.7066 2.8731 11.3335 3.33333 11.3335Z" fill="#4E6262"/>
<path fill-rule="evenodd" clip-rule="evenodd" d="M9.9974 7.1665C10.4576 7.1665 10.8307 7.5396 10.8307 7.99984V10.4998C10.8307 10.9601 10.4576 11.3332 9.9974 11.3332C9.53716 11.3332 9.16406 10.9601 9.16406 10.4998V7.99984C9.16406 7.5396 9.53716 7.1665 9.9974 7.1665Z" fill="#4E6262"/>
<path fill-rule="evenodd" clip-rule="evenodd" d="M6.66927 8C7.12951 8 7.5026 8.3731 7.5026 8.83333V13.8333C7.5026 14.2936 7.12951 14.6667 6.66927 14.6667C6.20903 14.6667 5.83594 14.2936 5.83594 13.8333V8.83333C5.83594 8.3731 6.20903 8 6.66927 8Z" fill="#4E6262"/>
<path fill-rule="evenodd" clip-rule="evenodd" d="M13.3333 8.8335C13.7936 8.8335 14.1667 9.20659 14.1667 9.66683V11.3335C14.1667 11.7937 13.7936 12.1668 13.3333 12.1668C12.8731 12.1668 12.5 11.7937 12.5 11.3335V9.66683C12.5 9.20659 12.8731 8.8335 13.3333 8.8335Z" fill="#4E6262"/>
<path fill-rule="evenodd" clip-rule="evenodd" d="M16.6693 3.8335C17.1295 3.8335 17.5026 4.20659 17.5026 4.66683V13.0002C17.5026 13.4604 17.1295 13.8335 16.6693 13.8335C16.209 13.8335 15.8359 13.4604 15.8359 13.0002V4.66683C15.8359 4.20659 16.209 3.8335 16.6693 3.8335Z" fill="#4E6262"/>
</svg>
