<svg width="20" height="21" viewBox="0 0 20 21" fill="none" xmlns="http://www.w3.org/2000/svg">
<path fill-rule="evenodd" clip-rule="evenodd" d="M6.61181 4.66651C6.63004 4.66651 6.64832 4.66651 6.66667 4.66651L13.3882 4.66651C14.1269 4.66646 14.7634 4.66643 15.2732 4.73496C15.8194 4.8084 16.3431 4.97402 16.7678 5.39874C17.1925 5.82346 17.3581 6.34708 17.4316 6.89335C17.5001 7.40307 17.5 8.03959 17.5 8.77834V12.2213C17.5 12.9601 17.5001 13.5966 17.4316 14.1063C17.3581 14.6526 17.1925 15.1762 16.7678 15.6009C16.3431 16.0257 15.8194 16.1913 15.2732 16.2647C14.7634 16.3333 14.1269 16.3332 13.3882 16.3332H6.61181C5.87307 16.3332 5.23656 16.3333 4.72684 16.2647C4.18058 16.1913 3.65696 16.0257 3.23224 15.6009C2.80752 15.1762 2.6419 14.6526 2.56845 14.1063C2.49992 13.5966 2.49996 12.9601 2.5 12.2214L2.5 8.83317C2.5 8.81483 2.5 8.79654 2.5 8.77832C2.49996 8.03958 2.49992 7.40307 2.56845 6.89335C2.6419 6.34709 2.80752 5.82346 3.23224 5.39874C3.65696 4.97402 4.18058 4.8084 4.72684 4.73496C5.23656 4.66643 5.87307 4.66646 6.61181 4.66651ZM4.94892 6.38676C4.58747 6.43536 4.47419 6.51382 4.41075 6.57725C4.34731 6.64069 4.26885 6.75398 4.22026 7.11543C4.16844 7.50085 4.16667 8.02394 4.16667 8.83317V12.1665C4.16667 12.9757 4.16844 13.4988 4.22026 13.8843C4.26885 14.2457 4.34731 14.359 4.41075 14.4224C4.47419 14.4859 4.58747 14.5643 4.94892 14.6129C5.33435 14.6647 5.85744 14.6665 6.66667 14.6665H13.3333C14.1426 14.6665 14.6657 14.6647 15.0511 14.6129C15.4125 14.5643 15.5258 14.4859 15.5893 14.4224C15.6527 14.359 15.7312 14.2457 15.7797 13.8843C15.8316 13.4988 15.8333 12.9757 15.8333 12.1665V8.83317C15.8333 8.02394 15.8316 7.50085 15.7797 7.11543C15.7312 6.75398 15.6527 6.64069 15.5893 6.57725C15.5258 6.51382 15.4125 6.43536 15.0511 6.38676C14.6657 6.33494 14.1426 6.33317 13.3333 6.33317H6.66667C5.85744 6.33317 5.33435 6.33494 4.94892 6.38676Z" fill="#4E6262"/>
<path fill-rule="evenodd" clip-rule="evenodd" d="M8.88197 11.7059L2.96066 8.7452L3.70602 7.25449L9.62733 10.2151C9.86193 10.3324 10.1381 10.3324 10.3727 10.2151L16.294 7.25449L17.0393 8.7452L11.118 11.7059C10.4142 12.0578 9.58579 12.0578 8.88197 11.7059Z" fill="#4E6262"/>
</svg>
