<svg width="20" height="21" viewBox="0 0 20 21" fill="none" xmlns="http://www.w3.org/2000/svg">
<path fill-rule="evenodd" clip-rule="evenodd" d="M11.6641 7.16668H18.3307V15.5C18.3307 15.5151 18.3307 15.5303 18.3307 15.5454C18.3308 15.8987 18.3309 16.2422 18.2928 16.5254C18.2499 16.8448 18.1453 17.2092 17.8426 17.5119C17.5399 17.8145 17.1755 17.9191 16.8562 17.9621C16.5729 18.0002 16.2295 18.0001 15.8761 18C15.861 18 15.8459 18 15.8307 18H11.6641V7.16668ZM13.3307 8.83334V16.3333H15.8307C16.2471 16.3333 16.4756 16.3316 16.6341 16.3103C16.6362 16.31 16.6382 16.3097 16.6402 16.3094C16.6404 16.3075 16.6407 16.3054 16.641 16.3034C16.6623 16.1449 16.6641 15.9164 16.6641 15.5V8.83334H13.3307Z" fill="#4E6262"/>
<path fill-rule="evenodd" clip-rule="evenodd" d="M1.66407 7.16668H8.33074V18H4.16407C4.14894 18 4.13383 18 4.11873 18C3.76534 18.0001 3.4219 18.0002 3.13864 17.9621C2.81931 17.9191 2.45491 17.8145 2.15223 17.5119C1.84955 17.2092 1.74495 16.8448 1.70202 16.5254C1.66393 16.2422 1.664 15.8987 1.66407 15.5454C1.66407 15.5303 1.66407 15.5151 1.66407 15.5V7.16668ZM3.33074 8.83334V15.5C3.33074 15.9164 3.33251 16.1449 3.35382 16.3034C3.3541 16.3054 3.35437 16.3075 3.35465 16.3094C3.35663 16.3097 3.35866 16.31 3.36072 16.3103C3.51921 16.3316 3.74768 16.3333 4.16407 16.3333H6.66407V8.83334H3.33074Z" fill="#4E6262"/>
<path fill-rule="evenodd" clip-rule="evenodd" d="M6.66407 7.16668H13.3307V18H6.66407V7.16668ZM8.33074 8.83334V16.3333H11.6641V8.83334H8.33074Z" fill="#4E6262"/>
<path fill-rule="evenodd" clip-rule="evenodd" d="M4.11873 3.00001C4.13383 3.00001 4.14895 3.00001 4.16407 3.00001H15.8307C15.8459 3.00001 15.861 3.00001 15.8761 3.00001C16.2295 2.99994 16.5729 2.99987 16.8562 3.03795C17.1755 3.08089 17.5399 3.18549 17.8426 3.48817C18.1453 3.79085 18.2499 4.15524 18.2928 4.47458C18.3309 4.75785 18.3308 5.10129 18.3307 5.45469C18.3307 5.46978 18.3307 5.48489 18.3307 5.50001V8.83334H1.66407V5.50001C1.66407 5.48488 1.66407 5.46977 1.66407 5.45467C1.664 5.10128 1.66393 4.75784 1.70202 4.47458C1.74495 4.15524 1.84955 3.79085 2.15223 3.48817C2.45491 3.18549 2.81931 3.08089 3.13864 3.03795C3.4219 2.99987 3.76534 2.99994 4.11873 3.00001ZM3.35465 4.69059C3.35438 4.69257 3.3541 4.69459 3.35382 4.69666C3.33251 4.85515 3.33074 5.08362 3.33074 5.50001V7.16668H16.6641V5.50001C16.6641 5.08362 16.6623 4.85515 16.641 4.69666C16.6407 4.69459 16.6404 4.69257 16.6402 4.69059C16.6382 4.69031 16.6362 4.69003 16.6341 4.68976C16.4756 4.66845 16.2471 4.66668 15.8307 4.66668H4.16407C3.74768 4.66668 3.51921 4.66845 3.36072 4.68976C3.35866 4.69003 3.35663 4.69031 3.35465 4.69059Z" fill="#4E6262"/>
</svg>
