<svg width="20" height="21" viewBox="0 0 20 21" fill="none" xmlns="http://www.w3.org/2000/svg">
<path fill-rule="evenodd" clip-rule="evenodd" d="M11.6668 4.1783L14.655 7.16645H12.5002C12.0838 7.16645 11.8553 7.16468 11.6968 7.14338C11.6947 7.1431 11.6927 7.14282 11.6907 7.14254C11.6905 7.14056 11.6902 7.13854 11.6899 7.13647C11.6686 6.97798 11.6668 6.74952 11.6668 6.33312V4.1783ZM15.0002 8.83312V14.6665C15.0002 15.4757 14.9984 15.9988 14.9466 16.3842C14.898 16.7457 14.8195 16.8589 14.7561 16.9224C14.6927 16.9858 14.5794 17.0643 14.2179 17.1129C13.8325 17.1647 13.3094 17.1665 12.5002 17.1665H7.50017C6.69093 17.1665 6.16784 17.1647 5.78242 17.1129C5.42097 17.0643 5.30768 16.9858 5.24424 16.9224C5.18081 16.8589 5.10235 16.7457 5.05376 16.3842C5.00194 15.9988 5.00017 15.4757 5.00017 14.6665V6.33312C5.00017 5.52389 5.00194 5.0008 5.05376 4.61537C5.10235 4.25392 5.18081 4.14064 5.24424 4.0772C5.30768 4.01376 5.42097 3.9353 5.78242 3.88671C6.16784 3.83489 6.69093 3.83312 7.50017 3.83312H10.0002V6.33312C10.0002 6.34825 10.0002 6.36337 10.0002 6.37846C10.0001 6.73185 10 7.07529 10.0381 7.35855C10.081 7.67789 10.1856 8.04229 10.4883 8.34497C10.791 8.64765 11.1554 8.75225 11.4747 8.79518C11.758 8.83326 12.1014 8.8332 12.4548 8.83313C12.4699 8.83312 12.485 8.83312 12.5002 8.83312H15.0002ZM11.0471 2.16624C11.3108 2.16508 11.6463 2.1636 11.9595 2.29332C12.2726 2.42304 12.5088 2.6613 12.6944 2.84858C12.7115 2.86575 12.7281 2.88249 12.7442 2.89869L15.9346 6.08904C15.9508 6.10524 15.9675 6.12183 15.9847 6.13885C16.172 6.32448 16.4102 6.56065 16.54 6.87383C16.6697 7.18701 16.6682 7.52247 16.667 7.78616C16.6669 7.81034 16.6668 7.83391 16.6668 7.85681L16.6668 14.7213C16.6669 15.4601 16.6669 16.0966 16.5984 16.6063C16.5249 17.1525 16.3593 17.6762 15.9346 18.1009C15.5099 18.5256 14.9863 18.6912 14.44 18.7647C13.9303 18.8332 13.2938 18.8332 12.555 18.8331H7.44533C6.70658 18.8332 6.07006 18.8332 5.56034 18.7647C5.01408 18.6912 4.49045 18.5256 4.06573 18.1009C3.64101 17.6762 3.47539 17.1525 3.40195 16.6063C3.33342 16.0966 3.33346 15.4601 3.3335 14.7213L3.3335 6.33312C3.3335 6.31477 3.3335 6.29649 3.3335 6.27826C3.33346 5.53952 3.33342 4.90301 3.40195 4.39329C3.47539 3.84703 3.64101 3.32341 4.06573 2.89869C4.49045 2.47397 5.01408 2.30835 5.56034 2.2349C6.07006 2.16637 6.70657 2.16641 7.44531 2.16645C7.46353 2.16645 7.48182 2.16645 7.50017 2.16645H10.9765C10.9994 2.16645 11.023 2.16635 11.0471 2.16624ZM6.66683 11.3331C6.66683 10.8729 7.03993 10.4998 7.50017 10.4998L12.5002 10.4998C12.9604 10.4998 13.3335 10.8729 13.3335 11.3331C13.3335 11.7934 12.9604 12.1665 12.5002 12.1665H7.50017C7.03993 12.1665 6.66683 11.7934 6.66683 11.3331ZM6.66683 14.6665C6.66683 14.2062 7.03993 13.8331 7.50017 13.8331H10.8335C11.2937 13.8331 11.6668 14.2062 11.6668 14.6665C11.6668 15.1267 11.2937 15.4998 10.8335 15.4998H7.50017C7.03993 15.4998 6.66683 15.1267 6.66683 14.6665Z" fill="#4E6262"/>
</svg>
