<svg width="20" height="21" viewBox="0 0 20 21" fill="none" xmlns="http://www.w3.org/2000/svg">
<path fill-rule="evenodd" clip-rule="evenodd" d="M9.61536 11.8971C9.85813 11.7782 10.1422 11.7782 10.385 11.8971C10.6236 12.0139 10.734 12.2065 10.758 12.2484L10.7595 12.251C10.7871 12.2989 10.8109 12.3512 10.8164 12.3633L10.8173 12.3654L13.1772 17.4784C13.1772 17.4784 13.1783 17.4808 13.1791 17.4825C13.1874 17.5003 13.2121 17.5534 13.2308 17.6051L13.2319 17.6077C13.2439 17.6389 13.3386 17.8849 13.2465 18.1747C13.1575 18.4547 12.934 18.6714 12.6514 18.7516C12.3587 18.8346 12.1159 18.7322 12.0851 18.7192L12.0824 18.7181C12.0314 18.6978 11.9791 18.6714 11.9615 18.6626C11.9599 18.6617 11.9575 18.6605 11.9575 18.6605L10.0002 17.6819L8.04284 18.6605C8.04284 18.6605 8.04048 18.6617 8.03882 18.6626C8.02124 18.6714 7.96891 18.6978 7.91792 18.7181L7.91528 18.7192C7.88444 18.7322 7.64161 18.8346 7.34899 18.7516C7.06636 18.6714 6.84283 18.4547 6.75386 18.1747C6.66176 17.8849 6.75647 17.639 6.76849 17.6077L6.76951 17.605C6.78822 17.5535 6.81297 17.5003 6.82128 17.4825C6.82207 17.4808 6.82318 17.4784 6.82318 17.4784L9.18301 12.3654L9.18398 12.3633C9.18949 12.3512 9.21328 12.2989 9.24084 12.251L9.24234 12.2484C9.26635 12.2065 9.37678 12.0139 9.61536 11.8971ZM10.0002 14.5721L9.25234 16.1924L9.59768 16.0197L9.6128 16.0122C9.61983 16.0088 9.63366 16.0022 9.6509 15.9947C9.68739 15.9788 9.75298 15.9529 9.83882 15.9368C9.94546 15.9168 10.0549 15.9168 10.1615 15.9368C10.2474 15.9529 10.313 15.9788 10.3494 15.9947C10.3667 16.0022 10.3805 16.0088 10.3875 16.0122L10.4027 16.0197L10.748 16.1924L10.0002 14.5721Z" fill="#222C20"/>
<path fill-rule="evenodd" clip-rule="evenodd" d="M6.00811 3.01867C6.45813 3.1151 6.74477 3.55809 6.64834 4.00811L4.14834 15.6748C4.05191 16.1248 3.60892 16.4114 3.1589 16.315C2.70888 16.2186 2.42224 15.7756 2.51867 15.3256L5.01867 3.6589C5.1151 3.20888 5.55809 2.92224 6.00811 3.01867Z" fill="#222C20"/>
<path fill-rule="evenodd" clip-rule="evenodd" d="M13.9922 3.01867C13.5422 3.1151 13.2556 3.55809 13.352 4.00811L15.852 15.6748C15.9484 16.1248 16.3914 16.4114 16.8414 16.315C17.2915 16.2186 17.5781 15.7756 17.4817 15.3256L14.9817 3.6589C14.8852 3.20888 14.4423 2.92224 13.9922 3.01867Z" fill="#222C20"/>
<path fill-rule="evenodd" clip-rule="evenodd" d="M10.0002 7.16684C10.4604 7.16684 10.8335 7.53994 10.8335 8.00017V9.66684C10.8335 10.1271 10.4604 10.5002 10.0002 10.5002C9.53993 10.5002 9.16684 10.1271 9.16684 9.66684V8.00017C9.16684 7.53994 9.53993 7.16684 10.0002 7.16684Z" fill="#222C20"/>
<path fill-rule="evenodd" clip-rule="evenodd" d="M10.0002 3.00017C10.4604 3.00017 10.8335 3.37327 10.8335 3.83351V5.50017C10.8335 5.96041 10.4604 6.33351 10.0002 6.33351C9.53993 6.33351 9.16684 5.96041 9.16684 5.50017V3.83351C9.16684 3.37327 9.53993 3.00017 10.0002 3.00017Z" fill="#222C20"/>
</svg>
