<svg width="20" height="21" viewBox="0 0 20 21" fill="none" xmlns="http://www.w3.org/2000/svg">
<path fill-rule="evenodd" clip-rule="evenodd" d="M4.12118 2.16666C4.13627 2.16667 4.15139 2.16667 4.16652 2.16667H6.66652C6.68164 2.16667 6.69676 2.16667 6.71186 2.16666C7.06525 2.16659 7.40869 2.16653 7.69195 2.20461C8.01128 2.24754 8.37568 2.35214 8.67836 2.65482C8.98104 2.9575 9.08564 3.3219 9.12857 3.64124C9.16666 3.9245 9.16659 4.26794 9.16652 4.62133C9.16652 4.63642 9.16652 4.65154 9.16652 4.66667V7.16667C9.16652 7.1818 9.16652 7.19691 9.16652 7.21201C9.16659 7.5654 9.16666 7.90884 9.12857 8.1921C9.08564 8.51144 8.98104 8.87583 8.67836 9.17851C8.37568 9.48119 8.01128 9.58579 7.69195 9.62873C7.40869 9.66681 7.06525 9.66674 6.71186 9.66667C6.69676 9.66667 6.68165 9.66667 6.66652 9.66667H4.16652C4.15139 9.66667 4.13627 9.66667 4.12117 9.66667C3.76778 9.66674 3.42434 9.66681 3.14108 9.62873C2.82175 9.58579 2.45735 9.48119 2.15467 9.17851C1.85199 8.87583 1.74739 8.51144 1.70446 8.1921C1.66637 7.90884 1.66644 7.5654 1.66651 7.21201C1.66651 7.19691 1.66652 7.1818 1.66652 7.16667V4.66667C1.66652 4.65154 1.66651 4.63642 1.66651 4.62133C1.66644 4.26794 1.66637 3.9245 1.70446 3.64124C1.74739 3.3219 1.85199 2.9575 2.15467 2.65482C2.45735 2.35214 2.82175 2.24754 3.14108 2.20461C3.42435 2.16653 3.76778 2.16659 4.12118 2.16666ZM3.35709 3.85725C3.35682 3.85923 3.35654 3.86125 3.35626 3.86331C3.33495 4.02181 3.33318 4.25027 3.33318 4.66667V7.16667C3.33318 7.58306 3.33495 7.81153 3.35626 7.97002C3.35654 7.97209 3.35682 7.97411 3.35709 7.97609C3.35907 7.97637 3.3611 7.97664 3.36316 7.97692C3.52166 7.99823 3.75012 8 4.16652 8H6.66652C7.08291 8 7.31138 7.99823 7.46987 7.97692C7.47193 7.97664 7.47396 7.97637 7.47594 7.97609C7.47622 7.97411 7.47649 7.97209 7.47677 7.97002C7.49808 7.81153 7.49985 7.58306 7.49985 7.16667V4.66667C7.49985 4.25027 7.49808 4.02181 7.47677 3.86331C7.47649 3.86125 7.47621 3.85923 7.47594 3.85725C7.47396 3.85697 7.47193 3.85669 7.46987 3.85641C7.31138 3.8351 7.08291 3.83334 6.66652 3.83334H4.16652C3.75012 3.83334 3.52166 3.8351 3.36316 3.85641C3.3611 3.85669 3.35907 3.85697 3.35709 3.85725ZM13.2878 2.16666C13.3029 2.16667 13.3181 2.16667 13.3332 2.16667H15.8332C15.8483 2.16667 15.8634 2.16667 15.8785 2.16666C16.2319 2.16659 16.5754 2.16653 16.8586 2.20461C17.178 2.24754 17.5423 2.35214 17.845 2.65482C18.1477 2.9575 18.2523 3.3219 18.2952 3.64124C18.3333 3.92449 18.3333 4.26792 18.3332 4.62131C18.3332 4.63641 18.3332 4.65153 18.3332 4.66667V7.16667C18.3332 7.1818 18.3332 7.19693 18.3332 7.21203C18.3333 7.56541 18.3333 7.90884 18.2952 8.1921C18.2523 8.51144 18.1477 8.87583 17.845 9.17851C17.5423 9.48119 17.178 9.58579 16.8586 9.62873C16.5754 9.66681 16.2319 9.66674 15.8785 9.66667C15.8634 9.66667 15.8483 9.66667 15.8332 9.66667H13.3332C13.3181 9.66667 13.3029 9.66667 13.2878 9.66667C12.9345 9.66674 12.591 9.66681 12.3078 9.62873C11.9884 9.58579 11.624 9.48119 11.3213 9.17851C11.0187 8.87583 10.9141 8.51144 10.8711 8.1921C10.833 7.90884 10.8331 7.5654 10.8332 7.21201C10.8332 7.19691 10.8332 7.1818 10.8332 7.16667V4.66667C10.8332 4.65154 10.8332 4.63642 10.8332 4.62133C10.8331 4.26794 10.833 3.9245 10.8711 3.64124C10.9141 3.3219 11.0187 2.9575 11.3213 2.65482C11.624 2.35214 11.9884 2.24754 12.3078 2.20461C12.591 2.16653 12.9345 2.16659 13.2878 2.16666ZM12.5238 3.85725C12.5235 3.85923 12.5232 3.86125 12.5229 3.86331C12.5016 4.02181 12.4998 4.25027 12.4998 4.66667V7.16667C12.4998 7.58306 12.5016 7.81153 12.5229 7.97002C12.5232 7.97209 12.5235 7.97411 12.5238 7.97609C12.5257 7.97637 12.5278 7.97664 12.5298 7.97692C12.6883 7.99823 12.9168 8 13.3332 8H15.8332C16.2496 8 16.478 7.99823 16.6365 7.97692C16.6386 7.97664 16.6406 7.97637 16.6426 7.97609C16.6429 7.97411 16.6432 7.97209 16.6434 7.97002C16.6647 7.81153 16.6665 7.58306 16.6665 7.16667V4.66667C16.6665 4.25027 16.6647 4.02181 16.6434 3.86331C16.6432 3.86125 16.6429 3.85923 16.6426 3.85725C16.6406 3.85697 16.6386 3.85669 16.6365 3.85641C16.478 3.8351 16.2496 3.83334 15.8332 3.83334H13.3332C12.9168 3.83334 12.6883 3.8351 12.5298 3.85641C12.5278 3.85669 12.5257 3.85697 12.5238 3.85725ZM4.12117 11.3333C4.13627 11.3333 4.15139 11.3333 4.16652 11.3333H6.66652C6.68165 11.3333 6.69676 11.3333 6.71186 11.3333C7.06525 11.3333 7.40869 11.3332 7.69195 11.3713C8.01128 11.4142 8.37568 11.5188 8.67836 11.8215C8.98104 12.1242 9.08564 12.4886 9.12857 12.8079C9.16666 13.0912 9.16659 13.4346 9.16652 13.788C9.16652 13.8031 9.16652 13.8182 9.16652 13.8333V16.3333C9.16652 16.3485 9.16652 16.3636 9.16652 16.3787C9.16659 16.7321 9.16666 17.0755 9.12857 17.3588C9.08564 17.6781 8.98104 18.0425 8.67836 18.3452C8.37568 18.6479 8.01128 18.7525 7.69195 18.7954C7.40869 18.8335 7.06526 18.8334 6.71188 18.8333C6.69677 18.8333 6.68165 18.8333 6.66652 18.8333H4.16652C4.15138 18.8333 4.13626 18.8333 4.12116 18.8333C3.76777 18.8334 3.42434 18.8335 3.14108 18.7954C2.82175 18.7525 2.45735 18.6479 2.15467 18.3452C1.85199 18.0425 1.74739 17.6781 1.70446 17.3588C1.66637 17.0755 1.66644 16.7321 1.66651 16.3787C1.66651 16.3636 1.66652 16.3485 1.66652 16.3333V13.8333C1.66652 13.8182 1.66651 13.8031 1.66651 13.788C1.66644 13.4346 1.66637 13.0912 1.70446 12.8079C1.74739 12.4886 1.85199 12.1242 2.15467 11.8215C2.45735 11.5188 2.82175 11.4142 3.14108 11.3713C3.42434 11.3332 3.76778 11.3333 4.12117 11.3333ZM3.35709 13.0239C3.35682 13.0259 3.35654 13.0279 3.35626 13.03C3.33495 13.1885 3.33318 13.4169 3.33318 13.8333V16.3333C3.33318 16.7497 3.33495 16.9782 3.35626 17.1367C3.35654 17.1388 3.35682 17.1408 3.35709 17.1428C3.35907 17.143 3.3611 17.1433 3.36316 17.1436C3.52166 17.1649 3.75012 17.1667 4.16652 17.1667H6.66652C7.08291 17.1667 7.31138 17.1649 7.46987 17.1436C7.47193 17.1433 7.47396 17.143 7.47594 17.1428C7.47622 17.1408 7.47649 17.1388 7.47677 17.1367C7.49808 16.9782 7.49985 16.7497 7.49985 16.3333V13.8333C7.49985 13.4169 7.49808 13.1885 7.47677 13.03C7.47649 13.0279 7.47621 13.0259 7.47594 13.0239C7.47396 13.0236 7.47193 13.0234 7.46987 13.0231C7.31138 13.0018 7.08291 13 6.66652 13H4.16652C3.75012 13 3.52166 13.0018 3.36316 13.0231C3.3611 13.0234 3.35907 13.0236 3.35709 13.0239ZM14.5832 11.3335C15.0434 11.3335 15.4165 11.7066 15.4165 12.1669L15.4165 14.2501L17.4999 14.2501C17.9602 14.2501 18.3333 14.6232 18.3333 15.0834C18.3333 15.5437 17.9602 15.9167 17.4999 15.9167L15.4165 15.9167L15.4165 18.0003C15.4165 18.4606 15.0434 18.8337 14.5832 18.8337C14.1229 18.8337 13.7498 18.4606 13.7498 18.0003L13.7498 15.9167L11.6665 15.9167C11.2062 15.9167 10.8331 15.5436 10.8331 15.0834C10.8331 14.6231 11.2062 14.2501 11.6665 14.2501L13.7499 14.2501L13.7499 12.1669C13.7499 11.7066 14.123 11.3335 14.5832 11.3335Z" fill="#3E423C"/>
</svg>
