<svg width="20" height="21" viewBox="0 0 20 21" fill="none" xmlns="http://www.w3.org/2000/svg">
<path fill-rule="evenodd" clip-rule="evenodd" d="M15.6845 3.55687C14.9713 3.5741 14.0268 3.72949 12.6504 3.95889L11.2578 4.191C10.5715 4.30538 10.1332 4.37997 9.81261 4.4754C9.51436 4.5642 9.41955 4.64353 9.36623 4.70647C9.31292 4.7694 9.25025 4.87596 9.2117 5.18475C9.17027 5.51663 9.16875 5.96128 9.16875 6.65699V7.27651H7.50208L7.50208 6.6078C7.50204 5.97558 7.50201 5.4257 7.55787 4.97827C7.61806 4.49619 7.75288 4.03248 8.09453 3.62917C8.43618 3.22587 8.87143 3.01665 9.33705 2.87803C9.7692 2.74937 10.3116 2.659 10.9352 2.5551L12.4399 2.30433C13.7372 2.08808 14.7988 1.91111 15.6442 1.89069C16.5266 1.86937 17.3259 2.01171 17.99 2.57432C18.6541 3.13692 18.9259 3.90189 19.05 4.77581C19.1688 5.61306 19.1688 6.68937 19.1687 8.00457V12.9952C19.1688 14.3104 19.1688 15.3867 19.05 16.224C18.9259 17.0979 18.6541 17.8629 17.99 18.4255C17.3259 18.9881 16.5266 19.1304 15.6442 19.1091C14.7988 19.0887 13.7371 18.9117 12.4398 18.6955L10.9352 18.4447C10.3116 18.3408 9.7692 18.2504 9.33705 18.1218C8.87143 17.9831 8.43618 17.7739 8.09453 17.3706C7.75288 16.9673 7.61806 16.5036 7.55787 16.0215C7.50201 15.5741 7.50204 15.0242 7.50208 14.392L7.50208 13.8882H9.16875V14.3428C9.16875 15.0385 9.17027 15.4832 9.2117 15.815C9.25025 16.1238 9.31292 16.2304 9.36623 16.2933C9.41955 16.3563 9.51436 16.4356 9.81261 16.5244C10.1332 16.6198 10.5715 16.6944 11.2578 16.8088L12.6504 17.0409C14.0268 17.2703 14.9713 17.4257 15.6845 17.4429C16.3743 17.4596 16.6928 17.3401 16.9127 17.1538C17.1326 16.9675 17.3029 16.673 17.3998 15.9898C17.5001 15.2835 17.5021 14.3263 17.5021 12.9309V8.06887C17.5021 6.67347 17.5001 5.71632 17.3998 5.01002C17.3029 4.32678 17.1326 4.03233 16.9127 3.84602C16.6928 3.65971 16.3743 3.5402 15.6845 3.55687ZM4.35136 5.81265L5.65281 6.85381L3.4026 9.66657H9.16875C9.62899 9.66657 10.0021 10.0397 10.0021 10.4999C10.0021 10.9601 9.62899 11.3332 9.16875 11.3332H3.4026L5.65281 14.146L4.35136 15.1871L0.601562 10.4999L4.35136 5.81265Z" fill="#3E423C"/>
</svg>
