<svg width="20" height="21" viewBox="0 0 20 21" fill="none" xmlns="http://www.w3.org/2000/svg">
<path fill-rule="evenodd" clip-rule="evenodd" d="M4.54843 7.04899C4.85728 4.26938 7.20675 2.1665 10.0035 2.1665C12.8002 2.1665 15.1497 4.26938 15.4585 7.04899L15.6734 8.98255C15.7674 9.80191 16.0341 10.592 16.4559 11.3007L16.981 12.176C17.1823 12.5114 17.3646 12.8152 17.4861 13.0731C17.6095 13.3352 17.7415 13.6903 17.6779 14.0929C17.6152 14.4909 17.4103 14.8526 17.1014 15.1112C16.7888 15.3728 16.4164 15.4424 16.1282 15.4714C15.8446 15.4999 15.4902 15.4999 15.099 15.4998L14.0859 15.4998C14.0329 15.7598 13.955 16.0147 13.853 16.261C13.6436 16.7665 13.3367 17.2259 12.9497 17.6128C12.5628 17.9997 12.1035 18.3066 11.598 18.516C11.0925 18.7254 10.5506 18.8332 10.0035 18.8332C9.45629 18.8332 8.91448 18.7254 8.40895 18.516C7.90343 18.3066 7.4441 17.9997 7.05719 17.6128C6.67028 17.2259 6.36336 16.7665 6.15397 16.261C6.05195 16.0147 5.97405 15.7598 5.92098 15.4998L4.90791 15.4998C4.51675 15.4999 4.16237 15.4999 3.87873 15.4714C3.59049 15.4424 3.21809 15.3728 2.90554 15.1112C2.5966 14.8526 2.39178 14.4909 2.32899 14.0929C2.26547 13.6903 2.39744 13.3352 2.52087 13.0731C2.64233 12.8152 2.82468 12.5114 3.02595 12.176L3.55105 11.3007C3.97283 10.592 4.23953 9.80191 4.33355 8.98255L4.54843 7.04899ZM7.64644 15.4998C7.66111 15.5413 7.67689 15.5825 7.69377 15.6232C7.8194 15.9265 8.00355 16.2021 8.2357 16.4343C8.46785 16.6664 8.74345 16.8506 9.04676 16.9762C9.35007 17.1018 9.67516 17.1665 10.0035 17.1665C10.3318 17.1665 10.6569 17.1018 10.9602 16.9762C11.2635 16.8506 11.5391 16.6664 11.7712 16.4343C12.0034 16.2021 12.1875 15.9265 12.3132 15.6232C12.33 15.5825 12.3458 15.5413 12.3605 15.4998H7.64644ZM4.94699 13.8332C4.504 13.8332 4.23535 13.8322 4.04557 13.8131C4.03519 13.812 4.02548 13.811 4.01643 13.8099C4.02016 13.8016 4.02424 13.7927 4.02869 13.7833C4.10996 13.6107 4.24731 13.3798 4.47523 12.9999L4.98328 12.1531C5.52557 11.2419 5.86847 10.226 5.98936 9.17256L6.20491 7.23304C6.41997 5.29749 8.056 3.83317 10.0035 3.83317C11.9509 3.83317 13.587 5.29749 13.802 7.23305L14.0176 9.17256C14.1385 10.226 14.4814 11.2419 15.0237 12.1531L15.5317 12.9999C15.7596 13.3798 15.897 13.6107 15.9782 13.7833C15.9827 13.7927 15.9868 13.8016 15.9905 13.8099C15.9815 13.811 15.9717 13.812 15.9614 13.8131C15.7716 13.8322 15.5029 13.8332 15.0599 13.8332H4.94699Z" fill="#C8CBC8"/>
</svg>
