<svg width="20" height="21" viewBox="0 0 20 21" fill="none" xmlns="http://www.w3.org/2000/svg">
<path d="M13.3333 10.4998C13.3333 10.0396 12.9602 9.6665 12.5 9.6665C12.0398 9.6665 11.6667 10.0396 11.6667 10.4998V12.1665C11.6667 12.6267 12.0398 12.9998 12.5 12.9998C12.9602 12.9998 13.3333 12.6267 13.3333 12.1665V10.4998Z" fill="#4E6262"/>
<path d="M7.5 9.6665C7.96024 9.6665 8.33334 10.0396 8.33334 10.4998V12.1665C8.33334 12.6267 7.96024 12.9998 7.5 12.9998C7.03977 12.9998 6.66667 12.6267 6.66667 12.1665V10.4998C6.66667 10.0396 7.03977 9.6665 7.5 9.6665Z" fill="#4E6262"/>
<path fill-rule="evenodd" clip-rule="evenodd" d="M14.1667 6.33662V6.33317C14.1667 4.03198 12.3012 2.1665 10 2.1665C7.69882 2.1665 5.83334 4.03198 5.83334 6.33317V6.33662C5.4184 6.34253 5.04753 6.35851 4.72684 6.40162C4.18058 6.47506 3.65696 6.64068 3.23224 7.0654C2.80752 7.49012 2.6419 8.01375 2.56845 8.56001C2.49992 9.06973 2.49996 9.70624 2.5 10.445L2.5 11.3941C2.49998 12.9137 2.49996 14.1385 2.62947 15.1018C2.76394 16.1019 3.0516 16.944 3.72039 17.6128C4.38919 18.2816 5.23127 18.5692 6.23139 18.7037C7.19468 18.8332 8.41947 18.8332 9.93899 18.8332H10.061C11.5805 18.8332 12.8053 18.8332 13.7686 18.7037C14.7687 18.5692 15.6108 18.2816 16.2796 17.6128C16.9484 16.944 17.2361 16.1019 17.3705 15.1018C17.5 14.1385 17.5 12.9137 17.5 11.3941L17.5 10.445C17.5 9.70625 17.5001 9.06973 17.4316 8.56001C17.3581 8.01375 17.1925 7.49012 16.7678 7.0654C16.3431 6.64068 15.8194 6.47506 15.2732 6.40162C14.9525 6.35851 14.5816 6.34253 14.1667 6.33662ZM6.66667 7.99984C5.85744 7.99984 5.33435 8.00161 4.94892 8.05342C4.58747 8.10202 4.47419 8.18048 4.41075 8.24391C4.34731 8.30735 4.26885 8.42064 4.22026 8.78209C4.16844 9.16751 4.16667 9.6906 4.16667 10.4998V11.3332C4.16667 12.9281 4.16844 14.0404 4.28128 14.8797C4.39089 15.695 4.59139 16.1268 4.8989 16.4343C5.20642 16.7418 5.63816 16.9423 6.45347 17.0519C7.29275 17.1647 8.4051 17.1665 10 17.1665C11.5949 17.1665 12.7073 17.1647 13.5465 17.0519C14.3618 16.9423 14.7936 16.7418 15.1011 16.4343C15.4086 16.1268 15.6091 15.695 15.7187 14.8797C15.8316 14.0404 15.8333 12.9281 15.8333 11.3332V10.4998C15.8333 9.6906 15.8316 9.16751 15.7797 8.78209C15.7312 8.42064 15.6527 8.30735 15.5893 8.24391C15.5258 8.18048 15.4125 8.10202 15.0511 8.05342C14.6657 8.00161 14.1426 7.99984 13.3333 7.99984H6.66667ZM12.5 6.33317L7.5 6.33317C7.5 4.95246 8.61929 3.83317 10 3.83317C11.3807 3.83317 12.5 4.95246 12.5 6.33317Z" fill="#4E6262"/>
</svg>
