<svg width="20" height="21" viewBox="0 0 20 21" fill="none" xmlns="http://www.w3.org/2000/svg">
<path d="M8.33341 7.16669C7.87318 7.16669 7.50008 7.53978 7.50008 8.00002C7.50008 8.46026 7.87318 8.83335 8.33341 8.83335H11.6667C12.127 8.83335 12.5001 8.46026 12.5001 8.00002C12.5001 7.53978 12.127 7.16669 11.6667 7.16669H8.33341Z" fill="#3E423C"/>
<path d="M7.50008 13C7.50008 12.5398 7.87318 12.1667 8.33341 12.1667H11.6667C12.127 12.1667 12.5001 12.5398 12.5001 13C12.5001 13.4603 12.127 13.8334 11.6667 13.8334H8.33341C7.87318 13.8334 7.50008 13.4603 7.50008 13Z" fill="#3E423C"/>
<path d="M8.33341 9.66669C7.87318 9.66669 7.50008 10.0398 7.50008 10.5C7.50008 10.9603 7.87318 11.3334 8.33341 11.3334H11.6667C12.127 11.3334 12.5001 10.9603 12.5001 10.5C12.5001 10.0398 12.127 9.66669 11.6667 9.66669H8.33341Z" fill="#3E423C"/>
<path fill-rule="evenodd" clip-rule="evenodd" d="M5.46233 2.30665C5.20662 2.13617 4.87783 2.12028 4.60687 2.26529C4.3359 2.41031 4.16675 2.69269 4.16675 3.00002V18C4.16675 18.2888 4.31629 18.5571 4.56197 18.7089C4.80765 18.8607 5.11444 18.8745 5.37276 18.7454L7.50008 17.6817L9.6274 18.7454C9.86201 18.8627 10.1382 18.8627 10.3728 18.7454L12.5001 17.6817L14.6274 18.7454C14.8857 18.8745 15.1925 18.8607 15.4382 18.7089C15.6839 18.5571 15.8334 18.2888 15.8334 18V3.00002C15.8334 2.69269 15.6643 2.41031 15.3933 2.26529C15.1223 2.12028 14.7935 2.13617 14.5378 2.30665L12.5001 3.66515L10.4623 2.30665C10.1824 2.12004 9.81775 2.12004 9.53783 2.30665L7.50008 3.66515L5.46233 2.30665ZM5.83341 16.6517V4.55712L7.03783 5.36006C7.31775 5.54667 7.68242 5.54667 7.96233 5.36006L10.0001 4.00156L12.0378 5.36006C12.3177 5.54667 12.6824 5.54667 12.9623 5.36006L14.1667 4.55712V16.6517L12.8728 16.0047C12.6382 15.8874 12.362 15.8874 12.1274 16.0047L10.0001 17.0683L7.87276 16.0047C7.63815 15.8874 7.36201 15.8874 7.1274 16.0047L5.83341 16.6517Z" fill="#3E423C"/>
</svg>
