<svg width="20" height="21" viewBox="0 0 20 21" fill="none" xmlns="http://www.w3.org/2000/svg">
<path fill-rule="evenodd" clip-rule="evenodd" d="M12.2631 9.6171C11.6691 10.1653 10.8753 10.5002 10.0032 10.5002C9.13113 10.5002 8.33728 10.1653 7.74324 9.6171C7.41656 10.0023 6.97822 10.2824 6.48357 10.415C5.84312 10.5866 5.16073 10.4967 4.58652 10.1652C4.01231 9.83371 3.59332 9.28766 3.42171 8.64721C3.2501 8.00676 3.33994 7.32437 3.67146 6.75016C4.00298 6.17595 4.54903 5.75696 5.18948 5.58535C5.78856 5.42482 6.42435 5.49307 6.97396 5.7739C7.5015 4.62855 8.6595 3.8335 10.0032 3.8335C11.3469 3.8335 12.5049 4.62855 13.0324 5.7739C13.1876 5.69459 13.3519 5.63115 13.5228 5.58535C14.1633 5.41374 14.8456 5.50358 15.4199 5.8351C15.9941 6.16662 16.4131 6.71267 16.5847 7.35311C16.7563 7.99356 16.6664 8.67595 16.3349 9.25016C16.0034 9.82437 15.4574 10.2434 14.8169 10.415C14.1765 10.5866 13.4941 10.4967 12.9199 10.1652C12.6687 10.0202 12.4472 9.83415 12.2631 9.6171ZM11.6699 7.16683C11.6699 8.0873 10.9237 8.8335 10.0032 8.8335C9.08272 8.8335 8.33652 8.0873 8.33652 7.16683C8.33652 6.24635 9.08272 5.50016 10.0032 5.50016C10.9237 5.50016 11.6699 6.24635 11.6699 7.16683ZM13.9542 7.19522C14.1677 7.13802 14.3951 7.16797 14.5865 7.27847C14.7779 7.38898 14.9176 7.571 14.9748 7.78448C15.032 7.99796 15.0021 8.22543 14.8915 8.41683C14.781 8.60823 14.599 8.7479 14.3855 8.8051C14.1721 8.8623 13.9446 8.83236 13.7532 8.72185C13.5618 8.61134 13.4221 8.42933 13.3649 8.21585C13.3077 8.00236 13.3377 7.7749 13.4482 7.5835C13.5587 7.39209 13.7407 7.25243 13.9542 7.19522ZM6.25319 7.27847C6.06179 7.16797 5.83432 7.13802 5.62084 7.19522C5.40736 7.25243 5.22534 7.39209 5.11484 7.5835C5.00433 7.7749 4.97438 8.00236 5.03159 8.21585C5.08879 8.42933 5.22845 8.61134 5.41986 8.72185C5.61126 8.83236 5.83872 8.8623 6.05221 8.8051C6.26569 8.7479 6.4477 8.60823 6.55821 8.41683C6.66872 8.22543 6.69866 7.99796 6.64146 7.78448C6.58426 7.571 6.44459 7.38898 6.25319 7.27847Z" fill="#4E6262"/>
<path fill-rule="evenodd" clip-rule="evenodd" d="M12.2824 11.7939C11.6562 11.5053 10.9024 11.3335 10.0032 11.3335C9.10471 11.3335 8.3514 11.505 7.72557 11.7932C7.20131 11.5077 6.57466 11.3335 5.83902 11.3335C3.38193 11.3335 2.341 13.2158 1.95345 14.3084C1.55454 15.433 2.49465 16.3335 3.44966 16.3335H5.25119C5.52473 16.8472 6.09609 17.1668 6.66985 17.1668H13.3365C13.9103 17.1668 14.4816 16.8472 14.7552 16.3335H16.5596C17.5146 16.3335 18.4547 15.433 18.0558 14.3084C17.6682 13.2158 16.6273 11.3335 14.1702 11.3335C13.434 11.3335 12.8069 11.508 12.2824 11.7939ZM14.7147 14.6668C14.5483 14.1487 14.2807 13.5586 13.8483 13.0186C13.9498 13.0066 14.0569 13.0002 14.1702 13.0002C15.436 13.0002 16.0736 13.8429 16.4094 14.6668H14.7147ZM12.6405 14.1844C12.5022 13.9918 12.3373 13.8108 12.1412 13.6519C11.6841 13.2824 11.0156 13.0002 10.0032 13.0002C9.21197 13.0002 8.6308 13.1726 8.19644 13.4243L8.12843 13.4666C7.327 13.965 6.9566 14.8061 6.79077 15.5002H13.218C13.1185 15.0844 12.943 14.6063 12.6405 14.1844ZM5.29185 14.6668H3.59982C3.93561 13.8429 4.5732 13.0002 5.83902 13.0002C5.95164 13.0002 6.05817 13.0065 6.15905 13.0184C5.72658 13.5581 5.45874 14.1467 5.29185 14.6668Z" fill="#4E6262"/>
</svg>
