<svg width="20" height="21" viewBox="0 0 20 21" fill="none" xmlns="http://www.w3.org/2000/svg">
<path fill-rule="evenodd" clip-rule="evenodd" d="M7.09859 3.83312L7.21428 3.83324H12.7862L12.9019 3.83312C13.4675 3.83225 13.9696 3.83148 14.4333 4.02354C14.8969 4.2156 15.2514 4.57114 15.6508 4.97175L15.7325 5.05363L16.2798 5.60101L16.3617 5.68273C16.7623 6.0821 17.1179 6.43655 17.3099 6.90022C17.502 7.36389 17.5012 7.86593 17.5004 8.4316L17.5002 8.54729L17.5002 13.8881C17.5003 14.6268 17.5003 15.2633 17.4318 15.7731C17.3583 16.3193 17.1927 16.843 16.768 17.2677C16.3433 17.6924 15.8197 17.858 15.2734 17.9315C14.7637 18 14.1272 18 13.3884 17.9999H6.61206C5.87331 18 5.2368 18 4.72707 17.9315C4.18081 17.858 3.65718 17.6924 3.23247 17.2677C2.80775 16.843 2.64213 16.3193 2.56868 15.7731C2.50015 15.2634 2.50019 14.6268 2.50023 13.8881L2.50023 8.54729L2.50012 8.4316C2.49925 7.86593 2.49848 7.36389 2.69053 6.90022C2.88259 6.43655 3.23813 6.0821 3.63874 5.68273L3.72062 5.60101L4.268 5.05363L4.34972 4.97175C4.74909 4.57114 5.10354 4.2156 5.56721 4.02354C6.03089 3.83148 6.53292 3.83225 7.09859 3.83312ZM15.7701 7.53803C15.8034 7.61837 15.8208 7.71038 15.8285 7.99991H4.17194C4.17963 7.71038 4.19705 7.61837 4.23033 7.53803C4.27902 7.4205 4.36934 7.30932 4.89913 6.77952L5.44651 6.23214C5.97631 5.70234 6.08749 5.61202 6.20502 5.56334C6.32255 5.51466 6.46503 5.49991 7.21428 5.49991H12.7862C13.5354 5.49991 13.6779 5.51466 13.7954 5.56334C13.913 5.61202 14.0242 5.70234 14.554 6.23214L15.1013 6.77952C15.6311 7.30932 15.7214 7.4205 15.7701 7.53803ZM7.22029 9.66657H4.1669V13.8332C4.1669 14.6425 4.16867 15.1656 4.22049 15.551C4.26908 15.9124 4.34754 16.0257 4.41098 16.0892C4.47441 16.1526 4.5877 16.2311 4.94915 16.2797C5.33458 16.3315 5.85767 16.3332 6.6669 16.3332H13.3336C14.1428 16.3332 14.6659 16.3315 15.0513 16.2797C15.4128 16.2311 15.5261 16.1526 15.5895 16.0892C15.6529 16.0257 15.7314 15.9124 15.78 15.551C15.8318 15.1656 15.8336 14.6425 15.8336 13.8332V9.66657H12.7758V11.8888C12.7758 12.5261 12.7758 12.8448 12.6934 13.0161C12.5094 13.3984 12.0675 13.5815 11.6671 13.4412C11.4877 13.3784 11.2623 13.1531 10.8117 12.7024C10.6029 12.4937 10.4986 12.3893 10.3876 12.3306C10.1439 12.2018 9.85223 12.2018 9.60853 12.3306C9.49757 12.3893 9.3932 12.4937 9.18447 12.7024C8.73381 13.1531 8.50847 13.3784 8.32907 13.4412C7.92861 13.5815 7.4867 13.3984 7.30271 13.0161C7.22029 12.8448 7.22029 12.5261 7.22029 11.8888V9.66657Z" fill="#3E423C"/>
</svg>
