<svg width="24" height="24" viewBox="0 0 24 24" fill="none" xmlns="http://www.w3.org/2000/svg">
<path fill-rule="evenodd" clip-rule="evenodd" d="M19.0544 22C19.0363 22 19.0181 22 19 22L6.93416 22C6.04768 22 5.28386 22.0001 4.6722 21.9178C4.01669 21.8297 3.38834 21.631 2.87867 21.1213C2.36901 20.6116 2.17027 19.9833 2.08213 19.3278C1.9999 18.7161 1.99994 17.9523 1.99999 17.0658L1.99999 6.49999C1.99999 4.56699 3.567 2.99999 5.49999 2.99999L19.2857 2.99999C19.297 2.99999 19.3102 2.99985 19.325 2.9997C19.4623 2.9983 19.7418 2.99544 19.9954 3.08416C20.4263 3.23493 20.765 3.5737 20.9158 4.00457C21.0045 4.25813 21.0017 4.53769 21.0003 4.67494C21.0001 4.68979 21 4.70297 21 4.71427C21 4.77412 21 4.8331 21.0001 4.89124C21.0008 5.91443 21.0013 6.67585 20.7755 7.3211C20.6824 7.58721 20.5624 7.84014 20.4187 8.07672C20.7522 8.14345 21.1093 8.28086 21.4142 8.58577C21.7774 8.94899 21.9029 9.38626 21.9545 9.76947C22.0002 10.1094 22.0001 10.5215 22 10.9456C22 10.9637 22 10.9818 22 11L22 19C22 19.0181 22 19.0363 22 19.0544C22.0001 19.4785 22.0002 19.8906 21.9545 20.2305C21.9029 20.6137 21.7774 21.051 21.4142 21.4142C21.051 21.7774 20.6137 21.9029 20.2305 21.9545C19.8906 22.0002 19.4785 22.0001 19.0544 22ZM15.7143 9.99999C15.7741 9.99999 15.8331 10 15.8912 10.0001C16.005 10.0001 16.1155 10.0002 16.223 9.99999L19 9.99999C19.4997 9.99999 19.7738 10.0021 19.964 10.0277C19.9665 10.028 19.9689 10.0283 19.9713 10.0287C19.9716 10.0311 19.972 10.0335 19.9723 10.036C19.9979 10.2262 20 10.5003 20 11V12H17C16.9818 12 16.9637 12 16.9456 12C16.5215 11.9999 16.1094 11.9998 15.7695 12.0455C15.3863 12.097 14.949 12.2226 14.5858 12.5858C14.2226 12.949 14.097 13.3863 14.0455 13.7695C13.9998 14.1094 13.9999 14.5215 14 14.9456C14 14.9637 14 14.9818 14 15C14 15.0181 14 15.0363 14 15.0544C13.9999 15.4785 13.9998 15.8906 14.0455 16.2305C14.097 16.6137 14.2226 17.051 14.5858 17.4142C14.949 17.7774 15.3863 17.9029 15.7695 17.9545C16.1094 18.0002 16.5215 18.0001 16.9456 18C16.9637 18 16.9818 18 17 18H20V19C20 19.4997 19.9979 19.7738 19.9723 19.964C19.972 19.9665 19.9716 19.9689 19.9713 19.9713C19.9689 19.9716 19.9665 19.972 19.964 19.9723C19.7738 19.9979 19.4997 20 19 20L6.99999 20C6.02891 20 5.4012 19.9979 4.9387 19.9357C4.50496 19.8774 4.36901 19.7832 4.29289 19.7071C4.21676 19.631 4.12262 19.495 4.0643 19.0613C4.00212 18.5988 3.99999 17.9711 3.99999 17L3.99999 9.66317C4.45462 9.87914 4.9632 9.99999 5.49999 9.99999H15.7143ZM15.7143 7.99999C16.9949 7.99999 17.3802 7.98584 17.6605 7.88775C18.235 7.68673 18.6867 7.23504 18.8878 6.66054C18.9781 6.40225 18.9972 6.05483 18.9997 4.99999L5.49999 4.99999C4.67157 4.99999 3.99999 5.67156 3.99999 6.49999C3.99999 7.32841 4.67157 7.99999 5.49999 7.99999H15.7143ZM20 16V14H17C16.5003 14 16.2262 14.0021 16.036 14.0277C16.0335 14.028 16.0311 14.0283 16.0287 14.0287C16.0283 14.0311 16.028 14.0335 16.0277 14.036C16.0021 14.2262 16 14.5003 16 15C16 15.4997 16.0021 15.7738 16.0277 15.964C16.028 15.9665 16.0283 15.9689 16.0287 15.9713C16.0311 15.9716 16.0335 15.972 16.036 15.9723C16.2262 15.9979 16.5003 16 17 16H20Z" fill="#3E423C"/>
</svg>
