<svg width="20" height="21" viewBox="0 0 20 21" fill="none" xmlns="http://www.w3.org/2000/svg">
<path d="M5.83073 11.3332C5.83073 10.9403 5.83073 10.7439 5.95277 10.6219C6.07481 10.4998 6.27123 10.4998 6.66407 10.4998H8.33073C8.72357 10.4998 8.91999 10.4998 9.04203 10.6219C9.16407 10.7439 9.16407 10.9403 9.16407 11.3332C9.16407 11.726 9.16407 11.9224 9.04203 12.0445C8.91999 12.1665 8.72357 12.1665 8.33073 12.1665H6.66407C6.27123 12.1665 6.07481 12.1665 5.95277 12.0445C5.83073 11.9224 5.83073 11.726 5.83073 11.3332Z" fill="#4E6262"/>
<path d="M5.95277 13.9552C5.83073 14.0772 5.83073 14.2737 5.83073 14.6665C5.83073 15.0593 5.83073 15.2558 5.95277 15.3778C6.07481 15.4998 6.27123 15.4998 6.66407 15.4998H8.33073C8.72357 15.4998 8.91999 15.4998 9.04203 15.3778C9.16407 15.2558 9.16407 15.0593 9.16407 14.6665C9.16407 14.2737 9.16407 14.0772 9.04203 13.9552C8.91999 13.8332 8.72357 13.8332 8.33073 13.8332H6.66407C6.27123 13.8332 6.07481 13.8332 5.95277 13.9552Z" fill="#4E6262"/>
<path d="M10.8307 11.3332C10.8307 10.9403 10.8307 10.7439 10.9528 10.6219C11.0748 10.4998 11.2712 10.4998 11.6641 10.4998H13.3307C13.7236 10.4998 13.92 10.4998 14.042 10.6219C14.1641 10.7439 14.1641 10.9403 14.1641 11.3332C14.1641 11.726 14.1641 11.9224 14.042 12.0445C13.92 12.1665 13.7236 12.1665 13.3307 12.1665H11.6641C11.2712 12.1665 11.0748 12.1665 10.9528 12.0445C10.8307 11.9224 10.8307 11.726 10.8307 11.3332Z" fill="#4E6262"/>
<path d="M10.9528 13.9552C10.8307 14.0772 10.8307 14.2737 10.8307 14.6665C10.8307 15.0593 10.8307 15.2558 10.9528 15.3778C11.0748 15.4998 11.2712 15.4998 11.6641 15.4998H13.3307C13.7236 15.4998 13.92 15.4998 14.042 15.3778C14.1641 15.2558 14.1641 15.0593 14.1641 14.6665C14.1641 14.2737 14.1641 14.0772 14.042 13.9552C13.92 13.8332 13.7236 13.8332 13.3307 13.8332H11.6641C11.2712 13.8332 11.0748 13.8332 10.9528 13.9552Z" fill="#4E6262"/>
<path fill-rule="evenodd" clip-rule="evenodd" d="M5.83073 2.1665C6.29097 2.1665 6.66407 2.5396 6.66407 2.99984L6.66407 4.6665H13.3307V2.99984C13.3307 2.5396 13.7038 2.1665 14.1641 2.1665C14.6243 2.1665 14.9974 2.5396 14.9974 2.99984V4.66996C15.4123 4.67586 15.7832 4.69184 16.1039 4.73495C16.6502 4.8084 17.1738 4.97402 17.5985 5.39874C18.0232 5.82346 18.1888 6.34708 18.2623 6.89334C18.3308 7.40307 18.3308 8.03958 18.3307 8.77833V14.7213C18.3308 15.4601 18.3308 16.0966 18.2623 16.6063C18.1888 17.1526 18.0232 17.6762 17.5985 18.1009C17.1738 18.5257 16.6502 18.6913 16.1039 18.7647C15.5942 18.8333 14.9577 18.8332 14.2189 18.8332H5.77589C5.03715 18.8332 4.40063 18.8333 3.89091 18.7647C3.34464 18.6913 2.82102 18.5257 2.3963 18.1009C1.97158 17.6762 1.80596 17.1526 1.73252 16.6063C1.66399 16.0966 1.66402 15.4601 1.66406 14.7214V8.77831C1.66402 8.03957 1.66399 7.40306 1.73252 6.89334C1.80596 6.34708 1.97158 5.82346 2.3963 5.39874C2.82102 4.97402 3.34464 4.8084 3.89091 4.73495C4.21159 4.69184 4.58246 4.67586 4.9974 4.66996L4.9974 2.99984C4.9974 2.5396 5.3705 2.1665 5.83073 2.1665ZM3.33073 8.83317V14.6665C3.33073 15.4757 3.3325 15.9988 3.38432 16.3843C3.43292 16.7457 3.51137 16.859 3.57481 16.9224C3.63825 16.9859 3.75154 17.0643 4.11299 17.1129C4.49841 17.1647 5.0215 17.1665 5.83073 17.1665H14.1641C14.9733 17.1665 15.4964 17.1647 15.8818 17.1129C16.2433 17.0643 16.3566 16.9859 16.42 16.9224C16.4834 16.859 16.5619 16.7457 16.6105 16.3843C16.6623 15.9988 16.6641 15.4757 16.6641 14.6665V8.83317H3.33073Z" fill="#4E6262"/>
</svg>
