<svg width="40" height="40" viewBox="0 0 40 40" fill="none" xmlns="http://www.w3.org/2000/svg">
<path d="M34.62 15.26L32.34 8.41834C32.0093 7.42247 31.3731 6.55617 30.5219 5.94251C29.6707 5.32886 28.6477 4.99907 27.5984 5H12.4017C11.3524 4.99907 10.3294 5.32886 9.47818 5.94251C8.62696 6.55617 7.99079 7.42247 7.66004 8.41834L5.38004 15.26C4.77439 15.5141 4.25717 15.9413 3.89312 16.4879C3.52906 17.0346 3.33436 17.6765 3.33337 18.3333V26.6667C3.33337 27.9217 4.03837 29.0033 5.06504 29.5717C5.04337 29.6817 5.00004 29.7817 5.00004 29.8967V33.3333C5.00004 33.7754 5.17564 34.1993 5.4882 34.5118C5.80076 34.8244 6.22468 35 6.66671 35H8.33337C8.7754 35 9.19932 34.8244 9.51188 34.5118C9.82445 34.1993 10 33.7754 10 33.3333V30H30V33.3333C30 33.7754 30.1756 34.1993 30.4882 34.5118C30.8008 34.8244 31.2247 35 31.6667 35H33.3334C33.7754 35 34.1993 34.8244 34.5119 34.5118C34.8244 34.1993 35 33.7754 35 33.3333V29.8967C35 29.7817 34.9567 29.68 34.935 29.5717C35.4574 29.2869 35.8936 28.8671 36.1983 28.3561C36.5029 27.845 36.6647 27.2616 36.6667 26.6667V18.3333C36.6667 16.9517 35.82 15.765 34.62 15.26ZM6.66671 26.6667V18.3333H33.3334L33.3367 26.6667H6.66671ZM12.4017 8.33334H27.5967C28.315 8.33334 28.9517 8.79 29.1784 9.47334L31.0217 15H8.97837L10.82 9.47334C10.9306 9.14133 11.1429 8.85254 11.4268 8.64793C11.7107 8.44332 12.0518 8.33325 12.4017 8.33334Z" fill="#0D8E75"/>
<path d="M10.8334 25C12.2141 25 13.3334 23.8807 13.3334 22.5C13.3334 21.1193 12.2141 20 10.8334 20C9.45266 20 8.33337 21.1193 8.33337 22.5C8.33337 23.8807 9.45266 25 10.8334 25Z" fill="#0D8E75"/>
<path d="M29.1667 25C30.5474 25 31.6667 23.8807 31.6667 22.5C31.6667 21.1193 30.5474 20 29.1667 20C27.786 20 26.6667 21.1193 26.6667 22.5C26.6667 23.8807 27.786 25 29.1667 25Z" fill="#0D8E75"/>
</svg>
