<svg width="20" height="21" viewBox="0 0 20 21" fill="none" xmlns="http://www.w3.org/2000/svg">
<path fill-rule="evenodd" clip-rule="evenodd" d="M5.13194 2.1665H14.8628C15.3021 2.16649 15.6811 2.16648 15.9933 2.19198C16.3227 2.2189 16.6504 2.27833 16.9657 2.43899C17.4361 2.67867 17.8186 3.06112 18.0582 3.53153C18.2189 3.84685 18.2783 4.17453 18.3053 4.50398C18.3308 4.81612 18.3307 5.19508 18.3307 5.63437V15.3653C18.3307 15.8046 18.3308 16.1836 18.3053 16.4957C18.2783 16.8252 18.2189 17.1528 18.0582 17.4681C17.8186 17.9386 17.4361 18.321 16.9657 18.5607C16.6504 18.7213 16.3227 18.7808 15.9933 18.8077C15.6811 18.8332 15.3021 18.8332 14.8629 18.8332H5.13192C4.69264 18.8332 4.31368 18.8332 4.00154 18.8077C3.67209 18.7808 3.3444 18.7213 3.02909 18.5607C2.55868 18.321 2.17623 17.9386 1.93655 17.4681C1.77589 17.1528 1.71646 16.8252 1.68954 16.4957C1.66404 16.1836 1.66405 15.8046 1.66406 15.3653V5.63439C1.66405 5.19509 1.66404 4.81613 1.68954 4.50398C1.71646 4.17453 1.77589 3.84685 1.93655 3.53153C2.17623 3.06112 2.55868 2.67867 3.02909 2.43899C3.3444 2.27833 3.67209 2.2189 4.00154 2.19198C4.31368 2.16648 4.69265 2.16649 5.13194 2.1665ZM4.13726 3.85311C3.91087 3.87161 3.82694 3.90301 3.78574 3.924C3.62894 4.00389 3.50145 4.13138 3.42156 4.28818C3.40056 4.32938 3.36917 4.41332 3.35067 4.6397C3.33138 4.87582 3.33073 5.18604 3.33073 5.66651V6.23545L16.6518 4.75533C16.6497 4.71476 16.6471 4.67634 16.6441 4.6397C16.6256 4.41332 16.5942 4.32938 16.5732 4.28818C16.4933 4.13138 16.3659 4.00389 16.2091 3.924C16.1679 3.90301 16.0839 3.87161 15.8575 3.85311C15.6214 3.83382 15.3112 3.83317 14.8307 3.83317H5.16406C4.6836 3.83317 4.37337 3.83382 4.13726 3.85311ZM16.6641 6.43089L13.5977 6.7716L16.4026 16.9393C16.4717 16.8741 16.5296 16.7972 16.5732 16.7115C16.5942 16.6703 16.6256 16.5864 16.6441 16.36C16.6634 16.1239 16.6641 15.8136 16.6641 15.3332V6.43089ZM14.7364 17.1665L11.9202 6.95798L3.33073 7.91237V15.3332C3.33073 15.8136 3.33138 16.1239 3.35067 16.36C3.36917 16.5864 3.40056 16.6703 3.42156 16.7115C3.50145 16.8683 3.62894 16.9958 3.78574 17.0757C3.82694 17.0967 3.91087 17.1281 4.13726 17.1466C4.37337 17.1659 4.6836 17.1665 5.16406 17.1665H14.7364ZM8.33073 10.4998C7.47885 10.4998 6.66406 11.1793 6.66406 12.24C6.66406 12.7329 6.89678 13.2012 7.27145 13.6334C7.61285 14.0273 8.02596 14.3363 8.33073 14.5341C8.63549 14.3363 9.04861 14.0273 9.39001 13.6334C9.76468 13.2012 9.9974 12.7329 9.9974 12.24C9.9974 11.1699 9.21766 10.4998 8.33073 10.4998ZM4.9974 12.24C4.9974 10.2126 6.60529 8.83317 8.33073 8.83317C10.1105 8.83317 11.6641 10.222 11.6641 12.24C11.6641 13.2796 11.1722 14.1219 10.6494 14.725C10.1253 15.3298 9.51392 15.761 9.13162 16C8.63945 16.3076 8.02201 16.3076 7.52984 16C7.14754 15.761 6.53619 15.3298 6.01201 14.725C5.48922 14.1218 4.9974 13.2796 4.9974 12.24Z" fill="#3E423C"/>
</svg>
