<svg width="20" height="21" viewBox="0 0 20 21" fill="none" xmlns="http://www.w3.org/2000/svg">
<path fill-rule="evenodd" clip-rule="evenodd" d="M5.39456 3.83353C5.40149 3.83354 5.40802 3.83355 5.41412 3.83355H13.9915C14.0039 3.83355 14.0165 3.83354 14.0293 3.83353C14.2084 3.8334 14.4226 3.83325 14.5965 3.85783C14.7502 3.87958 15.2458 3.96693 15.4569 4.47659C15.668 4.98624 15.3794 5.3984 15.286 5.52249C15.1804 5.66282 15.0288 5.8142 14.9021 5.94077C14.8931 5.94979 14.8842 5.95868 14.8754 5.96743L12.0093 8.83355L14.8754 11.6997C14.8842 11.7084 14.8931 11.7173 14.9021 11.7263C15.0288 11.8529 15.1804 12.0043 15.286 12.1446C15.3794 12.2687 15.668 12.6809 15.4569 13.1905C15.2458 13.7002 14.7502 13.7875 14.5965 13.8093C14.4226 13.8339 14.2084 13.8337 14.0293 13.8336C14.0165 13.8336 14.0039 13.8335 13.9915 13.8335H5.83078V16.3335C5.83078 16.7938 5.45769 17.1669 4.99745 17.1669C4.53721 17.1669 4.16412 16.7938 4.16412 16.3335V5.08355C4.16412 5.07745 4.1641 5.07092 4.16409 5.06399C4.16395 4.98615 4.16372 4.85885 4.17917 4.74391C4.19923 4.59477 4.25806 4.3498 4.46921 4.13865C4.68036 3.9275 4.92534 3.86866 5.07448 3.84861C5.18942 3.83315 5.31672 3.83338 5.39456 3.83353ZM5.83078 12.1669H12.9856L10.4772 9.65851C10.4739 9.65518 10.4702 9.6515 10.4662 9.64749C10.4231 9.60465 10.3427 9.5246 10.279 9.44111C10.1946 9.33057 10.0665 9.12353 10.0665 8.83355C10.0665 8.54357 10.1946 8.33653 10.279 8.22599C10.3427 8.1425 10.4231 8.06245 10.4662 8.01961C10.4702 8.0156 10.4739 8.01192 10.4772 8.00859L12.9856 5.50022H5.83078V12.1669ZM14.3631 5.50808C14.3669 5.50861 14.366 5.50868 14.3613 5.50784L14.3631 5.50808ZM13.953 4.52206C13.9557 4.51815 13.9564 4.51759 13.9541 4.52059C13.9538 4.52102 13.9534 4.52151 13.953 4.52206ZM13.9541 13.1465C13.9564 13.1495 13.9557 13.149 13.953 13.145C13.9534 13.1456 13.9538 13.1461 13.9541 13.1465ZM14.3613 12.1593C14.366 12.1584 14.3669 12.1585 14.3631 12.159L14.3613 12.1593Z" fill="#4E6262"/>
</svg>
