<svg width="32" height="32" viewBox="0 0 32 32" fill="none" xmlns="http://www.w3.org/2000/svg">
<g id="Size=S, V=Parsec">
<mask id="mask0_6819_199362" style="mask-type:alpha" maskUnits="userSpaceOnUse" x="0" y="0" width="32" height="32">
<rect id="Rectangle 1261254275" width="32" height="32" fill="#D9D9D9"/>
</mask>
<g mask="url(#mask0_6819_199362)">
<path id="2020092217241701 1 (Traced)" fill-rule="evenodd" clip-rule="evenodd" d="M14.9301 7.00365C13.2116 7.09144 12.0063 7.23323 10.6285 7.50968C7.13316 8.21106 4.22186 9.56031 2.2458 11.3948C1.93616 11.6822 1.37427 12.3207 1.14866 12.6415C-0.169954 14.5162 -0.357097 16.5283 0.606953 18.4655L0.731443 18.7156H2.97302H5.21462L5.23223 18.6598C5.2419 18.6291 5.47114 17.4744 5.74165 16.0938L6.23348 13.5836H6.66876C7.04241 13.5836 7.10407 13.5889 7.10407 13.621C7.10407 13.6416 7.08394 13.7604 7.05934 13.885C7.03474 14.0095 7.01779 14.1222 7.0217 14.1354C7.02559 14.1486 7.06464 14.11 7.10845 14.0498C7.35262 13.7137 7.80085 13.4844 8.21374 13.4844C8.74868 13.4844 9.16689 13.8788 9.31784 14.5257C9.39879 14.8725 9.3428 15.5279 9.19258 15.9922C9.07031 16.37 8.80408 16.8487 8.56659 17.1178C8.12044 17.6233 7.3884 17.8151 6.92441 17.5482C6.80917 17.4819 6.61781 17.268 6.55887 17.1396C6.52794 17.0722 6.5104 17.0536 6.50207 17.0793C6.48512 17.1317 6.18078 18.6563 6.18078 18.6888C6.18078 18.708 9.7654 18.7156 18.7315 18.7156H31.2823L31.3946 18.4941C31.6235 18.043 31.7867 17.5931 31.8883 17.1324C31.985 16.6943 32 16.5425 32 16.0008C32 15.4592 31.985 15.3073 31.8883 14.8692C31.6798 13.9243 31.1794 12.9634 30.4551 12.1168C28.3388 9.64326 24.3594 7.83863 19.6674 7.22467C18.4408 7.06414 17.6452 7.01257 16.2491 7.00308C15.6143 6.99876 15.0208 6.99901 14.9301 7.00365ZM22.1955 13.4969C22.708 13.6183 23.0981 14.0757 23.1875 14.6602C23.2152 14.8408 23.2169 14.9311 23.1972 15.1737C23.1841 15.3357 23.1571 15.5517 23.1372 15.6539L23.101 15.8397H21.8624H20.6237V15.9839C20.6237 16.4718 20.7776 16.7388 21.0981 16.807C21.304 16.8508 21.4939 16.8277 21.6632 16.7383C21.788 16.6725 21.9867 16.4829 21.9867 16.4297C21.9867 16.4188 22.2043 16.4099 22.4703 16.4099C22.7363 16.4099 22.9539 16.4187 22.9539 16.4295C22.9539 16.4403 22.904 16.5407 22.8429 16.6525C22.5348 17.2173 22.103 17.535 21.503 17.6381C21.0486 17.7163 20.7188 17.6723 20.3912 17.4899C20.0871 17.3207 19.8814 17.0603 19.762 16.6933C19.7031 16.5125 19.6824 16.0137 19.7214 15.7133C19.8335 14.8487 20.3338 14.0324 20.9596 13.6933C21.3408 13.4866 21.8263 13.4095 22.1955 13.4969ZM12.3916 13.5547C12.7495 13.6723 12.9385 13.8118 13.0447 14.0367C13.0858 14.1236 13.094 14.1794 13.0932 14.3645C13.0924 14.5502 13.0546 14.7886 12.8681 15.7835C12.7376 16.4792 12.6438 17.0371 12.6438 17.1173C12.6438 17.2547 12.6903 17.4016 12.7337 17.4016C12.7463 17.4016 12.7534 17.4378 12.7496 17.4822L12.7428 17.5627L12.2426 17.5694L11.7425 17.5761V17.338V17.0999L11.6394 17.2022C11.315 17.5243 10.8411 17.6997 10.3825 17.6675C9.85549 17.6305 9.5215 17.2603 9.52255 16.7144C9.52378 16.0763 9.90356 15.5452 10.5005 15.3469C10.5851 15.3187 10.9214 15.2563 11.2479 15.208C11.5743 15.1598 11.883 15.103 11.9338 15.0817C12.0591 15.0294 12.1507 14.9067 12.1694 14.7661C12.2097 14.4627 11.9689 14.2762 11.5836 14.3125C11.2585 14.343 11.0354 14.4913 10.927 14.7488L10.8748 14.8728H10.4293C10.1843 14.8728 9.98387 14.8634 9.98387 14.8519C9.98387 14.8028 10.0751 14.5382 10.1374 14.4063C10.338 13.9817 10.6928 13.6856 11.149 13.5619C11.4087 13.4915 11.442 13.4885 11.8634 13.4967C12.161 13.5025 12.2686 13.5143 12.3916 13.5547ZM16.1967 13.5278C16.1845 13.5744 16.0073 14.5167 16.0073 14.535C16.0073 14.5411 15.8861 14.5448 15.738 14.5432C15.4917 14.5406 15.4564 14.5462 15.3258 14.6077C15.0444 14.7401 14.8273 14.9989 14.75 15.2943C14.7303 15.3692 14.6224 15.9131 14.5101 16.5029L14.306 17.5751H13.8486C13.5711 17.5751 13.3913 17.5658 13.3913 17.5513C13.3913 17.5237 14.1126 13.6917 14.13 13.627C14.1406 13.5875 14.1816 13.5836 14.5802 13.5836H15.0188L15.0076 13.6394C14.9566 13.8914 14.8908 14.2665 14.8964 14.2728C14.9002 14.2771 14.9261 14.2437 14.954 14.1986C15.247 13.7242 15.5974 13.4886 16.0142 13.4858C16.1888 13.4845 16.2069 13.4887 16.1967 13.5278ZM18.5043 13.5338C18.7444 13.6021 19.0269 13.7637 19.1502 13.9032C19.3132 14.0876 19.4094 14.377 19.3819 14.6001C19.3552 14.8166 19.3997 14.7984 18.8966 14.7984H18.4474V14.6781C18.4474 14.4324 18.2766 14.2771 17.9853 14.2581C17.5995 14.2329 17.3006 14.4306 17.2954 14.7146C17.2936 14.8115 17.3031 14.8371 17.3637 14.8982C17.4397 14.9748 17.5104 15.0012 18.1286 15.184C18.7318 15.3622 18.9356 15.4932 19.0669 15.7869C19.2336 16.1598 19.1503 16.7405 18.883 17.0698C18.6951 17.3011 18.3396 17.5169 17.9576 17.6314C17.8014 17.6782 17.7203 17.6854 17.3592 17.6848C16.8835 17.6839 16.7452 17.6538 16.4159 17.4798C16.1993 17.3653 16.0707 17.2309 15.9885 17.0334C15.9391 16.9145 15.9303 16.8597 15.9303 16.6702C15.9303 16.5475 15.9379 16.4164 15.9472 16.3789L15.9641 16.3107H16.4237H16.8832L16.8808 16.4409C16.8746 16.7844 17.1143 16.9523 17.5703 16.9239C17.8026 16.9094 17.9024 16.8812 18.0098 16.7995C18.1257 16.7114 18.1836 16.5959 18.1836 16.4525C18.1836 16.3436 18.1746 16.3194 18.1071 16.2477C18.0175 16.1523 17.9747 16.1358 17.3372 15.9498C17.0712 15.8722 16.8091 15.7832 16.7547 15.752C16.4899 15.6003 16.337 15.3361 16.3197 15.0005C16.2863 14.3494 16.6314 13.8686 17.3177 13.61C17.5819 13.5105 17.6986 13.4908 18.0427 13.4873C18.264 13.4851 18.3706 13.4958 18.5043 13.5338ZM26.0622 13.5333C26.6609 13.706 27.0165 14.21 26.9663 14.8146L26.9511 14.9967L26.4749 14.9967L25.9986 14.9967L25.9975 14.866C25.9962 14.6976 25.9211 14.5411 25.7932 14.44C25.7034 14.369 25.6857 14.3646 25.4964 14.3654C25.3257 14.3661 25.2759 14.3762 25.1687 14.4322C24.7686 14.6411 24.4708 15.3151 24.4708 16.012C24.4708 16.3994 24.5644 16.638 24.7614 16.7523C24.8868 16.8251 25.0951 16.832 25.2635 16.7689C25.419 16.7107 25.6087 16.5061 25.7111 16.2863L25.7922 16.1124H26.2526C26.5813 16.1124 26.7131 16.1205 26.7131 16.1405C26.7131 16.156 26.6692 16.273 26.6157 16.4004C26.2413 17.2918 25.6507 17.7062 24.8076 17.6691C24.6024 17.6601 24.5139 17.6442 24.3871 17.5936C23.8913 17.3958 23.569 16.9399 23.5152 16.3599C23.4952 16.1448 23.5365 15.7077 23.6042 15.4182C23.6704 15.1352 23.8302 14.7524 23.9844 14.508C24.3327 13.9555 24.7407 13.6406 25.2622 13.5217C25.4876 13.4703 25.8625 13.4757 26.0622 13.5333ZM21.4371 14.3824C21.3585 14.4136 21.2735 14.4558 21.2481 14.4762C21.0803 14.6112 20.9415 14.8002 20.8363 15.0368L20.7799 15.1636L21.5207 15.176C21.9281 15.1828 22.2664 15.1834 22.2725 15.1773C22.2785 15.1712 22.2834 15.0695 22.2832 14.9513C22.2831 14.7261 22.2553 14.6298 22.1545 14.5047C22.0159 14.3327 21.6987 14.2786 21.4371 14.3824ZM7.56572 14.4124C7.31039 14.4925 7.11181 14.6775 6.95237 14.9837C6.7601 15.353 6.68666 15.6387 6.68769 16.0132C6.68864 16.3631 6.75898 16.5383 6.96118 16.6942C7.16 16.8476 7.42468 16.852 7.69012 16.7064C7.94737 16.5653 8.17806 16.1978 8.30424 15.7281C8.35555 15.5372 8.36448 15.4585 8.36615 15.1827C8.36793 14.8897 8.36338 14.8502 8.31627 14.7488C8.17111 14.4364 7.89037 14.3105 7.56572 14.4124ZM11.7865 15.7157C11.6341 15.7806 11.4752 15.8193 11.0701 15.8899C10.6921 15.9559 10.491 16.1749 10.4901 16.5215C10.4895 16.7098 10.5431 16.8162 10.6713 16.8819C11.0076 17.054 11.6658 16.7416 11.8382 16.3278C11.8811 16.2247 11.9843 15.7551 11.9843 15.6627C11.9843 15.6331 11.9732 15.6361 11.7865 15.7157ZM31.1649 18.8798C31.1441 18.9156 31.138 18.9373 31.1513 18.928C31.1766 18.9103 31.2278 18.8148 31.2119 18.8148C31.2068 18.8148 31.1857 18.844 31.1649 18.8798ZM0.930061 19.0379C1.04673 19.2348 1.3409 19.6299 1.57138 19.8992C2.26391 20.7083 3.14717 21.4414 4.23514 22.1101C4.39102 22.206 4.52068 22.2819 4.52325 22.2788C4.52585 22.2758 4.66311 21.5816 4.82831 20.7362C4.99354 19.8907 5.13361 19.1795 5.13962 19.1557C5.14997 19.1146 5.04135 19.1123 3.07713 19.1125L1.00375 19.1127L0.941206 19.0319L0.878664 18.9511L0.930061 19.0379ZM6.07845 19.1804C6.07008 19.218 5.90799 20.0216 5.71826 20.9663C5.52854 21.911 5.36796 22.69 5.3614 22.6974C5.35485 22.7048 5.31799 22.6924 5.27947 22.67C5.24096 22.6475 5.20504 22.6341 5.19967 22.6401C5.17864 22.6639 6.10883 23.0962 6.67589 23.3262C8.6458 24.1252 10.9403 24.6647 13.3143 24.8872C14.3843 24.9875 14.6816 25 16.0073 25C17.3329 25 17.6302 24.9875 18.7002 24.8872C21.9743 24.5804 25.0276 23.6841 27.3906 22.3363C28.8764 21.4889 30.0791 20.4604 30.8636 19.3664L31.0459 19.1123H18.5698H6.09368L6.07845 19.1804ZM5.01568 22.5584C5.05799 22.5845 5.10251 22.6059 5.1146 22.6059C5.12669 22.6059 5.10196 22.5845 5.05964 22.5584C5.01732 22.5323 4.97281 22.5109 4.96072 22.5109C4.94863 22.5109 4.97336 22.5323 5.01568 22.5584Z" fill="#1E7EEB"/>
</g>
</g>
</svg>
