<svg width="132" height="32" viewBox="0 0 132 32" fill="none" xmlns="http://www.w3.org/2000/svg">
<mask id="mask0_6819_199365" style="mask-type:alpha" maskUnits="userSpaceOnUse" x="0" y="0" width="132" height="32">
<rect width="132" height="32" fill="#D9D9D9"/>
</mask>
<g mask="url(#mask0_6819_199365)">
<path fill-rule="evenodd" clip-rule="evenodd" d="M62.658 0.00648599C58.0934 0.162556 54.8918 0.414623 51.232 0.906106C41.9475 2.15299 34.2143 4.55166 28.9654 7.81292C28.1429 8.32388 26.6504 9.459 26.0511 10.0293C22.5486 13.3622 22.0515 16.9392 24.6122 20.3831L24.9429 20.8277H30.8971H36.8513L36.8981 20.7286C36.9238 20.674 37.5327 18.6212 38.2512 16.1668L39.5577 11.7041H40.7139C41.7064 11.7041 41.8702 11.7136 41.8702 11.7707C41.8702 11.8073 41.8167 12.0185 41.7514 12.2399C41.686 12.4614 41.641 12.6617 41.6514 12.6852C41.6617 12.7086 41.7654 12.6401 41.8818 12.5329C42.5304 11.9354 43.721 11.5278 44.8177 11.5278C46.2387 11.5278 47.3495 12.229 47.7505 13.379C47.9655 13.9955 47.8168 15.1608 47.4178 15.9861C47.093 16.6577 46.3858 17.5088 45.755 17.9872C44.5699 18.8859 42.6254 19.2269 41.393 18.7523C41.0869 18.6344 40.5786 18.2542 40.422 18.026C40.3398 17.9062 40.2932 17.873 40.2711 17.9188C40.2261 18.0118 39.4177 20.7222 39.4177 20.7802C39.4177 20.8141 48.9393 20.8277 72.7556 20.8277H106.093L106.392 20.434C107 19.632 107.433 18.8322 107.703 18.0132C107.96 17.2344 108 16.9644 108 16.0015C108 15.0386 107.96 14.7686 107.703 13.9898C107.149 12.3098 105.82 10.6016 103.896 9.09652C98.2749 4.69913 87.7047 1.4909 75.2417 0.399417C71.9834 0.11403 69.8699 0.0223531 66.1616 0.00547231C64.4755 -0.00219679 62.8989 -0.00175609 62.658 0.00648599ZM81.9568 11.5501C83.3181 11.7658 84.3544 12.5791 84.5919 13.6182C84.6653 13.9391 84.6698 14.0998 84.6177 14.531C84.5829 14.8189 84.5112 15.2031 84.4583 15.3847L84.3621 15.715H81.0719H77.7817V15.9713C77.7817 16.8388 78.1904 17.3133 79.0419 17.4346C79.5886 17.5125 80.0931 17.4715 80.543 17.3126C80.8744 17.1955 81.4021 16.8585 81.4021 16.7639C81.4021 16.7445 81.9802 16.7287 82.6867 16.7287C83.3933 16.7287 83.9714 16.7444 83.9714 16.7636C83.9714 16.7828 83.8387 16.9612 83.6766 17.1601C82.8579 18.1642 81.711 18.7288 80.1175 18.9122C78.9102 19.0511 78.0344 18.973 77.164 18.6488C76.3563 18.3479 75.81 17.885 75.4927 17.2326C75.3363 16.9112 75.2815 16.0244 75.385 15.4903C75.6827 13.9532 77.0117 12.5021 78.6739 11.8991C79.6865 11.5318 80.9762 11.3946 81.9568 11.5501ZM55.9152 11.6528C56.866 11.8619 57.3679 12.1098 57.65 12.5097C57.759 12.6641 57.7809 12.7634 57.7789 13.0925C57.7768 13.4226 57.6763 13.8464 57.1808 15.6151C56.8343 16.8519 56.5852 17.8437 56.5852 17.9864C56.5852 18.2306 56.7086 18.4917 56.8239 18.4917C56.8573 18.4917 56.8763 18.5562 56.8662 18.635L56.8479 18.7782L55.5195 18.7901L54.1911 18.8019V18.3786V17.9553L53.9173 18.1372C53.0554 18.7099 51.7966 19.0217 50.5785 18.9645C49.1786 18.8987 48.2915 18.2406 48.2943 17.2701C48.2975 16.1356 49.3063 15.1914 50.8919 14.8389C51.1167 14.7888 52.0101 14.6778 52.8772 14.592C53.7444 14.5063 54.5643 14.4053 54.6993 14.3675C55.0321 14.2744 55.2753 14.0563 55.3249 13.8064C55.4321 13.2671 54.7925 12.9355 53.7691 12.9999C52.9053 13.0543 52.3128 13.3178 52.0248 13.7757L51.8862 13.9961H50.7029C50.0521 13.9961 49.5196 13.9793 49.5196 13.9589C49.5196 13.8717 49.7619 13.4012 49.9274 13.1667C50.4603 12.412 51.4028 11.8855 52.6145 11.6656C53.3044 11.5404 53.3927 11.535 54.5122 11.5496C55.3028 11.56 55.5885 11.581 55.9152 11.6528ZM66.0224 11.605C65.99 11.6879 65.5193 13.363 65.5193 13.3956C65.5193 13.4063 65.1973 13.4129 64.804 13.4102C64.15 13.4056 64.0561 13.4154 63.7091 13.5247C62.9616 13.7601 62.385 14.2203 62.1796 14.7453C62.1274 14.8787 61.8407 15.8455 61.5425 16.894L61.0003 18.8003H59.7854C59.0481 18.8003 58.5705 18.7836 58.5705 18.7579C58.5705 18.7088 60.4866 11.8964 60.5328 11.7813C60.5609 11.7112 60.67 11.7041 61.7288 11.7041H62.8938L62.8639 11.8033C62.7284 12.2513 62.5536 12.9182 62.5684 12.9294C62.5786 12.9371 62.6475 12.8777 62.7214 12.7976C63.4999 11.9541 64.4305 11.5353 65.5378 11.5302C66.0015 11.5281 66.0496 11.5355 66.0224 11.605ZM72.1521 11.6157C72.7899 11.7371 73.5402 12.0243 73.8678 12.2724C74.3006 12.6002 74.5562 13.1147 74.4832 13.5112C74.4124 13.8961 74.5304 13.8638 73.194 13.8638H72.0009V13.65C72.0009 13.2131 71.5471 12.937 70.7736 12.9032C69.7487 12.8584 68.9547 13.21 68.9408 13.7149C68.936 13.8871 68.9613 13.9327 69.1223 14.0412C69.3241 14.1774 69.512 14.2244 71.1542 14.5492C72.7562 14.8662 73.2977 15.0991 73.6465 15.6212C74.0893 16.2841 73.8681 17.3165 73.158 17.9018C72.6589 18.3131 71.7145 18.6967 70.6998 18.9002C70.2849 18.9835 70.0695 18.9963 69.1104 18.9952C67.8469 18.9936 67.4793 18.9402 66.6047 18.6307C66.0294 18.4272 65.6877 18.1883 65.4696 17.8371C65.3382 17.6257 65.3149 17.5284 65.3149 17.1915C65.3149 16.9733 65.3351 16.7403 65.3598 16.6736L65.4047 16.5524H66.6253H67.846L67.8397 16.7838C67.8232 17.3946 68.4598 17.693 69.6711 17.6424C70.2883 17.6167 70.5532 17.5665 70.8385 17.4214C71.1464 17.2648 71.3001 17.0593 71.3001 16.8045C71.3001 16.6108 71.2761 16.5678 71.0971 16.4403C70.8589 16.2708 70.7454 16.2414 69.052 15.9107C68.3455 15.7727 67.6491 15.6145 67.5046 15.5591C66.8013 15.2894 66.395 14.8197 66.3493 14.2231C66.2606 13.0656 67.1771 12.2109 69.0002 11.7512C69.7019 11.5743 70.0118 11.5392 70.9259 11.533C71.5137 11.529 71.7969 11.5482 72.1521 11.6157ZM92.2276 11.6148C93.8179 11.9218 94.7625 12.8178 94.6291 13.8927L94.5889 14.2164L93.3239 14.2164L92.0588 14.2163L92.0559 13.9841C92.0523 13.6847 91.8528 13.4064 91.5132 13.2267C91.2746 13.1005 91.2277 13.0926 90.7248 13.094C90.2714 13.0952 90.1392 13.1133 89.8543 13.2128C88.7915 13.5841 88.0005 14.7824 88.0005 16.0214C88.0005 16.71 88.2493 17.1342 88.7724 17.3374C89.1057 17.4669 89.6588 17.4791 90.1063 17.3669C90.5191 17.2634 91.0232 16.8996 91.2952 16.509L91.5104 16.1998H92.7335C93.6065 16.1998 93.9565 16.2141 93.9565 16.2498C93.9565 16.2773 93.8402 16.4853 93.6979 16.7119C92.7034 18.2965 91.1347 19.0332 88.8951 18.9673C88.35 18.9513 88.1151 18.9231 87.7782 18.8331C86.4612 18.4815 85.6052 17.6709 85.4621 16.6398C85.4091 16.2574 85.5188 15.4804 85.6986 14.9657C85.8745 14.4625 86.299 13.7821 86.7084 13.3475C87.6337 12.3653 88.7174 11.8055 90.1026 11.594C90.7014 11.5027 91.6972 11.5124 92.2276 11.6148ZM79.9423 13.1242C79.7335 13.1797 79.5076 13.2547 79.4403 13.291C78.9945 13.5311 78.6259 13.867 78.3463 14.2876L78.1965 14.513L80.1643 14.5351C81.2465 14.5472 82.1451 14.5482 82.1612 14.5373C82.1773 14.5265 82.1902 14.3457 82.1899 14.1356C82.1894 13.7352 82.1157 13.5642 81.8478 13.3417C81.4796 13.0358 80.6373 12.9397 79.9423 13.1242ZM43.0964 13.1776C42.4182 13.3201 41.8908 13.6489 41.4672 14.1933C40.9565 14.8498 40.7614 15.3576 40.7642 16.0235C40.7667 16.6456 40.9535 16.957 41.4906 17.2342C42.0187 17.5068 42.7218 17.5147 43.4269 17.2559C44.1102 17.005 44.723 16.3517 45.0581 15.5167C45.1944 15.1772 45.2181 15.0374 45.2226 14.547C45.2273 14.0262 45.2152 13.9559 45.0901 13.7757C44.7045 13.2202 43.9588 12.9965 43.0964 13.1776ZM54.3079 15.4946C53.9032 15.61 53.481 15.6787 52.4051 15.8043C51.401 15.9216 50.8667 16.3109 50.8642 16.9271C50.8629 17.2619 51.005 17.451 51.3456 17.5677C52.2389 17.8738 53.9872 17.3183 54.4451 16.5828C54.5593 16.3995 54.8334 15.5647 54.8334 15.4003C54.8334 15.3478 54.8038 15.3531 54.3079 15.4946ZM105.782 21.1196C105.727 21.1832 105.71 21.2218 105.746 21.2053C105.813 21.1739 105.949 21.004 105.907 21.004C105.893 21.004 105.837 21.056 105.782 21.1196ZM25.4705 21.4007C25.7804 21.7508 26.5618 22.4532 27.174 22.9319C29.0135 24.3703 31.3597 25.6737 34.2496 26.8625C34.6637 27.0328 35.0081 27.1678 35.0149 27.1623C35.0218 27.1569 35.3864 25.9228 35.8252 24.4199C36.2641 22.9169 36.6362 21.6525 36.6521 21.6101C36.6796 21.537 36.3911 21.5329 31.1736 21.5333L25.6662 21.5337L25.5001 21.3901L25.334 21.2464L25.4705 21.4007ZM39.1459 21.6541C39.1236 21.7208 38.6931 23.1495 38.1891 24.829C37.6852 26.5085 37.2586 27.8934 37.2412 27.9065C37.2238 27.9196 37.1259 27.8977 37.0236 27.8577C36.9213 27.8178 36.8259 27.7939 36.8116 27.8047C36.7558 27.8469 39.2266 28.6154 40.7328 29.0243C45.9654 30.4448 52.0601 31.404 58.3662 31.7995C61.2082 31.9778 61.9981 32 65.5193 32C69.0405 32 69.8303 31.9778 72.6724 31.7995C81.3692 31.254 89.4795 29.6607 95.7563 27.2646C99.703 25.758 102.898 23.9296 104.982 21.9847L105.466 21.5329H72.326H39.1863L39.1459 21.6541ZM36.3229 27.6594C36.4353 27.7058 36.5535 27.7438 36.5857 27.7438C36.6178 27.7438 36.5521 27.7058 36.4397 27.6594C36.3273 27.6129 36.209 27.5749 36.1769 27.5749C36.1448 27.5749 36.2105 27.6129 36.3229 27.6594Z" fill="#1E7EEB"/>
</g>
</svg>
