<svg width="48" height="22" viewBox="0 0 48 22" fill="none" xmlns="http://www.w3.org/2000/svg">
<path d="M24.907 19.0732C23.9794 19.0151 22.9097 18.8623 22.066 18.6327C21.908 18.5896 21.2537 18.3636 21.0872 18.2918C18.15 17.0132 16.1038 14.222 16.1038 10.9839C16.1038 6.54238 19.9488 2.92463 24.678 2.92463C29.3652 2.92463 33.1842 6.48067 33.2499 10.8719H36.3474C36.2817 4.87629 31.0739 0.0172176 24.678 0.0172176C18.2439 0.0172176 13.0071 4.93585 13.0071 10.9839C13.0071 15.1534 15.5022 18.7798 19.1556 20.6324C19.8152 20.9603 20.762 21.2983 21.0834 21.3908C22.1248 21.6821 23.4029 21.8759 24.5406 21.9569C24.9269 21.9842 26.276 21.9986 26.6692 22H48V19.1005H26.7051C26.4218 19.1005 25.1842 19.0904 24.907 19.0732ZM26.7051 14.5205C26.4799 14.5205 25.3018 14.5134 25.0842 14.4961C24.7154 14.4667 24.181 14.4151 23.8374 14.3411C23.4495 14.2436 23.0853 14.1144 22.9212 14.0297C21.7706 13.445 20.9865 12.3012 20.9865 10.9839C20.9865 9.06735 22.6379 7.51319 24.678 7.51319C26.6753 7.51319 28.2993 9.00636 28.3642 10.8719H31.3403C31.2777 7.46368 28.3214 4.717 24.678 4.717C20.9941 4.717 18.008 7.52252 18.008 10.9839C18.008 13.4249 19.4969 15.533 21.6652 16.5655C21.9989 16.7492 22.6265 16.9415 22.8051 16.9852C23.4174 17.1366 24.2397 17.2399 24.907 17.2859C25.1537 17.3052 26.3615 17.3139 26.6165 17.3153V17.3196H47.9992V14.5205H26.7051ZM11.0983 21.9892H7.98015V2.93108H3.42356V-1.90735e-06H11.0983V21.9892ZM0 4.39555V7.21398H3.42356V21.9892H6.41955V4.39555H0Z" fill="#D91920"/>
</svg>
