<svg width="123" height="32" viewBox="0 0 123 32" fill="none" xmlns="http://www.w3.org/2000/svg">
<g id="Group 48096060">
<path id="notisend 1 (Traced)" fill-rule="evenodd" clip-rule="evenodd" d="M23.7101 0.873376L22.1833 1.72991L20.2727 1.13473C19.2217 0.807364 18.3388 0.562558 18.3103 0.590798C18.24 0.660587 23.5125 13.7069 23.6831 13.8851C23.7976 14.0049 28.4462 4.66791 28.6215 3.96605C28.661 3.80831 28.135 3.55991 27.0494 3.22391L25.418 2.71866L25.4691 1.35093C25.4973 0.598714 25.4566 -0.00924673 25.3784 0.000106493C25.3005 0.00945972 24.5497 0.402477 23.7101 0.873376ZM11.3357 1.76427L9.996 3.00573L8.91547 2.20297L7.83512 1.40021L7.74449 3.3804L7.65386 5.3604L6.24904 6.64395C5.47649 7.34994 4.84423 7.9856 4.84423 8.05647C4.84423 8.12752 6.00651 8.32646 7.42727 8.49859C8.84804 8.67091 12.0733 9.07777 14.5947 9.40297C18.2389 9.87279 19.1596 9.94349 19.0836 9.74689C18.9705 9.45424 12.8241 0.522809 12.7358 0.522809C12.7027 0.522809 12.0726 1.08149 11.3357 1.76427ZM26.9457 14.1717C24.5104 17.2534 22.4898 19.8565 22.4557 19.9565C22.4176 20.068 22.6629 20.1031 23.0901 20.0475C23.4731 19.9975 25.9889 19.8226 28.6807 19.659C31.3726 19.4953 33.6116 19.3291 33.6561 19.2897C33.7009 19.2501 33.5706 18.4189 33.3668 17.4424L32.9962 15.6669L34.2378 15.1836C34.9208 14.9178 35.4369 14.632 35.3851 14.5485C35.333 14.465 34.6138 13.985 33.7868 13.4817L32.2831 12.5667L31.9488 10.9065C31.765 9.99349 31.5605 9.09396 31.4942 8.90761C31.399 8.63979 30.4446 9.74419 26.9457 14.1717ZM6.92879 12.3501C4.33668 12.5957 2.17998 12.8293 2.13593 12.8694C2.09188 12.9097 2.24396 13.7164 2.47381 14.6624C2.70365 15.6083 2.82112 16.4429 2.73501 16.517C2.64891 16.5911 2.11073 16.8472 1.5392 17.0861C0.967667 17.325 0.5 17.561 0.5 17.6104C0.5 17.6599 1.20766 18.1051 2.07285 18.5997L3.64588 19.4991L4.13657 21.4449C4.40629 22.5151 4.66061 23.424 4.70157 23.4646C4.76429 23.5267 12.8571 12.7518 13.2528 12.0794C13.4324 11.7744 12.6655 11.8071 6.92879 12.3501ZM9.9621 22.8664C8.75487 25.565 7.71458 27.9098 7.65005 28.0769C7.55706 28.3181 7.69464 28.4228 8.31838 28.585C8.75052 28.6976 9.53848 28.9124 10.0696 29.0625L11.035 29.3354L10.9092 30.6677C10.84 31.4005 10.8276 32 10.8815 32C10.9355 32 11.6749 31.5877 12.5245 31.0837L14.0694 30.1677L16.0273 30.7096C17.104 31.0077 18.0092 31.2276 18.0388 31.1983C18.1113 31.1262 12.487 18.2873 12.3026 18.1044C12.2225 18.0248 11.1692 20.1678 9.9621 22.8664ZM16.9891 21.9201C16.9891 22.0187 18.4709 24.1296 20.282 26.6107L23.575 31.1221L24.8633 29.8524C25.5718 29.1539 26.2202 28.5825 26.3043 28.5825C26.3883 28.5825 26.8349 28.8528 27.297 29.1834C28.746 30.22 28.6526 30.2934 28.5432 28.204L28.4451 26.3341L29.9112 24.8576C30.9094 23.8521 31.2939 23.3533 31.1166 23.2947C30.9732 23.2474 27.9194 22.9178 24.3304 22.5622C20.7413 22.2068 17.6213 21.8764 17.3969 21.8282C17.1725 21.78 16.9891 21.8214 16.9891 21.9201Z" fill="#28B4F9"/>
<path id="notisend 1 (Traced)_2" fill-rule="evenodd" clip-rule="evenodd" d="M81.5744 8.03308C80.2758 8.33454 79.5806 8.71209 78.8922 9.49039C77.872 10.6432 77.6956 12.0769 78.4009 13.4815C79.1173 14.9079 80.0925 15.4344 83.0591 15.9961C85.1203 16.3866 85.7435 16.7564 85.7435 17.5888C85.7435 18.4443 85.2071 18.8983 84.0229 19.0451C82.9375 19.1796 80.8611 18.9046 79.8743 18.4954L79.2039 18.2175L78.6413 19.4104C78.0034 20.7628 77.9672 20.6896 79.5804 21.3044C80.9914 21.842 83.9703 21.9762 85.5512 21.5733C87.7918 21.0024 89.0563 19.7829 89.2842 17.9734C89.4603 16.5737 89.1221 15.5921 88.1262 14.6134C87.2509 13.7535 86.3877 13.4329 83.3151 12.8266C82.2374 12.614 81.3931 12.0361 81.3931 11.511C81.3931 11.3691 81.5441 11.068 81.7286 10.8417C82.184 10.284 83.739 10.1802 85.5622 10.5863C87.6473 11.0508 87.5607 11.0734 87.9444 9.96398C88.1308 9.42545 88.2216 8.92596 88.1462 8.85401C88.0709 8.78224 87.4994 8.55416 86.8762 8.34749C85.4417 7.87156 82.9157 7.72173 81.5744 8.03308ZM119.459 9.58176V11.3679L118.871 11.2006C118.004 10.9538 116.193 10.9972 115.22 11.288C113.197 11.892 112.213 13.406 112.069 16.1344C111.952 18.3468 112.296 19.557 113.347 20.6409C114.665 21.9998 116.547 22.3322 118.594 21.5677L119.765 21.1301L120.139 21.5008C120.473 21.8329 120.623 21.855 121.572 21.7136L122.631 21.5557L122.679 14.6757L122.726 7.79565H121.093H119.459V9.58176ZM40.9707 14.9005V21.6456H42.5405H44.1101L43.9949 17.4636L43.8797 13.2817L44.8386 15.0804C45.3661 16.0697 46.4493 17.9313 47.2461 19.2174L48.6948 21.5557L50.5427 21.6069L52.3905 21.6582V14.9068V8.15539H50.8497H49.309L49.3032 12.6072L49.2975 17.0589L48.4414 15.4401C47.9705 14.5498 46.8515 12.5473 45.9548 10.9901L44.3241 8.15881L42.6474 8.15719L40.9707 8.15539V14.9005ZM66.0119 8.71821C65.9226 8.95276 65.7049 9.60101 65.5283 10.1588C65.2183 11.1369 65.1812 11.1763 64.4826 11.2693C63.6199 11.3842 63.4543 11.5974 63.4504 12.5966C63.4477 13.3405 63.4579 13.3524 64.2181 13.5011L64.9885 13.6519L65.0824 16.6145C65.1852 19.8568 65.3084 20.3004 66.3471 21.1675C67.0205 21.73 67.942 22.003 69.1699 22.0043C70.1693 22.0054 71.6819 21.6096 72.206 21.21C72.5226 20.9684 72.5199 20.9233 72.1345 20.0345C71.7494 19.146 71.712 19.115 71.1708 19.2348C70.2046 19.4485 69.042 19.3595 68.7269 19.0476C68.4887 18.8116 68.4215 18.263 68.3742 16.174L68.3158 13.592L70.1792 13.4369L72.0428 13.2817L71.9894 12.2949C71.9598 11.7522 71.8973 11.2465 71.8501 11.1707C71.8032 11.0952 70.9946 11.0333 70.0532 11.0333H68.3419V9.77422V8.51513H67.8208C67.5342 8.51513 67.0464 8.46495 66.737 8.40343C66.2593 8.30864 66.1499 8.35613 66.0119 8.71821ZM57.0889 11.029C54.4868 11.4851 52.9036 13.5189 52.9129 16.3938C52.92 18.6202 53.9923 20.4536 55.8345 21.3891C56.761 21.8595 59.3292 21.9572 60.513 21.567C61.748 21.16 62.9362 20.0852 63.4513 18.9094C63.9787 17.7056 64.0307 15.6871 63.5693 14.3413C62.7285 11.8888 60.0358 10.5126 57.0889 11.029ZM92.8236 11.1704C92.1288 11.3731 91.5842 11.7013 90.9817 12.28C89.8299 13.3865 89.4828 14.5492 89.5809 16.9717C89.6441 18.5375 89.7094 18.8168 90.1954 19.6001C91.3455 21.4546 93.5495 22.2376 96.5408 21.8544C97.3659 21.7487 98.3246 21.5447 98.671 21.401L99.3009 21.1398L99.0026 20.13L98.704 19.1202L97.8883 19.2587C96.5636 19.4838 94.185 19.4239 93.6753 19.1526C93.2515 18.9273 92.8129 18.2698 92.8129 17.8599C92.8129 17.757 94.2527 17.6885 96.4143 17.6885H100.016L100.115 16.9564C100.26 15.8849 99.9636 14.1535 99.4742 13.2099C98.4263 11.1894 95.6622 10.3417 92.8236 11.1704ZM105.175 11.3346L104.033 11.7983L103.629 11.4222C103.218 11.0382 103.192 11.0382 101.65 11.419L100.97 11.5868V16.6163V21.6456H102.692H104.414V17.8004C104.414 14.8654 104.47 13.9094 104.65 13.7612C105.389 13.1518 107.476 13.4016 107.901 14.1504C108.044 14.4026 108.146 15.6551 108.188 17.6885C108.268 21.5751 108.305 21.6456 110.261 21.6456H111.514L111.452 17.7335C111.394 14.1156 111.359 13.7655 110.991 13.0795C110.46 12.0895 109.67 11.4601 108.542 11.1277C107.256 10.7488 106.505 10.795 105.175 11.3346ZM73.1757 11.1533C73.1092 11.2191 73.0548 13.4085 73.0548 16.0184V20.7635L73.5533 21.1988C73.965 21.5584 74.2492 21.6352 75.1847 21.6399L76.3176 21.6456V16.3395V11.0333H74.8071C73.9762 11.0333 73.2421 11.0873 73.1757 11.1533ZM59.9087 13.9609C60.3981 14.4465 60.5244 14.7388 60.6274 15.6247C60.8386 17.4399 60.3029 18.9521 59.3145 19.3311C58.5911 19.6084 57.3329 19.4149 56.8339 18.9497C56.0359 18.2058 55.7936 15.7063 56.3928 14.401C56.6852 13.7644 57.4482 13.3817 58.4357 13.3765C59.1905 13.3723 59.3988 13.4549 59.9087 13.9609ZM96.1581 13.4833C96.5125 13.6182 96.982 14.4721 96.982 14.9814C96.982 15.3318 96.8779 15.3502 94.8974 15.3502C93.5852 15.3502 92.8129 15.2815 92.8129 15.1646C92.8129 14.7544 93.3429 13.7564 93.6568 13.5754C94.0212 13.3651 95.687 13.304 96.1581 13.4833ZM119.286 13.6713C119.367 13.7538 119.491 14.966 119.561 16.3652C119.687 18.8675 119.683 18.9125 119.289 19.1217C119.068 19.2386 118.359 19.3373 117.712 19.3411C116.728 19.3467 116.462 19.28 116.092 18.9346C115.498 18.3813 115.232 17.3097 115.333 15.8855C115.43 14.5258 115.709 13.9684 116.468 13.6159C117.04 13.3504 119.009 13.3891 119.286 13.6713Z" fill="black"/>
<path id="notisend 1 (Traced)_3" fill-rule="evenodd" clip-rule="evenodd" d="M73.9262 6.70138C72.9254 7.12588 72.6495 8.49828 73.3929 9.35518C73.7728 9.79334 73.9557 9.8581 74.7799 9.84623C75.5798 9.83453 75.7963 9.75521 76.1548 9.34151C76.7383 8.66844 76.7338 7.63725 76.145 7.08846C75.6641 6.64023 74.535 6.44327 73.9262 6.70138Z" fill="#28B4F9"/>
</g>
</svg>
